<?xml version="1.0"?>
<svg xmlns="http://www.w3.org/2000/svg" viewBox="0 0 384.55 511.13" width="384.55" height="511.13"><g id="Capa_2" data-name="Capa 2"><g id="Capa_1-2" data-name="Capa 1"><g id="kxGiWP.tif"><path d="M329.7,511.13H54.4c-.41-.27-.79-.72-1.22-.78C30,507.25,6.09,485.3,6.23,452.71c.41-94.63.2-189.27.19-283.91a63.59,63.59,0,0,1,14.21-40.52c.77-1,1.47-2,2.63-3.57-4.25-.68-7.81-1.47-11.41-1.77-5.55-.46-9.48-3-11.21-8.31-1.82-5.62.39-10,4.73-13.58,5-4.15,9.86-8.41,14.78-12.64,8.89-7.64,17.77-15.3,27.1-23.34-1.61-1.37-2.8-2.26-3.85-3.3-9.79-9.68-13.29-21.35-9.86-34.63C37.91,10.23,51.7,0,69.53,0q122.4,0,244.79,0c1.33,0,2.66,0,4,.07C339.68,1.15,355.79,22.77,351,43.67c-2,8.8-7.07,15.54-13.88,21.57,2,1.78,3.71,3.33,5.46,4.83,11.47,9.86,23.08,19.56,34.34,29.65,3.09,2.77,5.13,6.7,7.64,10.09v2C382,125,369.9,122.1,361,125c.7,1,1,1.56,1.44,2,10.35,12.32,15.33,26.5,15.28,42.63-.12,36.26,0,72.53,0,108.8,0,59.56.08,119.12-.17,178.68-.07,16.95-7.73,30.61-20.58,41.47C349,505.34,339.5,508.57,329.7,511.13ZM43.49,138.71c-10.28,9.19-13.68,20.88-13.68,34q.06,139.22.08,278.44A45.8,45.8,0,0,0,31.16,463c4.3,16,16.28,24.46,34.23,24.47q126.63,0,253.26,0a41.66,41.66,0,0,0,10.36-.94c16.05-4.14,25.17-16.08,25.19-33.77q.18-140.72,0-281.43c0-12.64-3.76-23.79-13.7-32.65-13.07,7.68-27.1,9.16-41.72,6.08-9.52-2-17.05-7.78-24.86-13.15-4.69-3.23-9.92-6.29-15.35-7.66-10-2.53-19,.6-27.49,6.73-6.91,5-14.26,10.19-22.22,12.83-20.18,6.69-38.3,1.45-54.86-11.67-15.42-12.22-28.51-11.59-44.42-.2-6.53,4.69-13.53,9.34-21,11.91C73.15,148.82,57.87,146.78,43.49,138.71ZM347,105c-11.32-9.74-22.58-19.27-33.63-29a14.85,14.85,0,0,0-10.67-4c-71.44.13-142.87.23-214.31-.1-9,0-16,1.84-22.64,8.29-9,8.8-18.95,16.58-28.69,25,6.76,4.73,12.85,9.67,19.55,13.52,9.89,5.7,20.34,5.6,30.36.09,4.47-2.46,8.47-5.8,12.64-8.82,14.58-10.57,30.92-13.44,47.69-8,9,2.92,17.27,8.87,25.3,14.3,12.55,8.48,26.61,8.78,38.86-.15,2.68-2,5.28-4,8-5.91,19.5-13.33,39.71-14.54,60.4-3.08,4.76,2.64,9,6.25,13.46,9.4,11.19,7.87,24.81,8.47,35.95,1.22C335.22,113.77,340.85,109.41,347,105ZM192,23.64H72.91c-2,0-4,0-6,.16a12.56,12.56,0,0,0-10.51,8.64c-1.37,4.86.19,10.85,4.56,13.16a25,25,0,0,0,11.26,2.75q119.85.22,239.69.1a38.25,38.25,0,0,0,6-.37A12.19,12.19,0,0,0,328,36.83c.48-8-5.05-13.16-14.44-13.17Q252.8,23.6,192,23.64Z"></path><path d="M121.65,273.65c4.44-14.53,11.79-26.83,23.28-36.2,21.93-17.91,46.46-22.73,73.11-12.6,21.59,8.21,35.86,23.94,43.31,45.77.92,2.7,2.28,3.09,4.67,3.06,9.64-.08,19.28-.06,28.91,0,10.45,0,14.89,4.42,14.89,14.79q0,56.88,0,113.76c0,10-4.18,14.36-14.14,14.36q-103.69.07-207.39,0c-9.7,0-14-4.4-14-14q-.06-57.39,0-114.76c0-9.48,4.56-14.08,14-14.16C99.39,273.58,110.5,273.65,121.65,273.65ZM98.1,297.44v95.24H285.89V297.44H258.65c-13.47,0-16.13-2.18-18.71-15.28-5.28-26.84-33.82-44.34-60.3-36.83-19.47,5.52-31.42,18.25-35.64,38.11-2.37,11.16-5.73,14-16.86,14Z"></path></g></g></g></svg>