<?xml version="1.0"?>
<svg xmlns="http://www.w3.org/2000/svg" viewBox="0 0 262.61 135.79" width="262.61" height="135.79"><defs><style>.cls-1{fill:#fff;}.cls-2{fill:#6071d9;}.cls-3{fill:#d67456;}.cls-4{opacity:0.44;}.cls-5{opacity:0.15;}</style></defs><g id="Layer_2" data-name="Layer 2"><g id="Layer_1-2" data-name="Layer 1"><path d="M258.8,66.33a68.23,68.23,0,0,0-8.49-1.26c0-.47-.1-1-.1-1.59,0-3.93,0-7.85,0-11.78a4.09,4.09,0,0,0-2.12-3.81c-2.68-1.62-5.3-3.34-7.91-5.08a1.89,1.89,0,0,1-.82-1.29c-.11-4.49-.16-9-.19-13.48s0-8.88-.07-13.32a5.15,5.15,0,0,0-.85-2.49q-3.24-5-6.67-9.9a2.34,2.34,0,0,0-1.61-.9q-9.24-.15-18.47-.11a2.55,2.55,0,0,0-1.75,1c-2.18,3.05-4.34,6.11-6.32,9.29a9,9,0,0,0-1.17,3.77,46.86,46.86,0,0,0,0,5.3c0,1.65,0,3.3,0,4.95-2.14-3-3.9-6.06-5.82-9a4.32,4.32,0,0,0-2.31-1.79,62.31,62.31,0,0,0-6.59-.87V6.69c-2.31.18-4.22.37-6.13.45-1.34.05-1.8.72-1.77,2,0,1.58,0,3.16,0,4.88-1.81-.23-2.61.95-3.38,2.31-1.17,2.08-2.56,4-3.69,6.14s-2.51,3.76-2.43,6.24c.18,5.68.21,11.37.29,17a4.75,4.75,0,0,1-.2,1.05c-12.42-5.88-24.57-5.87-36,1.71s-15.72,19-15.44,32.46H61.27V35.82H32V80.9h-19v-6l3.13-.43c6.07-.88,9-4.46,8.65-10.6-.06-1.14-.18-2.27-.27-3.41A11.45,11.45,0,0,0,12.16,49.59c-4.64.32-9.76,5-11.32,10C-.68,64.3-.36,68.48,3.66,71.78a13.37,13.37,0,0,0,8.08,3.13v6c-2.42,0-4.72,0-7,0a5.43,5.43,0,0,1,.14,1.17c0,1,0,2-.1,3H183.23q13.17,0,26.35,0h53Zm-253-4.77c.41,3.85,2.32,6.52,6.1,7.79C8.34,69.73,4.49,64.77,5.79,61.56Zm7,12.83h-.42V58.9l.32,0v5.26c3-.43,4.22-2.52,5.48-4.55-.4,3.12-2.5,4.59-5.38,5.51Zm47.57,6.49H42.66V36.69H60.31ZM180.9,8.53c1.37-.45,1.78,0,1.73,1.15s.1,2.26,0,3.37c0,.41-.51.78-.79,1.16-.31-.35-.88-.69-.91-1.07C180.84,11.63,180.9,10.11,180.9,8.53ZM185,58c-4-3.12-8-6.23-11.93-9.4a2.47,2.47,0,0,1-.9-1.61c-.06-6.17,0-12.35,0-18.62,4.43,0,8.8,0,13.18.06.36,0,1,.85,1,1.31,0,8.24,0,16.49,0,24.73,0,1.41.12,2.82.21,4.66C185.79,58.57,185.37,58.27,185,58Zm38.07-43a2.12,2.12,0,0,1,.26-1.13c2.3-3.52,4.64-7,7.08-10.68,2.52,3.68,5.13,7.06,7.21,10.74.78,1.38.38,3.45.4,5.21.07,5.52.09,11,.12,16.55,0,1.87,0,3.74,0,6-2.19-1.29-4-2.42-5.88-3.41a4.42,4.42,0,0,0-2-.29c-2.33,0-4.66,0-7.2,0,0-.55-.07-1.1-.07-1.64Q223,25.62,223,14.94ZM209.43,9.07c.83-1.49,1.74-2.94,2.66-4.38a1.47,1.47,0,0,1,.93-.62c1.83,0,3.65,0,5.46.13.3,0,.85.91.74,1.15-.95,2.14-2,4.23-3.08,6.33l-.74-.17-2.89-5.34-2.82,4.38-.4,0A4,4,0,0,1,209.43,9.07Zm-21.25,38.7c0-6,0-11.93,0-17.9a2.54,2.54,0,0,1,.29-1.14c1.88-3.64,3.79-7.27,5.69-10.89a6.55,6.55,0,0,1,.53-.64c1.75,2.89,3.34,5.69,5.1,8.37a7.69,7.69,0,0,1,1,4.69c-.07,3.36,0,6.72,0,10.08a2.38,2.38,0,0,1-1.23,2.38c-3.68,2.25-7.33,4.56-11.26,7C188.31,48.93,188.18,48.35,188.18,47.77ZM210.7,71.85c-6-.31-11.07-2.89-15.91-6.09a35.4,35.4,0,0,1-4.62-3.52,4.33,4.33,0,0,1-1.28-2.56c-.19-2,0-4.1-.11-6.15-.06-1.27.37-1.71,1.64-1.7,5.92,0,11.85,0,17.78,0h4.18c0,3,0,5.87,0,8.71,0,3.18-.06,6.37,0,9.55C212.44,71.43,212.14,71.93,210.7,71.85ZM203.63,40.5c0-1.15-.11-1.85-.11-2.54,0-7.12,0-14.24-.05-21.35,0-1.25.32-1.68,1.63-1.65,5.12.13,10.24.13,15.36.18a11.32,11.32,0,0,1,1.21.17V38c-3,0-5.79.1-8.56,0C209.81,37.83,206.6,37.8,203.63,40.5Zm45.07,25c-11.8.94-22.7,6.35-34.82,6.46,0-1.74,0-3.26,0-4.78,0-4.61,0-9.23-.1-13.84a2.87,2.87,0,0,1,1.46-2.79c5.5-3.54,10.95-7.17,16.53-10.85,5.06,3.1,10,6.16,15,9.13a3.27,3.27,0,0,1,1.92,2.8C248.74,56.14,248.7,60.69,248.7,65.47Z"></path><path class="cls-1" d="M231.77,39.67c5.06,3.1,10,6.16,15,9.13a3.27,3.27,0,0,1,1.92,2.8c.07,4.54,0,9.09,0,13.87-11.8.94-22.7,6.35-34.82,6.46,0-1.74,0-3.26,0-4.78,0-4.61,0-9.23-.1-13.84a2.87,2.87,0,0,1,1.46-2.79C220.74,47,226.19,43.35,231.77,39.67ZM220.69,57.6a4.19,4.19,0,0,0,.05,1.67,2,2,0,0,0,1.33,1,1.5,1.5,0,0,0,1.2-.87,8.31,8.31,0,0,0,0-3.18c-.11-.48-1-1-1.56-1.08-.33,0-.84.79-1.11,1.31C220.5,56.74,220.67,57.21,220.69,57.6ZM231,57.53a4.2,4.2,0,0,0,0,1.67,1.91,1.91,0,0,0,1.25,1,1.65,1.65,0,0,0,1.29-1,7.16,7.16,0,0,0,.06-3,2,2,0,0,0-1.5-1.14c-.39,0-.86.85-1.18,1.39C230.79,56.78,230.94,57.19,231,57.53Z"></path><path class="cls-1" d="M238.12,41.66c-2.19-1.29-4-2.42-5.88-3.41a4.42,4.42,0,0,0-2-.29c-2.33,0-4.66,0-7.2,0,0-.55-.07-1.1-.07-1.64q0-10.68,0-21.36a2.12,2.12,0,0,1,.26-1.13c2.3-3.52,4.64-7,7.08-10.68,2.52,3.68,5.13,7.06,7.21,10.74.78,1.38.38,3.45.4,5.21.07,5.52.09,11,.12,16.55C238.13,37.5,238.12,39.37,238.12,41.66Zm-3.89-22.2c0,.17,0-.12,0-.4.11-.91-.13-1.78-1.15-1.59-.51.09-1,1-1.24,1.61a3.08,3.08,0,0,0,.13,1.84,7.76,7.76,0,0,0,1.05,1.56,15.75,15.75,0,0,0,1.16-1.56C234.35,20.66,234.23,20.25,234.23,19.46Z"></path><path class="cls-1" d="M221.67,38c-3,0-5.79.1-8.56,0-3.3-.15-6.51-.18-9.48,2.52,0-1.15-.11-1.85-.11-2.54,0-7.12,0-14.24-.05-21.35,0-1.25.32-1.68,1.63-1.65,5.12.13,10.24.13,15.36.18a11.32,11.32,0,0,1,1.21.17Z"></path><path class="cls-1" d="M212.38,51.86c0,3,0,5.87,0,8.71,0,3.18-.06,6.37,0,9.55,0,1.31-.26,1.81-1.7,1.73-6-.31-11.07-2.89-15.91-6.09a35.4,35.4,0,0,1-4.62-3.52,4.33,4.33,0,0,1-1.28-2.56c-.19-2,0-4.1-.11-6.15-.06-1.27.37-1.71,1.64-1.7,5.92,0,11.85,0,17.78,0Z"></path><path class="cls-1" d="M172.11,28.32c4.43,0,8.8,0,13.18.06.36,0,1,.85,1,1.31,0,8.24,0,16.49,0,24.73,0,1.41.12,2.82.21,4.66-.69-.51-1.11-.81-1.51-1.13-4-3.12-8-6.23-11.93-9.4a2.47,2.47,0,0,1-.9-1.61C172.08,40.77,172.11,34.59,172.11,28.32Zm2.09,8.46a9,9,0,0,0,.06,2.64,2.53,2.53,0,0,0,1.45,1.38,1.67,1.67,0,0,0,1.4-.85,23.16,23.16,0,0,0,.13-5.06c-.05-.46-1.18-1.17-1.74-1.11s-1.05.95-1.32,1.59A3,3,0,0,0,174.2,36.78Z"></path><path class="cls-1" d="M194.72,17.2c1.75,2.89,3.34,5.69,5.1,8.37a7.69,7.69,0,0,1,1,4.69c-.07,3.36,0,6.72,0,10.08a2.38,2.38,0,0,1-1.23,2.38c-3.68,2.25-7.33,4.56-11.26,7-.09-.81-.22-1.39-.22-2,0-6,0-11.93,0-17.9a2.54,2.54,0,0,1,.29-1.14c1.88-3.64,3.79-7.27,5.69-10.89A6.55,6.55,0,0,1,194.72,17.2Z"></path><path class="cls-1" d="M215.4,11.51l-2.89-5.34-2.82,4.38-.4,0a4,4,0,0,1,.14-1.45c.83-1.49,1.74-2.94,2.66-4.38a1.47,1.47,0,0,1,.93-.62c1.83,0,3.65,0,5.46.13.3,0,.85.91.74,1.15-.95,2.14-2,4.23-3.08,6.33Z"></path><path class="cls-1" d="M12.74,65.09v9.3h-.42V58.9l.32,0v5.26c3-.43,4.22-2.52,5.48-4.55C17.72,62.7,15.62,64.17,12.74,65.09Z"></path><path class="cls-1" d="M180.9,8.53c1.37-.45,1.78,0,1.73,1.15s.1,2.26,0,3.37c0,.41-.51.78-.79,1.16-.31-.35-.88-.69-.91-1.07C180.84,11.63,180.9,10.11,180.9,8.53Z"></path><path class="cls-1" d="M5.79,61.56c.41,3.85,2.32,6.52,6.1,7.79C8.34,69.73,4.49,64.77,5.79,61.56Z"></path><path d="M222.11,60.76H222a2.48,2.48,0,0,1-1.71-1.25,2.63,2.63,0,0,1-.14-1.41,3.83,3.83,0,0,0,0-.47,1.87,1.87,0,0,0,0-.32,1.71,1.71,0,0,1,.06-1.09c.84-1.65,1.41-1.59,1.6-1.57.68.07,1.83.69,2,1.46a8.79,8.79,0,0,1-.05,3.38A1.94,1.94,0,0,1,222.11,60.76Zm-.32-5.12a4.1,4.1,0,0,0-.69,1,1.44,1.44,0,0,0,0,.48c0,.15,0,.29.05.43v0a5.63,5.63,0,0,1,0,.58,2,2,0,0,0,0,.87,1.5,1.5,0,0,0,.93.71,1.25,1.25,0,0,0,.66-.47,7.72,7.72,0,0,0,.05-3A1.78,1.78,0,0,0,221.79,55.64Z"></path><path d="M232.28,60.75h0a2.32,2.32,0,0,1-1.68-1.34,2.66,2.66,0,0,1-.13-1.39,3.83,3.83,0,0,0,0-.47,2.48,2.48,0,0,0,0-.27,1.45,1.45,0,0,1,.07-1l.05-.09c.42-.73.9-1.55,1.55-1.55h0a2.41,2.41,0,0,1,2,1.53A7.51,7.51,0,0,1,234,59.4,2.12,2.12,0,0,1,232.28,60.75Zm-.18-5.11a7.13,7.13,0,0,0-.68,1l0,.09a1.68,1.68,0,0,0,0,.33,2.91,2.91,0,0,1,.05.4v0a5.78,5.78,0,0,1,0,.58,2.08,2.08,0,0,0,0,.88,1.55,1.55,0,0,0,.82.76h0a1.29,1.29,0,0,0,.77-.56,6.48,6.48,0,0,0,.06-2.8A1.58,1.58,0,0,0,232.1,55.64Z"></path><path d="M161.33,77.25c.09-2.85,0-5.7,0-8.55,0-1-.19-1.6-1.42-1.58-6.84.09-13.68.13-20.52.18-1,0-2,0-3.14,0V35.21h-26.7V26a19.69,19.69,0,0,0-2,0c-1.45.15-2.07-.37-2-1.91.1-2,0-4.1,0-6.15,0-1.21-.42-1.59-1.61-1.54-2.39.11-4.78.11-7.18.13-3.86,0-7.73,0-11.77,0V26.1H77.4V58.5l-1.19-.61A14.26,14.26,0,0,0,57.1,63.11C55.9,65,54.87,67,53.71,68.85c-2.5,4.08-6,6.16-10.91,5.26A11.17,11.17,0,0,0,41.27,74c-4.57-.14-6.26,1.4-7,4.3v4.82h127.1c0-1.64,0-3.28.08-4.91A2.81,2.81,0,0,1,161.33,77.25Zm-51.08-41h16.48V41.2c0,8.23,0,16.47,0,24.7,0,.45-.54,1.29-.83,1.3-5.16.08-10.33.06-15.6.06ZM85.92,17.45h12V26h-12ZM98.14,79H82.31c1.12-4.73,1.63-9.16-.06-13.45a42.67,42.67,0,0,0-3.14-5.41,4.45,4.45,0,0,1-.81-2c0-10.31,0-20.61,0-31.09H98.14Zm41.75.07H99c0-3.47,0-6.87.06-10.26,0-.34.91-.92,1.41-.93,3.75-.1,7.52-.1,11.27-.11H138.2c.51,0,1,.05,1.69.08Zm3.44-6.15c-.27-.46-.72-.9-.75-1.37s.44-.83.69-1.25l1,1.28Zm5.46,0c-.23-.45-.66-.9-.65-1.34s.45-.86.71-1.29l1.21,1.34Zm6.29,0c-.27-.48-.72-.94-.74-1.42s.49-.81.76-1.21l1.08,1.35Z"></path><path class="cls-1" d="M82.31,79c1.12-4.73,1.63-9.16-.06-13.45a42.67,42.67,0,0,0-3.14-5.41,4.45,4.45,0,0,1-.81-2c0-10.31,0-20.61,0-31.09H98.14V79Zm0-28.61h0a5.56,5.56,0,0,0,0,1.53,1.29,1.29,0,0,0,.83.67c.18.05.66-.34.68-.57a13.87,13.87,0,0,0,0-2.88c0-.28-.57-.64-.93-.71-.17,0-.57.46-.68.78A3.85,3.85,0,0,0,82.32,50.34ZM84,57.73H84c0-.28.13-.62,0-.84a12.52,12.52,0,0,0-.91-1.41,5.92,5.92,0,0,0-.8,1.42,3.19,3.19,0,0,0,0,1.68c.14.45.6.79.92,1.18A8.84,8.84,0,0,0,84,58.58,2.4,2.4,0,0,0,84,57.73ZM82.32,43.39h0a2.13,2.13,0,0,0,0,.84,11.26,11.26,0,0,0,.8,1.27c.28-.4.72-.76.81-1.2a5.76,5.76,0,0,0,0-2.19c0-.3-.58-.63-.94-.68-.19,0-.57.46-.67.77A3.93,3.93,0,0,0,82.32,43.39Zm0-7.14h0c0,.29-.1.62,0,.85a10,10,0,0,0,.84,1.24A4.85,4.85,0,0,0,84,37.1a4.33,4.33,0,0,0,0-1.86c-.09-.4-.56-.71-.86-1.06a5.8,5.8,0,0,0-.82,1.06A2.6,2.6,0,0,0,82.31,36.25Z"></path><path class="cls-1" d="M110.25,67.26v-31h16.48V41.2c0,8.23,0,16.47,0,24.7,0,.45-.54,1.29-.83,1.3C120.69,67.28,115.52,67.26,110.25,67.26ZM113,55.64c.49.76.85,1.34,1.22,1.92a6,6,0,0,0,.81-1.93c0-.5-.53-1-.83-1.55Zm.09,6.09c.4.71.73,1.27,1.06,1.83a6.42,6.42,0,0,0,.88-2c0-.47-.6-1-.93-1.47C113.77,60.56,113.47,61.07,113.07,61.73Zm2.41-11.89-1.32-1.61c-.25.4-.76.84-.72,1.2.1.77-.64,2,.79,2.14C114.55,51.6,115,50.6,115.48,49.84Zm0-5.94-1.34-1.74c-.26.41-.77.84-.73,1.23a11.7,11.7,0,0,0,.69,2.33Z"></path><path class="cls-1" d="M97.92,26h-12V17.45h12Z"></path><path d="M233,23.33l-.4-.57-.33-.44a4.47,4.47,0,0,1-.77-1.24,3.58,3.58,0,0,1-.13-2.16c.22-.66.82-1.8,1.62-2a1.44,1.44,0,0,1,1.28.32,2.12,2.12,0,0,1,.45,1.83c0,.13,0,.27,0,.34h0c0,.27,0,.5,0,.69a1.66,1.66,0,0,1-.12,1,7.4,7.4,0,0,1-.85,1.18l-.35.44Zm.34-5.39-.17,0a2.32,2.32,0,0,0-.85,1.28,2.48,2.48,0,0,0,.12,1.51,3.35,3.35,0,0,0,.59.91,7,7,0,0,0,.71-1,2.49,2.49,0,0,0,0-.46q0-.26,0-.63a2.5,2.5,0,0,1,0-.58,1.27,1.27,0,0,0-.15-1A.33.33,0,0,0,233.37,17.94Z"></path><path d="M175.82,41.32a.75.75,0,0,1-.26,0,3,3,0,0,1-1.77-1.7,4.61,4.61,0,0,1-.13-1.87c0-.28,0-.59,0-.92,0-.06,0-.14,0-.23a2.48,2.48,0,0,1,.06-1.39c.18-.42.83-1.8,1.72-1.89a2.6,2.6,0,0,1,1.69.65,1.45,1.45,0,0,1,.61.91A23.06,23.06,0,0,1,177.6,40a1.5,1.5,0,0,1-.77.94A2,2,0,0,1,175.82,41.32Zm-.24-7h0a2.73,2.73,0,0,0-.91,1.3,1.8,1.8,0,0,0,0,.83c0,.14,0,.27,0,.36v0c0,.35,0,.68,0,1a3.81,3.81,0,0,0,.07,1.47,2.08,2.08,0,0,0,1.14,1.08,1.86,1.86,0,0,0,.76-.51,23.24,23.24,0,0,0,.11-4.87A2,2,0,0,0,175.58,34.27Z"></path><path d="M56.78,69.37c-2.5,4.08-6,6.16-10.91,5.26a9.78,9.78,0,0,0-1.53-.14c-4.57-.14-6.26,1.39-7,4.3V83.6h26"></path><path class="cls-2" d="M35.34,101.77a5.52,5.52,0,0,1-1.46,1.47,8.37,8.37,0,0,0,2.64,2.28l-1-1.63a.22.22,0,0,1,0-.3l1.32-1.51-.1.1"></path><path class="cls-2" d="M42,106.25a7.58,7.58,0,0,0,0,1.65l3.83,0-2.09-.59a.47.47,0,0,1-.26-.14.44.44,0,0,1-.06-.23l-.1-1.11"></path><path class="cls-2" d="M43,98.5l-6,4.68a.54.54,0,0,1-.36.16.57.57,0,0,1-.28-.18c-.55-.56-1.09-1.12-1.64-1.67a9.31,9.31,0,0,0,1.69-1.63l5.24-6.07"></path><path class="cls-2" d="M41.25,70.35a3.21,3.21,0,0,0,2.79.06c.34-.35.28-2.61,0-3.87a3.12,3.12,0,0,0-.3-.84,2.63,2.63,0,0,0-2-1.12,1.91,1.91,0,0,0-1.23.16,1.7,1.7,0,0,0-.74,1.07,4.87,4.87,0,0,0-.09,1.32l.06,3.49a1.12,1.12,0,0,0,.23.8"></path><path class="cls-2" d="M39.65,73.68l1.81.09.61-2.21-.17,0c0-.1,0-.21,0-.31s0-.51,0-.76c0-.4,0-.79,0-1.19L39.75,69Z"></path><path class="cls-2" d="M37.05,86.13a15.73,15.73,0,0,0,.43,2,15.08,15.08,0,0,0,2.16,4.61l.64.9A7.57,7.57,0,0,1,41,95a9.17,9.17,0,0,1,.49,3.69l0,7.85a15,15,0,0,1,2.32.18l1.62-6.83A16.9,16.9,0,0,0,46,96.06a16.15,16.15,0,0,0-.54-3.57c-.22-1-.45-2-.68-3s-.47-2.11-.71-3.17c-.09-.4-.19-.81-.28-1.21Z"></path><path class="cls-2" d="M37.48,88.17a15.08,15.08,0,0,0,2.16,4.61l.64.9c.14-.59.26-1.19.36-1.78a1,1,0,0,1,.43,0l0-.32.52-.06c.17-.41-.45-1-.12-1.26a.62.62,0,0,1,.29-.12l3.08-.63c-.24-1.06-.47-2.11-.71-3.17-.24,0-.47,0-.7,0a16.31,16.31,0,0,0-5.35,1.49A1.63,1.63,0,0,0,37.48,88.17Z"></path><path class="cls-2" d="M41.54,88.38l1.05,4.67c.32,1.44.71,2.89.89,4.37a17.72,17.72,0,0,1-.23,4.42c-.22,1.55-.43,3.1-.65,4.66,0,.12-.2.07-.18,0,.21-1.5.41-3,.62-4.48a17.82,17.82,0,0,0,.25-4.55,45.41,45.41,0,0,0-.92-4.5c-.34-1.5-.68-3-1-4.49a.09.09,0,0,1,.18-.05Z"></path><path class="cls-2" d="M40.52,71.51l1.55,0a28.22,28.22,0,0,1,3.68,17.3c-3.25.29-6.52.46-9.78.49.14-2,.29-4,.43-6,.29-4,.62-8.13,2.47-11.69"></path><path class="cls-2" d="M41.05,75.83a25.13,25.13,0,0,0,.2,4.33l-.94.1a67.87,67.87,0,0,0-.55,6.82A2.35,2.35,0,0,0,40,88.41c.07.11.17.23.12.35a.34.34,0,0,1-.2.17,1.11,1.11,0,0,1-1.11-.26,2.11,2.11,0,0,1-.49-1,25.06,25.06,0,0,1-.71-6.79,19.06,19.06,0,0,1,.07-2.27,9.63,9.63,0,0,1,1.43-4"></path><path class="cls-2" d="M39.77,79.09a36.83,36.83,0,0,0-.49,9.72l-1,.3a10.2,10.2,0,0,1-2.14-5.72,17.91,17.91,0,0,1,.76-6.12"></path><path class="cls-2" d="M39.07,88.13l1.8,1.17c.12.08.27.24.17.36a.23.23,0,0,1-.18.07,1.34,1.34,0,0,1-1-.33,10.35,10.35,0,0,1,1,1.9,1.67,1.67,0,0,1-1.08-1.11l.39,1.47a2.7,2.7,0,0,1-1-1.47,4.62,4.62,0,0,0,.2,1.47,2.69,2.69,0,0,1-.62-1.15v.62a.44.44,0,0,1,0,.2.26.26,0,0,1-.38,0,.75.75,0,0,1-.21-.38,9.72,9.72,0,0,1-.36-3.6"></path><path class="cls-2" d="M40.67,79.83q.33-3.1.51-6.21a2.77,2.77,0,0,0-.42-2,1.88,1.88,0,0,0-2.5,0A4.91,4.91,0,0,0,36.9,74a32.14,32.14,0,0,0-1.21,5.13,29.06,29.06,0,0,1,4.92.73"></path><path class="cls-2" d="M39.72,70.07c-.25-.69-.94-1.1-1.45-1.63a3.8,3.8,0,0,1-.81-1.35,1,1,0,0,1-.05-.3.89.89,0,0,1,.08-.31,17.3,17.3,0,0,1,1-2c1.9-.08,3.79-.13,5.69-.15-.2.31-.4.61-.59.92a.47.47,0,0,1-.11.13.42.42,0,0,1-.19,0,7.63,7.63,0,0,0-1.51.21c-.06.88-.13,1.77-.19,2.65a.92.92,0,0,1-.33,0c0-.36,0-.72,0-1.07H40.6l.17.92a.28.28,0,0,1,0,.13.19.19,0,0,1-.05.1"></path><path class="cls-2" d="M44.21,68.69c.18-.15.7,0,.72-.36s-.63-.54-1-1.52c-.11,0,.13.24.13.24L44,68.12"></path><path class="cls-2" d="M43,67.73l.14-.12.18-.15a1,1,0,0,1,.53-.18,3,3,0,0,0,0,.6,1.58,1.58,0,0,1-.8-.16"></path><path class="cls-2" d="M43.67,67.29c-.06.17-.14.37,0,.5a.08.08,0,0,0,.13,0,1,1,0,0,0,0-.42s0,0,0,0Z"></path><path class="cls-2" d="M43.82,67.93a1.78,1.78,0,0,1-.82-.17c-.06,0,0-.11,0-.08a1.57,1.57,0,0,0,.77.16,0,0,0,1,1,0,.09Z"></path><path class="cls-2" d="M43,67.68a1.51,1.51,0,0,1,.88-.46c.06,0,.06.08,0,.09a1.36,1.36,0,0,0-.81.44c-.05,0-.12,0-.07-.07Z"></path><path class="cls-2" d="M43.79,67.15c0-.13,0-.25,0-.37s.08-.08.09,0,0,.26,0,.39-.09.06-.1,0Z"></path><path class="cls-2" d="M43.83,67.18c-.24,0-.55.2-.71.34s-.11,0-.07-.06a1.11,1.11,0,0,1,.8-.37c.06,0,0,.1,0,.09Z"></path><path class="cls-2" d="M44.27,69.27a.36.36,0,0,1,0,.27.23.23,0,0,1-.07.1.2.2,0,0,1-.2,0,.61.61,0,0,1-.4-.32"></path><path class="cls-2" d="M43.66,69.31s0,0,0,0,.16-.16.25-.23A.39.39,0,0,1,44.3,69l0,.21a.11.11,0,0,1,0,.09.2.2,0,0,1-.17,0,.31.31,0,0,0-.19,0"></path><path class="cls-2" d="M43.65,69.31a3,3,0,0,0,.6,0s0,0,0,0a2.47,2.47,0,0,1-.61,0s0,0,0,0Z"></path><path class="cls-2" d="M41.25,67.19a.51.51,0,0,0-.6-.11.78.78,0,0,0-.37.6,1,1,0,0,0,.2.71.89.89,0,0,0,.2.19.67.67,0,0,0,.61.16"></path><path class="cls-2" d="M44.06,68.29a.22.22,0,0,0-.12.3s0,.1-.08,0a.39.39,0,0,1,0-.28A.28.28,0,0,1,44,68.2c.05,0,.08.07,0,.09Z"></path><path class="cls-2" d="M43.83,66.46a.56.56,0,0,0,0-.13s0,0,0,0h0l-.69-.06a.41.41,0,0,0-.11,0,.27.27,0,0,0-.08.07,3.29,3.29,0,0,0-.47.59A.9.9,0,0,1,43,66.7a6,6,0,0,1,.85-.07"></path><path class="cls-2" d="M41.33,70.44a1.19,1.19,0,0,0,.28.65,1.39,1.39,0,0,0,.27.21c0-.25,0-.51,0-.76a1.43,1.43,0,0,1-.52-.83A2.56,2.56,0,0,0,41.33,70.44Z"></path><path d="M99.86,88c-.36.24-.57.34-.93.58-1.48-1.17-3.09-2.56-3.24-4.44a3.23,3.23,0,0,0-.21-1.43,2.77,2.77,0,0,0-.63-.65,8,8,0,0,1-1-1,9.58,9.58,0,0,1-1.11-1.56,9.45,9.45,0,0,1-1.14-3.58l4.23-2a22.57,22.57,0,0,0,.81,3.24c.17.51.35,1,.56,1.51s.36.82.56,1.22a6.5,6.5,0,0,1,.57,1.33,9.52,9.52,0,0,1,.17,2.14A9.46,9.46,0,0,0,99.86,88Z"></path><path d="M95.73,74.09a20.58,20.58,0,0,1-.77,4c-.17.58-.36,1.15-.58,1.7s-.33.81-.51,1.2a5.19,5.19,0,0,1-.63,1.07,8.48,8.48,0,0,1-1,.89A10.79,10.79,0,0,0,89,87.39l-.8,2A5.8,5.8,0,0,1,87,89.12c.93-2-.42-4.57.72-6.45.5-.83,1.41-1.36,1.9-2.2a3,3,0,0,0,.34-.86,8.51,8.51,0,0,0,.09-2.21,8.15,8.15,0,0,1,.09-1.85,4.23,4.23,0,0,1,2.65-3.11Z"></path><path d="M90.11,78.69a6.58,6.58,0,0,0,3.51.57c.35-.05.7-.13,1-.2.1-.31.2-.62.29-.93l-.8-.81a10.72,10.72,0,0,0-4.07.08C90.11,77.83,90.13,78.27,90.11,78.69Z"></path><path d="M87.08,88.68l-.24,1.66,3,.13c-.72-.58-2.11-.35-1.17-1.75A8.1,8.1,0,0,0,87.08,88.68Z"></path><path d="M95.23,65.93l-.24.9-.06.2c-.05.2-.1.4-.16.6a.14.14,0,0,1,0,.07c-.06.25-.13.5-.19.74A5.64,5.64,0,0,1,93,68c-.13-.05-.28-.12-.3-.25a.42.42,0,0,1,0-.22c.29-.6.57-1.2.86-1.79Z"></path><path d="M95.61,74.42a20.89,20.89,0,0,1-3.71-.22.39.39,0,0,1-.18-.06.39.39,0,0,1-.14-.21,9.29,9.29,0,0,1-.69-2.15,4.73,4.73,0,0,1,1.79-4.31,9.53,9.53,0,0,1,2.13.86c.56.43,1.46,4.84,1.44,4.93S95.61,74.42,95.61,74.42Z"></path><path d="M92,68.76a2.65,2.65,0,0,0-.06,1.78,5.11,5.11,0,0,0,.86,1.59.54.54,0,0,1,.1.16.61.61,0,0,1,0,.33,7.62,7.62,0,0,0,0,1.07,8.16,8.16,0,0,0,2,.17.14.14,0,0,0,.17-.15,2,2,0,0,0-.09-.94,7.17,7.17,0,0,0-2.23-3.83"></path><path d="M97.38,77.88A9.26,9.26,0,0,1,93.6,79a13.54,13.54,0,0,1-3.82-.62s-.42-4,1.63-5.07c0,0,.85.12,1.86.19a11.72,11.72,0,0,0,2.14,0,1.66,1.66,0,0,1,.31,0c.58,0,.65.37.6.69a2,2,0,0,1-.2.56l.46,1.18Z"></path><path d="M96.58,75.86a1.5,1.5,0,0,1-.34.27,1.1,1.1,0,0,1-1,.1,1.64,1.64,0,0,1-.5-.41,9,9,0,0,1-.94-1.1,2.78,2.78,0,0,1-.48-1.27,11.72,11.72,0,0,0,2.14,0,1.66,1.66,0,0,1,.31,0l.07.09.53.6a2,2,0,0,1-.2.56Z"></path><path d="M99.11,72.3a1,1,0,0,0,0-1.14A.94.94,0,0,0,98,70.85l.51,1.05"></path><path d="M98.51,71.91l.93-1.84a.26.26,0,0,0,0-.2.33.33,0,0,0-.12-.17,18.88,18.88,0,0,0-1.93-1.39,12.09,12.09,0,0,1-2,3.2.25.25,0,0,0-.1.22.32.32,0,0,0,.08.14c.59.59,1.18,1.19,1.76,1.79"></path><path d="M96.11,75.15c.5-.3,1-.61,1.47-.94a25,25,0,0,0-1.39-4,4.15,4.15,0,0,0-1.51-2,2.12,2.12,0,0,0-2.47.23c-.85.84.38,2.59.5,2.79a18,18,0,0,0,3.38,3.88Z"></path><path d="M96.41,73.69c.77-.66,1.54-1.32,2.3-2l.45.17a.11.11,0,0,1,.09.07.11.11,0,0,1,0,.08,12.6,12.6,0,0,1-1.18,2.2,2.64,2.64,0,0,1-.89.9,1.21,1.21,0,0,1-1.27,0,.77.77,0,0,1-.14-1,1.43,1.43,0,0,1,1-.59"></path><path d="M98.53,88.25c.31.46.62.93.94,1.39l2.32-2c-.93,0-1.79,1.17-2.05-.51A9.21,9.21,0,0,0,98.53,88.25Z"></path><path d="M88.93,63.55a.47.47,0,0,0,.29.05s0-.07,0-.07a.4.4,0,0,1-.24,0,0,0,0,0,0,0,.06Z"></path><path d="M88.08,64.82a1.56,1.56,0,0,1,.77-.14,1.49,1.49,0,0,0,.47,0,2.22,2.22,0,0,0,.8-.49s0-.07-.05,0a1.68,1.68,0,0,1-1.22.49,1.52,1.52,0,0,0-.81.15s0,.08,0,.06Z"></path><path d="M92.41,62.81a1.46,1.46,0,0,0-1.56-.22,8.64,8.64,0,0,0-1,.79,2.22,2.22,0,0,1-1.87.32c0,.26.27.44.51.52A1.82,1.82,0,0,0,90.08,64a1.55,1.55,0,0,1-1,.61,4.46,4.46,0,0,0-1.15.32.93.93,0,0,0-.53,1,.67.67,0,0,1,.78-.41,9.1,9.1,0,0,1,.93.27,1.7,1.7,0,0,0,1.83-.85,5.68,5.68,0,0,0,.31-1,.81.81,0,0,1,.14-.33,1,1,0,0,1,.94-.24"></path><path d="M92.46,62.76a1.55,1.55,0,0,0-1.92-.07,8,8,0,0,1-1,.8,2.16,2.16,0,0,1-1.54.14.08.08,0,0,0-.09.09c.07.42.51.59.88.64A1.87,1.87,0,0,0,90.11,64L90,63.93c-.45.67-1.35.54-2,.84a1,1,0,0,0-.68,1.11c0,.08.11.06.14,0,.26-.75,1.25-.13,1.74-.06a1.69,1.69,0,0,0,1.2-.27,1.82,1.82,0,0,0,.73-1,7.69,7.69,0,0,1,.21-.79c.18-.43.58-.44,1-.4.09,0,.09-.13,0-.14-.4,0-.87,0-1.07.39a8.1,8.1,0,0,0-.28,1,1.6,1.6,0,0,1-.72.88,1.66,1.66,0,0,1-1,.21c-.37,0-.69-.23-1-.29a.78.78,0,0,0-.93.45h.14c-.16-.9,1-1.06,1.57-1.2a1.7,1.7,0,0,0,1.1-.65.07.07,0,0,0-.1-.1,1.83,1.83,0,0,1-1,.34c-.38,0-1-.11-1-.56l-.09.09a2.35,2.35,0,0,0,2-.39,5.58,5.58,0,0,1,1-.73,1.38,1.38,0,0,1,1.47.21c.07.06.17,0,.1-.1Z"></path><path d="M91.75,63.57a.57.57,0,0,1-.34.14.33.33,0,0,1-.31-.16.28.28,0,0,1,.39-.36.27.27,0,1,1,.27-.44c-.09-.07-.09-.2-.09-.32a.16.16,0,0,1,0-.1s0-.06.08-.08a.59.59,0,0,1,.75.21.37.37,0,0,1,.07.2.52.52,0,0,1-.1.27,1.34,1.34,0,0,1-.42.52"></path><path d="M95.81,63a.72.72,0,0,0-.22-.24.84.84,0,0,0-.24-.07l-.49-.06-.66-.08a2.83,2.83,0,0,0-.41,0,2.4,2.4,0,0,0-.46.05,1.71,1.71,0,0,0-.92.48,3,3,0,0,0-.28.41,2.26,2.26,0,0,0-.21.48,1.45,1.45,0,0,0,0,.55,2.93,2.93,0,0,0,1.29,1.9.58.58,0,0,1,.12.1v0a.1.1,0,0,1,.12-.07.42.42,0,0,1,0-.1.08.08,0,0,1,.11-.06.36.36,0,0,1,0-.09.08.08,0,0,1,.14,0c0-.06.13,0,.15,0a.08.08,0,0,1,0,.07l-.05.13,0,.15,0-.06a.11.11,0,0,1,.12,0l.16-.2c0-.06.12,0,.16,0a.52.52,0,0,1,.1-.11,0,0,0,0,1,0,0L96,64.36A1.94,1.94,0,0,0,95.81,63Z"></path><path d="M96.28,64.62c.27-1.62-.28-1.5-.84-1.59a2.47,2.47,0,0,1-1.08,1.63,4.91,4.91,0,0,1-1.34.57h0l.07.65h0a4.08,4.08,0,0,1,.59.82l.22.1a.37.37,0,0,1,.31,0,.16.16,0,0,1,.08.06,1.51,1.51,0,0,0,1.06.1,1.63,1.63,0,0,0,.74-1.13h0a4,4,0,0,0,.17-.68A1.51,1.51,0,0,0,96.28,64.62Z"></path><path d="M94.41,64.8A1,1,0,0,0,95,65c.29,0,.36-.17.36-.17s0-.07-.12-.13a.63.63,0,0,0-.23,0,.28.28,0,0,0-.13,0A.89.89,0,0,0,94.41,64.8Z"></path><path d="M95.78,64.72s0,.21.21.19a.22.22,0,0,0,.22-.2.1.1,0,0,0-.07-.06.16.16,0,0,0-.11,0h-.1A.42.42,0,0,0,95.78,64.72Z"></path><path d="M94.81,64.76A.21.21,0,0,0,95,65a.2.2,0,0,0,.2-.21.25.25,0,0,0,0-.08.63.63,0,0,0-.23,0,.28.28,0,0,0-.13,0A.17.17,0,0,0,94.81,64.76Z"></path><path d="M95.9,64.72a.13.13,0,1,0,.26,0,.14.14,0,0,0,0-.07.16.16,0,0,0-.11,0h-.1A.16.16,0,0,0,95.9,64.72Z"></path><path d="M94.41,64.8A1,1,0,0,0,95,65c.29,0,.36-.17.36-.17s0-.07-.12-.13a.63.63,0,0,0-.23,0,.28.28,0,0,0-.13,0A.89.89,0,0,0,94.41,64.8Z"></path><path class="cls-3" d="M95,65a.91.91,0,0,1-.58-.2,0,0,0,0,1,0,0l0,0a1,1,0,0,1,.45-.17H95a.72.72,0,0,1,.24.05c.13.06.15.14.15.15v0A.4.4,0,0,1,95,65Zm-.5-.22A1,1,0,0,0,95,65a.36.36,0,0,0,.33-.14.21.21,0,0,0-.11-.09.54.54,0,0,0-.21,0h-.13A1,1,0,0,0,94.47,64.8Z"></path><path d="M95.78,64.72s0,.21.21.19a.22.22,0,0,0,.22-.2.1.1,0,0,0-.07-.06.16.16,0,0,0-.11,0h-.1A.42.42,0,0,0,95.78,64.72Z"></path><path class="cls-3" d="M96,64.94a.24.24,0,0,1-.23-.22,0,0,0,0,1,0,0,.52.52,0,0,1,.17-.09l.11,0,.13,0a.18.18,0,0,1,.08.07v0a.26.26,0,0,1-.25.23Zm-.16-.21a.17.17,0,0,0,.16.14h0a.21.21,0,0,0,.19-.15l-.05,0a.29.29,0,0,0-.1,0l-.09,0A.32.32,0,0,0,95.81,64.73Z"></path><path d="M95.36,64.73a.36.36,0,0,0-.36-.24.9.9,0,0,0-.6.25"></path><path class="cls-3" d="M94.4,64.78h0a0,0,0,0,1,0,0,1,1,0,0,1,.59-.27H95a.42.42,0,0,1,.38.25h0a0,0,0,0,1,0,.05h0l0,0a.32.32,0,0,0-.32-.21h0a1,1,0,0,0-.54.25S94.41,64.78,94.4,64.78Z"></path><path d="M96.22,64.6s0-.13-.2-.13a.29.29,0,0,0-.26.18"></path><path class="cls-3" d="M95.76,64.69h0a0,0,0,0,1,0,0,.32.32,0,0,1,.29-.21c.23,0,.23.17.23.17s0,0,0,0h0a0,0,0,0,1,0,0s0-.1-.16-.1a.28.28,0,0,0-.23.17S95.77,64.69,95.76,64.69Z"></path><g class="cls-4"><path d="M95.92,65.51a.31.31,0,0,0,.18.22h0a3.66,3.66,0,0,0,.17-.65h-.11A.34.34,0,0,0,95.92,65.51Z"></path></g><path d="M95.68,64.41s-.07,1,.31,1.06c.07,0,0,.16,0,.16a.17.17,0,0,0-.18,0"></path><path d="M95.68,64.41s-.07,1,.31,1.06c.07,0,0,.16,0,.16a.17.17,0,0,0-.18,0"></path><path class="cls-3" d="M95.79,65.68h0a0,0,0,0,1,0,0,.23.23,0,0,1,.19,0s0-.08,0-.09c-.41,0-.34-1-.34-1.09s0,0,0,0,0,0,0,0c0,.27,0,1,.29,1a.1.1,0,0,1,0,0,.26.26,0,0,1,0,.18s0,0,0,0a.2.2,0,0,0-.15,0S95.8,65.68,95.79,65.68Z"></path><path d="M95.66,65.47a.12.12,0,0,0-.13.12c0,.13.08.09.08.09"></path><path class="cls-3" d="M95.58,65.72h0s0-.06,0-.12a.16.16,0,0,1,0-.12.2.2,0,0,1,.12,0s0,0,0,0a0,0,0,0,1,0,0h0a.08.08,0,0,0-.06,0s0,0,0,.06,0,.06,0,.06h0s0,0,0,0,0,0,0,0Z"></path><g class="cls-4"><path d="M94.55,65.12c.26,0,.54,0,.61.33a.39.39,0,0,1-.36.49h0a.46.46,0,0,1-.55-.3A.4.4,0,0,1,94.55,65.12Z"></path></g><path d="M92.21,64.8a1.16,1.16,0,0,1,.72-.3,5.08,5.08,0,0,1,.78,0h.55A2.09,2.09,0,0,0,95.6,64a3.82,3.82,0,0,1,.36-.34.53.53,0,0,1-.21.42,3.31,3.31,0,0,0,.74-.28.65.65,0,0,0,.32-.7.61.61,0,0,0-.11-.21,1.57,1.57,0,0,0-1.25-.66l-.55.1a2.28,2.28,0,0,0-2,0,2.05,2.05,0,0,0-1.13,2.25,5.83,5.83,0,0,0,1.08,1.52l.44-.9.47-1.38"></path><path d="M92.26,64.85c.6-.52,1.57-.21,2.3-.31a2.33,2.33,0,0,0,.81-.26,6.84,6.84,0,0,0,.64-.55l-.12,0a.45.45,0,0,1-.19.37c-.06,0,0,.14.07.12.39-.14.87-.21,1.06-.63s-.08-.75-.38-1a1.53,1.53,0,0,0-1-.37l-.41.08c-.13,0,0,0-.17,0a2.22,2.22,0,0,0-3.15,2.17,3.71,3.71,0,0,0,1.14,1.73.07.07,0,0,0,.11,0c.16-.33.34-.64.47-1s.3-.88.45-1.32c0-.08-.11-.12-.14,0-.14.42-.28.86-.44,1.28a8.51,8.51,0,0,1-.46,1h.11a3.73,3.73,0,0,1-1.09-1.6A2,2,0,0,1,93,62.38a2.19,2.19,0,0,1,1.63-.08.81.81,0,0,0,.42.1c.14,0,.28-.06.42-.08a1.38,1.38,0,0,1,.77.22c.36.23.77.68.4,1.1a2,2,0,0,1-.87.39l.07.12a.61.61,0,0,0,.23-.47c0-.07-.08-.09-.12,0a3.78,3.78,0,0,1-.81.62,3.14,3.14,0,0,1-1.18.19c-.62,0-1.25-.13-1.76.31-.06.06,0,.16.1.1Z"></path><path d="M93.55,64.93a.41.41,0,0,0-.17-.27.34.34,0,0,0-.31,0,.47.47,0,0,0-.19.38.69.69,0,0,0,0,.32.47.47,0,0,0,.39.31.22.22,0,0,0,.19,0,.34.34,0,0,0,.05-.14,2.63,2.63,0,0,0,0-.56"></path><path d="M94,64.07a1.26,1.26,0,0,1,0,.79.92.92,0,0,1-.56.55c-.12,0-.26.06-.38.11a.63.63,0,0,0-.33.31.31.31,0,0,1,0-.31A1,1,0,0,1,93,65.3a1.38,1.38,0,0,0,.6-.73,1.61,1.61,0,0,0,0-.31,2.44,2.44,0,0,0-.12-.52"></path><path d="M94,64.09a1,1,0,0,1-.69,1.3.81.81,0,0,0-.61.4l.13,0c-.09-.32.31-.5.5-.67a1.16,1.16,0,0,0,.3-.39,1.53,1.53,0,0,0,0-1,.07.07,0,0,0-.14,0,1.43,1.43,0,0,1,.08.84,1.27,1.27,0,0,1-.53.64c-.21.17-.38.32-.3.61a.08.08,0,0,0,.13,0c.24-.41.81-.32,1.11-.69a1.31,1.31,0,0,0,.2-1.12c0-.09-.15,0-.13,0Z"></path><path d="M95.43,62.52c.23,0,.65,0,.66.34,0,0,.08,0,.08,0,0-.36-.46-.42-.74-.41,0,0,0,.07,0,.07Z"></path><path d="M92.27,64.2a2.54,2.54,0,0,0,1.36.3s0-.07,0-.07a2.49,2.49,0,0,1-1.32-.29s-.07,0,0,.06Z"></path><path d="M92.76,64a1.63,1.63,0,0,0,1-.35c.34-.27.52-.67.92-.87a0,0,0,0,0,0-.06,2.24,2.24,0,0,0-.68.62,1.61,1.61,0,0,1-1.25.59,0,0,0,1,0,0,.07Z"></path><path d="M93.9,64.15a1.75,1.75,0,0,0,.76-.4c.25-.22.38-.57.7-.72,0,0,0-.08,0-.06a1.55,1.55,0,0,0-.51.51,1.65,1.65,0,0,1-.93.6s0,.08,0,.07Z"></path><path d="M94.58,64.21l.24-.11c.05,0,0-.08,0-.06l-.25.11s0,.08,0,.06Z"></path><path d="M95.34,63.76a1,1,0,0,0,.44-.71,0,0,0,1,0-.07,0,.91.91,0,0,1-.4.65s0,.09,0,.06Z"></path><path d="M96.39,62.91a.68.68,0,0,1,.18.52.73.73,0,0,1-.3.41s0,.08,0,0a.75.75,0,0,0,.32-.49.73.73,0,0,0-.2-.54s-.08,0,0,0Z"></path><path d="M96.19,63.45a.2.2,0,0,1-.06.15s0,.08.05,0a.3.3,0,0,0,.08-.2,0,0,0,1,0-.07,0Z"></path><path d="M93.72,64.74a.77.77,0,0,1-.48.53,1,1,0,0,0-.42.22s0,.08.05.05c.17-.18.44-.18.63-.33a.9.9,0,0,0,.29-.45c0-.05-.06-.07-.07,0Z"></path><path d="M94.35,62.6A2,2,0,0,0,93,62.45s0,.08,0,.07a1.83,1.83,0,0,1,1.32.14s.08,0,0-.06Z"></path><path d="M93.46,63.47l-.57-.16a1.47,1.47,0,0,1-.55-.38s-.08,0,0,0a1.58,1.58,0,0,0,.43.34,4.29,4.29,0,0,0,.72.22s.06-.06,0-.07Z"></path><path d="M92.61,62.85A1.4,1.4,0,0,0,93,63s.06-.06,0-.07a1.43,1.43,0,0,1-.39-.11s-.06.06,0,.07Z"></path><path d="M93.36,63a1.21,1.21,0,0,0,.32.11s.06-.06,0-.06a1,1,0,0,1-.3-.11s-.08,0,0,.06Z"></path><path d="M91.89,64.15a1.29,1.29,0,0,0,.73,1.23s.06,0,0-.07A1.23,1.23,0,0,1,92,64.15a0,0,0,1,0-.07,0Z"></path><path d="M92.21,64.71a1.41,1.41,0,0,0,.37.27s.08,0,0-.06a1.5,1.5,0,0,1-.36-.26s-.08,0-.05,0Z"></path><path d="M91.16,63a.9.9,0,0,0-.58.39,1.45,1.45,0,0,1-1.11.43s0,.08,0,.07a2,2,0,0,0,.86-.19c.33-.19.43-.55.84-.63,0,0,0-.07,0-.07Z"></path><path d="M90.87,63.61a2,2,0,0,0-.37.88c-.18.6-.63.77-1.21.83-.05,0-.05.08,0,.07A1.51,1.51,0,0,0,90.35,65c.31-.38.23-.94.57-1.31,0,0,0-.08,0,0Z"></path><path d="M95.79,64.34a.64.64,0,0,1,.46-.15c.09,0,.09-.14,0-.14a.81.81,0,0,0-.56.19c-.07.06,0,.16.1.1Z"></path><path d="M95.4,64.24a1.34,1.34,0,0,0-1.11,0c-.08,0,0,.16.07.13a1.1,1.1,0,0,1,1,0c.08,0,.15-.09.07-.13Z"></path><path d="M95.21,66.06s.49-.2.49-.2l.08.07s.08-.12.08-.1.08.2.08.2A2.32,2.32,0,0,1,95.21,66.06Z"></path><path d="M95.25,66.09a.47.47,0,0,0,.4.21c.24,0,.31-.14.3-.17a.72.72,0,0,0-.07-.11l-.6,0Z"></path><path d="M95.26,66.09a2.93,2.93,0,0,1,.66,0s0,0,0,0a2.49,2.49,0,0,0-.67,0s0,0,0,0Z"></path><path d="M93.55,66v0Z"></path><path d="M93.55,65.91v0Z"></path><path d="M94.93,67c-.05.2-.1.4-.16.6a.14.14,0,0,1,0,.07,1.84,1.84,0,0,1-.61-.27A1.78,1.78,0,0,1,93.55,66a.86.86,0,0,0,.26.58,1.38,1.38,0,0,0,.56.3A3.47,3.47,0,0,0,94.93,67Z"></path><path class="cls-2" d="M242.87,71.44a4,4,0,0,0-.69-.47.76.76,0,0,0-.38-.11.74.74,0,0,0-.37.17,10.63,10.63,0,0,0-3,3.49A2.59,2.59,0,0,0,238,76a2.8,2.8,0,0,0,.33.93,3,3,0,0,0,.73,1.06,2.67,2.67,0,0,0,2.48.21"></path><path class="cls-2" d="M238.59,74.15a5.42,5.42,0,0,0,2.25,1.74c.11,0,.16-.14,0-.18a5.28,5.28,0,0,1-2.15-1.65c-.07-.09-.22,0-.15.09Z"></path><path class="cls-2" d="M242.2,71.24a12.31,12.31,0,0,0-2.86,3.57c-.05.1.1.2.15.09a12.11,12.11,0,0,1,2.84-3.53c.08-.08-.05-.21-.13-.13Z"></path><path class="cls-2" d="M252.09,79.69a2.71,2.71,0,0,1,.12.51.48.48,0,0,1,0,.17.34.34,0,0,1-.06.12l-.08.16c0,.06-.09.14-.16.12a.13.13,0,0,1-.09-.15,1.34,1.34,0,0,1,.07-.18.81.81,0,0,0,0-.53,1.6,1.6,0,0,0-.29-.6"></path><path class="cls-2" d="M251.39,79.3c0,.1.08.21.11.31a1.09,1.09,0,0,1,0,.31.36.36,0,0,1-.12.27s-.08.07-.09.11a.11.11,0,0,0,0,.08.14.14,0,0,0,.15,0l.07-.06a.94.94,0,0,0,.16-1.08"></path><path class="cls-2" d="M251.13,80.61c.07,0,.08-.14.07-.23l-.12-1.06a3.15,3.15,0,0,1,.91.51c.27.26.53.85.69.68a2.69,2.69,0,0,0-.68-1.42,7.08,7.08,0,0,0-1-.88,4.4,4.4,0,0,0-.61-.33l-1.22-.62A4.25,4.25,0,0,1,247.52,76a5.89,5.89,0,0,1-.67-1.65c-.17-.54-.33-1.08-.49-1.62l-.34.06c0-.45-.05-.79-.06-.88s-1.61-1.26-1.53,1.14h0v.09a7.73,7.73,0,0,0,.12,1,4,4,0,0,0,.15.64.72.72,0,0,0,.08.23h0c1.18,3.12,5.43,3.7,5.43,3.7a1.38,1.38,0,0,0,.41.79c.24.26,0,.81.43,1Z"></path><path class="cls-2" d="M251.13,79.23a1.33,1.33,0,0,0-.22-.57s-.11,0-.07,0a1.8,1.8,0,0,1,.21.56c0,.06.09,0,.08,0Z"></path><path class="cls-2" d="M245.08,68.15a3.34,3.34,0,0,0,2.54,1A.55.55,0,0,0,248,69a.6.6,0,0,0,.11-.3c0-.22.07-.44.1-.66a.17.17,0,0,0,0-.14.19.19,0,0,0-.13-.07,7.81,7.81,0,0,0-1.93-.19"></path><path class="cls-2" d="M247.21,97.66a11.93,11.93,0,0,1-.3,1.67,5.51,5.51,0,0,1-.29.91,4.43,4.43,0,0,0,.81.07.15.15,0,0,0,.1,0,.09.09,0,0,0,0-.08,16,16,0,0,0,.52-2.67Z"></path><path class="cls-2" d="M233.53,91.43a15.18,15.18,0,0,1-2.22.5c0-.26,0-.52,0-.78,0,0,0-.08,0-.1a.11.11,0,0,1,.08,0l2.25-.38"></path><path class="cls-2" d="M246.63,72.13l.93,1.48a2.19,2.19,0,0,0,1.05,1,3.15,3.15,0,0,1-2.24,1.21"></path><path class="cls-2" d="M247.46,80c.53,2.94,1.07,5.87,1.6,8.81a22,22,0,0,1,.4,2.9,23.1,23.1,0,0,1-.85,6.43,6.65,6.65,0,0,1-1.71,0s.62-5.32-.57-7.71a35,35,0,0,0-2.18-3.17,18.72,18.72,0,0,1-2.06-4.84c-.12-.38-.22-.84.07-1.13"></path><path class="cls-2" d="M247.33,64a2.87,2.87,0,0,1,.61,1.38,1.29,1.29,0,0,0,.1.44,1,1,0,0,0,.32.3,4.33,4.33,0,0,0,.51.31c.08,0,0,.25,0,.25l-.34.16a.52.52,0,0,0-.29.23.63.63,0,0,0,0,.36,2,2,0,0,1-.09.9.32.32,0,0,1-.08.12.24.24,0,0,1-.17,0,2,2,0,0,1-.91-.24"></path><path class="cls-2" d="M246.53,69.18a5.22,5.22,0,0,0,0,1.89c.32,1.56-2.15-.15-2.15-.15l-.28-.11.3-3.16h.83l1.34,0H247A3.78,3.78,0,0,0,246.53,69.18Z"></path><path class="cls-2" d="M246.34,62.89a4.68,4.68,0,0,1,1.48,2.59,13.75,13.75,0,0,1,.24,3,3.68,3.68,0,0,1-1.69.24A3.42,3.42,0,0,1,245,68.5a2.81,2.81,0,0,1-1.29-2.09,4.45,4.45,0,0,1,0-2,2.36,2.36,0,0,1,1.23-1.54,1.63,1.63,0,0,1,1.86.35"></path><path class="cls-2" d="M246.5,66.13l.11-.16c0-.06.1-.13.16-.19a1.11,1.11,0,0,1,.49-.31c0,.21.06.42.11.63a1.75,1.75,0,0,1-.85,0"></path><path class="cls-2" d="M247.08,65.53c0,.18-.05.4.16.5a.09.09,0,0,0,.12-.08.94.94,0,0,0-.06-.44h0Z"></path><path class="cls-2" d="M247.36,66.05a1.79,1.79,0,0,1-.83,0c-.05,0-.08.07,0,.08a1.71,1.71,0,0,0,.87,0,0,0,0,1,0,0-.09Z"></path><path class="cls-2" d="M246.56,66.13a1.45,1.45,0,0,1,.74-.64s0-.1,0-.08a1.52,1.52,0,0,0-.79.67s.05.1.08,0Z"></path><path class="cls-2" d="M247.27,65.33c0-.13-.08-.25-.13-.38s-.11,0-.09,0,.09.25.13.37.11,0,.09,0Z"></path><path class="cls-2" d="M247.22,65.28c-.29,0-.57.34-.72.56,0,0,0,.09.07,0a1.73,1.73,0,0,1,.26-.28.78.78,0,0,1,.39-.23,0,0,0,0,0,0-.09Z"></path><g class="cls-5"><path class="cls-2" d="M247.13,66.83a.43.43,0,0,0-.16-.39.52.52,0,0,0-.3-.06,1,1,0,0,0-.18,0,.44.44,0,0,0-.18.15.43.43,0,0,0-.15.29.44.44,0,0,0,.05.15.47.47,0,0,0,.35.26A.54.54,0,0,0,247.13,66.83Z"></path></g><path class="cls-2" d="M247.32,64.58c-.06-.13-.34-.1-.45-.1a1.24,1.24,0,0,0-.73.15,2.25,2.25,0,0,0-.55.6,0,0,0,0,0,.07.06,1.7,1.7,0,0,1,1.48-.46s0,0,0,0h0A.16.16,0,0,0,247.32,64.58Z"></path><path class="cls-2" d="M248.36,74.6h0l0,.08Z"></path><path class="cls-2" d="M248.42,74.82l0,.12Z"></path><path class="cls-2" d="M248.23,74.13l-.09-.29.09.3Z"></path><path class="cls-2" d="M242.93,72.51c0,.18-.05.36-.07.54.38.08.77.14,1.16.19a4.09,4.09,0,0,1-.3-.59C243.46,72.61,243.19,72.57,242.93,72.51Z"></path><path class="cls-2" d="M248.38,74.68s0,.09,0,.14S248.39,74.73,248.38,74.68Z"></path><path class="cls-2" d="M243.5,71.94l0,.06.56.08Z"></path><path class="cls-2" d="M245.57,64a5.85,5.85,0,0,0,2.45-.09.18.18,0,0,1,0-.25l.06,0v0a.17.17,0,0,1-.1-.2.14.14,0,0,1-.08-.07.17.17,0,0,1-.18-.1l-.11,0c-.17,0-.23-.2-.09-.28h0a.11.11,0,0,1,0-.14l.07-.05a.14.14,0,0,1-.07-.11h0c-.11,0-.18-.09-.15-.18a.1.1,0,0,1-.07,0,.49.49,0,0,1-.41,0h-.46c-.77-.14-.81-.34-1.82.26a9.85,9.85,0,0,1-1.3.42,1.7,1.7,0,0,0-.71.47,1.91,1.91,0,0,0-.26,1,4.51,4.51,0,0,0,0,1,4.06,4.06,0,0,0,1.73,2.24l.06,0,.29-1,.19-1.21s.6.3.75-.56A3.08,3.08,0,0,0,245.57,64Z"></path><path class="cls-2" d="M244.84,66.5a5,5,0,0,1,.07-.87.45.45,0,0,0-.67-.11.86.86,0,0,0-.27.72c0,.36.22.77.58.79a.51.51,0,0,0,.3-.07A3.68,3.68,0,0,1,244.84,66.5Z"></path><path class="cls-2" d="M244.33,63a.86.86,0,0,1,.4-.42,2.67,2.67,0,0,1,.7-.34,3.34,3.34,0,0,1,1.47.09,2,2,0,0,0,1.46-.13,1.22,1.22,0,0,1,.19-.12.25.25,0,0,1,.22,0c.09.08,0,.24,0,.35a1.83,1.83,0,0,1-1.21.81,3.22,3.22,0,0,1-1.48-.08"></path><path class="cls-2" d="M245.3,64a3.57,3.57,0,0,0,3.38-.52,1.31,1.31,0,0,0,.49-.6.14.14,0,0,0,0-.11.15.15,0,0,0-.06-.05.61.61,0,0,0-.35.06,2.54,2.54,0,0,1-1.88,0"></path><path class="cls-2" d="M243.76,63.27a.89.89,0,0,1,.46-.71,2.89,2.89,0,0,1,2.31-.22,3.38,3.38,0,0,1,.63.23.44.44,0,0,1,.19.17.33.33,0,0,1-.1.37.91.91,0,0,1-.38.16,13.62,13.62,0,0,1-1.54.33"></path><path class="cls-2" d="M244.6,62.71s.11,0,.15-.05l.2-.06a1.52,1.52,0,0,1,.42-.06.07.07,0,0,0,0-.14,2.15,2.15,0,0,0-.66.13c-.09,0-.28.08-.24.21a.07.07,0,0,0,.13,0Z"></path><path class="cls-2" d="M245.89,62.56a4.69,4.69,0,0,1,.53,0c.08,0,.08-.13,0-.14h-.53c-.08,0-.08.14,0,.13Z"></path><path class="cls-2" d="M244.57,63.1a3.66,3.66,0,0,1,1.74,0c.09,0,.12-.11,0-.13a3.7,3.7,0,0,0-1.81,0,.07.07,0,0,0,0,.13Z"></path><path class="cls-2" d="M245.2,63.59a4,4,0,0,0,1.68.18.07.07,0,0,0,0-.13,3.8,3.8,0,0,1-1.61-.18c-.09,0-.13.12,0,.13Z"></path><path class="cls-2" d="M247,63.26l.65,0c.08,0,.08-.14,0-.14l-.65,0a.07.07,0,0,0,0,.14Z"></path><path class="cls-2" d="M247.73,63.59a2.09,2.09,0,0,0,.54-.21c.08,0,0-.16-.07-.11a2.34,2.34,0,0,1-.5.19.07.07,0,0,0,0,.13Z"></path><path class="cls-2" d="M243.49,63.37a1.28,1.28,0,0,0-.73.87c0,.08.11.12.14,0a1.09,1.09,0,0,1,.63-.78c.08,0,.05-.16,0-.13Z"></path><path class="cls-2" d="M243.7,63.71a2.86,2.86,0,0,0-.43.76c0,.09.1.12.13,0a2.66,2.66,0,0,1,.42-.73c.05-.07-.07-.14-.12-.07Z"></path><path class="cls-2" d="M244.29,63.91a2.47,2.47,0,0,1-.19.94c0,.08.08.15.12.07a2.67,2.67,0,0,0,.2-1c0-.09-.13-.08-.13,0Z"></path><path class="cls-2" d="M244.6,64.31a5,5,0,0,1-.08.54c0,.09.11.12.13,0a5.81,5.81,0,0,0,.09-.58.07.07,0,0,0-.14,0Z"></path><path class="cls-2" d="M245,64.3a1.22,1.22,0,0,1,0,.27.07.07,0,0,0,.13,0,1.51,1.51,0,0,0,0-.3c0-.09-.15-.09-.14,0Z"></path><path class="cls-2" d="M242.77,65.5a2.93,2.93,0,0,0,.53,1.29c0,.07.17,0,.11-.07a2.86,2.86,0,0,1-.51-1.25c0-.09-.14,0-.13,0Z"></path><path class="cls-2" d="M243.4,66a.92.92,0,0,0,.26.54.07.07,0,1,0,.09-.1.79.79,0,0,1-.21-.44c0-.08-.15-.08-.14,0Z"></path><path class="cls-2" d="M247.69,67.75a1,1,0,0,0,.54.16.22.22,0,0,0,0-.38l-.35,0Z"></path><path class="cls-2" d="M248.27,67.53v-.24a.61.61,0,0,0-.41.1.8.8,0,0,0-.2.26l0,.1A2.08,2.08,0,0,1,248.27,67.53Z"></path><path class="cls-2" d="M247.63,67.68c0,.09.11,0,.19,0l.43-.17s0,0,0,0l-.27.1c-.06,0-.26.14-.3.07s0,0,0,0Z"></path><path class="cls-2" d="M248,66.57l-.16.12s-.05,0-.05.06,0,.06,0,.1l.12.16s.11,0,.07,0l-.07-.12s-.06-.06-.06-.08.13-.1.17-.12,0-.11-.05-.08Z"></path><path class="cls-2" d="M243.34,71a7.75,7.75,0,0,1,.32-1.26l3.33.95a.32.32,0,0,1,.21.15.45.45,0,0,1,0,.2l-.06.49a.36.36,0,0,1-.08.2.24.24,0,0,1-.18,0,6.56,6.56,0,0,1-3.07-.56"></path><path class="cls-2" d="M247.43,81a33.15,33.15,0,0,1-3,7.19,6.41,6.41,0,0,1-2.25,2.48,7.93,7.93,0,0,1-3.24.71c-2,.16-4.08.41-6.1.74a3.78,3.78,0,0,1-.15-1.57l5.26-1.3a2,2,0,0,0,.74-.29,1.74,1.74,0,0,0,.53-.81,31.58,31.58,0,0,0,.95-4.12c.53-2.24,1.17-4.32,2.81-5.94"></path><path class="cls-2" d="M246.86,71.28a25.28,25.28,0,0,1,.94,10.16,17.85,17.85,0,0,1-7.37-.75A32.78,32.78,0,0,0,243.64,72"></path><path class="cls-2" d="M243.65,83a2.81,2.81,0,0,1,.2.7.62.62,0,0,0,.27.41l.06,0a2.82,2.82,0,0,1,0-.82,1.23,1.23,0,0,0,0-.27.64.64,0,0,0-.23-.35l-.29-.21A1.13,1.13,0,0,0,243.65,83Z"></path><path class="cls-2" d="M243.87,84a1,1,0,0,1-1-.22,3.68,3.68,0,0,1-.59-.45,1.33,1.33,0,0,1-.05-.19c0-.19-.07-.38-.11-.56l0-.07a4.45,4.45,0,0,1,.52-.74l.06,0c.14,0,.29.16.29.16a3.15,3.15,0,0,0,.61.42.92.92,0,0,0,0,.57V83a2,2,0,0,0,0,.22h0a1.16,1.16,0,0,0,.07.31v0c0,.09.07.18.11.27v0l0,0h0A.17.17,0,0,1,243.87,84Z"></path><path class="cls-2" d="M242.73,81.75a2.48,2.48,0,0,1,.47.25c.16.12.62.54.62.54l-.17.43s-.07-.07-.06.07a5.52,5.52,0,0,0,.14.66l-.52,0-.46-.17-.41-.43.37-1.31Z"></path><path class="cls-2" d="M245,73.36l-.27.9c-.52.63-2.12,2-2.76,3a1.6,1.6,0,0,0-.26.5,2.13,2.13,0,0,0,0,.68,11.27,11.27,0,0,0,1,3.38,4.45,4.45,0,0,0-.52.74A8,8,0,0,1,240,78.35a6.09,6.09,0,0,1,1.2-4.1,12.08,12.08,0,0,1,1.3-1.38c.5-.46,1.17-.94,1.79-.68A1.22,1.22,0,0,1,245,73.36Z"></path><path class="cls-2" d="M242.8,82l-.26.36-.24.32c-.06,0-.11-.11-.17-.17a4.45,4.45,0,0,1,.52-.74l0,.06Z"></path><path class="cls-2" d="M243.49,76l-1.79-1.08a2.91,2.91,0,0,1-1.18-1,6.65,6.65,0,0,0,1.18-1.35A4.24,4.24,0,0,1,243,71.27a1.59,1.59,0,0,1,1.68,0,1.62,1.62,0,0,1,.64,1.28A4.07,4.07,0,0,1,245,74a5.86,5.86,0,0,1-1.13,2.29"></path><path class="cls-2" d="M243.33,71.09h.12l-.08,0Z"></path><path class="cls-2" d="M245.44,73.51a4.48,4.48,0,0,1-.54,2.09A5.93,5.93,0,0,1,243.55,77c-.61.49-1.23,1-1.86,1.42a2.13,2.13,0,0,1,0-.68,1.6,1.6,0,0,1,.26-.5,4.72,4.72,0,0,0,2-1.31,4.65,4.65,0,0,0,.75-1.45,4.11,4.11,0,0,0,.3-1.89,1.7,1.7,0,0,0-1.14-1.43,2,2,0,0,0-.43-.05,1.41,1.41,0,0,1,1.58.58A3,3,0,0,1,245.44,73.51Z"></path><path class="cls-2" d="M246,100.48a2.63,2.63,0,0,0,.41-.71.24.24,0,0,1,.09-.13.19.19,0,0,1,.15,0l1.28.15a.27.27,0,0,1,.16,0,.38.38,0,0,1,.13.18,1.42,1.42,0,0,0,.84.67,7.09,7.09,0,0,0,1.11.24.4.4,0,0,1,.25.1c.06.06.05.19,0,.21h-.07a20,20,0,0,1-4.3-.4.44.44,0,0,1,.1-.39"></path><path class="cls-2" d="M230.51,90.68a2.4,2.4,0,0,0,.79.19.22.22,0,0,1,.16,0,.22.22,0,0,1,.06.14l.22,1.27a.49.49,0,0,1,0,.17c0,.07-.09.12-.14.17a1.46,1.46,0,0,0-.4,1,7.08,7.08,0,0,0,.09,1.13.49.49,0,0,1,0,.27.13.13,0,0,1-.21,0s0,0,0-.06a19.85,19.85,0,0,1-.86-4.23.44.44,0,0,1,.4,0"></path><path class="cls-2" d="M232.86,92.42a10.46,10.46,0,0,0-.21-1.09,1.92,1.92,0,0,1,0-1.09s0-.08.08-.08.1.07.16.08.15-.15.25-.19a.16.16,0,0,1,.19.07.37.37,0,0,1,.07.2c.09.5.17,1,.25,1.51a.61.61,0,0,1,0,.3.21.21,0,0,1-.24.14l-.07,0s-.07.06-.09.1a.29.29,0,0,1-.44.07"></path><path class="cls-2" d="M248.85,98.54c-.37,0-.74,0-1.11,0a1.84,1.84,0,0,1-1.06-.26s-.07,0-.07-.09.09-.09.11-.14-.11-.18-.14-.28a.18.18,0,0,1,.11-.18.49.49,0,0,1,.21,0l1.53,0a.57.57,0,0,1,.29.07.2.2,0,0,1,.09.26.15.15,0,0,0,0,.07s0,.07.08.1a.29.29,0,0,1,0,.45"></path><path class="cls-2" d="M246.55,69.06a2.25,2.25,0,0,1-1.35-1.16,4.59,4.59,0,0,0,.4,1.32,1.68,1.68,0,0,0,.85.77Z"></path><path d="M177.07,129.41a12.82,12.82,0,0,1-1.4.9c-2.45-3.48-3.4-7.84-5.17-11.73.69-.4,1.37-.82,2-1.28a1.36,1.36,0,0,1-.09-2.16,2.13,2.13,0,0,1-.54-1.31,7.35,7.35,0,0,1-1,.65c-1.72-6.73-3.16-13.57-5.74-20-1-2.46-2.13-4.86-3.33-7.25a36.28,36.28,0,0,0,5.34-2.73,138.77,138.77,0,0,1-9.82-22.42.61.61,0,0,1,.05-.12c1-2.06,2.38-4,3.09-6.19a9.68,9.68,0,0,0-.19-6.33c-1.75-5-6.48-9.27-5.3-14.92,0,0,0,0,0,0a.29.29,0,0,0,.13,0,.27.27,0,0,0-.05-.38s-.08,0-.14-.07a.16.16,0,0,0,0-.22c.42-2-.25-4.17-.92-6.19,1.28-.2,2.37-.87,2.29-2.47a13.29,13.29,0,0,1,0-1.42c0-.06.09-.1.1-.17a.72.72,0,0,0,0-.41.08.08,0,0,0,0-.14.06.06,0,0,0,0,0l.15-.58-.08,0c0-.18.05-.35.08-.52a5.46,5.46,0,0,0,3-1.28.34.34,0,0,0,0-.47,5.67,5.67,0,0,1-2.06-4.36.42.42,0,0,0,0-.16,12.06,12.06,0,0,0-.63-5.47,6.62,6.62,0,0,0-1-1.58c.67-.1,1.11-.87,1.35-1.55a4.28,4.28,0,0,0,.24-3,2.46,2.46,0,0,0-2.48-1.5c0,.45.08.9.11,1.36A27.14,27.14,0,0,0,152.78,2,8.4,8.4,0,0,0,148.3.25a1.16,1.16,0,0,0-.94.3.68.68,0,0,0,.19,1l-.3-.08.05,0,0-.17A2.43,2.43,0,0,0,145.69.8a18.88,18.88,0,0,0-2.91.19,2.13,2.13,0,0,0-1.1.37,1.31,1.31,0,0,0-.39.61,8.48,8.48,0,0,0-1.52.93,3.49,3.49,0,0,0,1.39.51.2.2,0,0,1,0,.07,7.77,7.77,0,0,0-3.81,1.19c-.49.31-1,.83-.84,1.39l1.62-.32c-1.61,1.36-3.1,3.19-3,5.3a7.83,7.83,0,0,0,.82,2.9,16.29,16.29,0,0,0,2.33,4c1.23,1.43,2.87,2.51,3.87,4.11-.11.72-.94,1.41-1.31,1.93-1.4,1.95-2.66,4-4,6l-.2.12a2.93,2.93,0,0,0-.82,1.48c-3,9.44-4.31,19.26-5.65,29q-2,14.13-3.89,28.27c1,.2,2,.38,3,.55q-2.12,14.34-3.33,28.8l-.35,0c-.34,0-.8,0-.84.38s.36.64.21.93c-.07.12-.22.17-.33.26-.33.26-.28.76-.21,1.17l.71,1,1.81.4a26.2,26.2,0,0,0,0,4.06,22.77,22.77,0,0,1,.18,5.34l-.15.64c-.61-.25-1-.35-1.26.21a4.33,4.33,0,0,0,0,2.55c3.54,0,7.09.09,10.63.38-.57-1.77-3-1.33-4.42-2.28a6.66,6.66,0,0,1-.72,0c-.05-3.28,1-6.44,1.92-9.62.7.13,1.41.28,2.11.4.27,0,.61.06.75-.17a1.8,1.8,0,0,0,.1-.4c.11-.39.55-.58.93-.7a.73.73,0,0,1-.31-1c.13-.2.36-.32.51-.51s.18-.51,0-.62a.57.57,0,0,0-.22,0c-.39,0-.77-.05-1.15-.09,2.08-5.79,5.18-11.37,7.78-17,.79-1.7,1.53-3.43,2.23-5.17.27.35.53.72.8,1.07,2.74,3.47,6,6.5,8.93,9.78,2,2.23,3.65,5.25,5.86,9l-1,.58c.86.25.38,1.77,1.09,2.33.42.33,1.09.17,1.51.5.47-.12.94-.24,1.4-.38a26.8,26.8,0,0,0,4.23,6.6,24.35,24.35,0,0,1,3.2,4c-.23,0-.46.12-.7.16a8.1,8.1,0,0,0,1,2.09,1.18,1.18,0,0,0,.49.45,1.13,1.13,0,0,0,.7-.07,26.61,26.61,0,0,0,10.25-6.22C181,127.73,179.06,128.7,177.07,129.41ZM154.58,33.66a.24.24,0,0,0,0,.08l-.24,0a.17.17,0,0,0-.14.25.39.39,0,0,0,.22.2l.25,0a.16.16,0,0,0,0,.12l0,0c-1.23,5.87,3.7,10.2,5.4,15.37,1.12,3.4.14,6.32-1.51,9.33-.46.83-.94,1.67-1.37,2.52-1.9-5.43-3.6-10.94-5.29-16.43q-2-6.43-4-12.87l-.3-1-.13,0a23.12,23.12,0,0,1,.92-2.54c.06-.12.11-.23.17-.34a12.57,12.57,0,0,0,2.2,2.35c1,.84,2.94,1.48,3.41,2.8.07.2.39.11.32-.09A3.16,3.16,0,0,0,153,31.86a15.17,15.17,0,0,1-3.19-2.44,12.31,12.31,0,0,1-1-1.26c.42-.66.89-1,1.48-1a1.5,1.5,0,0,1,.39.08,7.63,7.63,0,0,0,3,.35C154.3,29.59,155,31.73,154.58,33.66Z"></path><path class="cls-1" d="M136.61,135.79l-.37,0c-3.51-.28-7.09-.41-10.61-.37h-.19l0-.18a4.4,4.4,0,0,1,0-2.72c.33-.69.84-.61,1.3-.45l.09-.36a16.1,16.1,0,0,0-.07-4c-.05-.41-.09-.81-.12-1.22a26.38,26.38,0,0,1,0-3.88l-.54-.12c-.36-.08-.71-.15-1.06-.24l-.1,0-.8-1.18a1.41,1.41,0,0,1,.29-1.42l.14-.09.13-.09s0-.16-.09-.26a1,1,0,0,1-.15-.58c0-.42.5-.65,1.11-.6h.11c.8-9.5,1.9-19,3.27-28.31-.92-.15-1.84-.32-2.75-.5l-.23,0,3.92-28.5c1.32-9.63,2.69-19.59,5.66-29.07a3,3,0,0,1,.91-1.6.94.94,0,0,1,.18-.12c.55-.81,1.09-1.63,1.63-2.45.75-1.15,1.53-2.34,2.35-3.48a5.84,5.84,0,0,1,.43-.51,3.32,3.32,0,0,0,.82-1.23,12.63,12.63,0,0,0-2.16-2.37,19.29,19.29,0,0,1-1.63-1.63A16.55,16.55,0,0,1,135.69,14a8,8,0,0,1-.84-3,6.68,6.68,0,0,1,2.45-4.89l-1,.19-.06-.23c-.16-.57.19-1.17.94-1.66a8,8,0,0,1,2.87-1.11,3.21,3.21,0,0,1-.45-.24l-.3-.19.28-.21a7.7,7.7,0,0,1,1.47-.92,1.54,1.54,0,0,1,.44-.63,2.41,2.41,0,0,1,1.21-.42,19.37,19.37,0,0,1,3-.19,3.51,3.51,0,0,1,1.3.21.74.74,0,0,1,.17-.37A1.42,1.42,0,0,1,148.31,0a8.85,8.85,0,0,1,4.61,1.83c.63.44,1.24.9,1.83,1.37l-.08-1,.24,0a2.74,2.74,0,0,1,2.74,1.66A4.55,4.55,0,0,1,157.41,7a2.87,2.87,0,0,1-1.17,1.6A6.69,6.69,0,0,1,157,10a12.17,12.17,0,0,1,.65,5.52.52.52,0,0,1,0,.21,5.42,5.42,0,0,0,2,4.17.52.52,0,0,1,.18.39.6.6,0,0,1-.17.45,5.4,5.4,0,0,1-3,1.31.78.78,0,0,0,0,.14l.1.05-.18.69a.05.05,0,0,1,0,0,.44.44,0,0,1,0,.2,1.12,1.12,0,0,1,0,.45.68.68,0,0,1-.11.19c0,.51,0,.92,0,1.31a2.47,2.47,0,0,1-2.21,2.68,12.52,12.52,0,0,1,.86,5.94.65.65,0,0,1,0,.13l0,0a.63.63,0,0,1,.19.39.47.47,0,0,1-.13.34l-.07.07c-.72,3.64,1.1,6.79,2.87,9.84a29.86,29.86,0,0,1,2.44,4.86,9.93,9.93,0,0,1,.19,6.49,22.34,22.34,0,0,1-2,4.15c-.38.68-.77,1.37-1.11,2.07v0a136.87,136.87,0,0,0,9.77,22.29l.12.21-.2.12a36.39,36.39,0,0,1-5.14,2.65c1,2.06,2.21,4.49,3.23,7a120.94,120.94,0,0,1,4.72,15.93c.31,1.26.62,2.53.94,3.78a5.4,5.4,0,0,0,.68-.46l.38-.29,0,.48a1.88,1.88,0,0,0,.47,1.15l.19.21-.23.16a1.12,1.12,0,0,0,.08,1.75l.33.2-.31.22c-.58.4-1.19.79-1.85,1.17.59,1.32,1.09,2.7,1.58,4a32.34,32.34,0,0,0,3.35,7.26,13.91,13.91,0,0,0,1.17-.77l.06,0,.83-.31a10,10,0,0,1,5.75-.9l.47.09-.34.33a27.07,27.07,0,0,1-10.35,6.28,1.36,1.36,0,0,1-.86.06,1.39,1.39,0,0,1-.61-.54,8.2,8.2,0,0,1-1.06-2.16l-.08-.27.28,0,.36-.08a18.56,18.56,0,0,0-2.23-2.79q-.39-.42-.78-.87a26.57,26.57,0,0,1-4.17-6.46c-.41.12-.81.22-1.22.32l-.11,0-.1-.08a1.46,1.46,0,0,0-.63-.2,1.72,1.72,0,0,1-.88-.3,2,2,0,0,1-.56-1.33c-.08-.53-.15-.86-.44-1l-.56-.17.5-.29.78-.45-.68-1.17a45.21,45.21,0,0,0-5-7.6c-1.05-1.16-2.15-2.32-3.22-3.43-1.94-2-3.94-4.12-5.71-6.37-.19-.23-.37-.47-.55-.72-.74,1.83-1.4,3.35-2.06,4.78-.81,1.74-1.68,3.51-2.52,5.22a113.43,113.43,0,0,0-5.14,11.43c.26,0,.53,0,.8.06a.74.74,0,0,1,.34.07.51.51,0,0,1,.27.36.79.79,0,0,1-.16.64,1.66,1.66,0,0,1-.27.26,1.17,1.17,0,0,0-.22.23.43.43,0,0,0,0,.37.43.43,0,0,0,.24.28l.62.26L137,123c-.34.12-.7.27-.77.53,0,0,0,.08,0,.12a.81.81,0,0,1-.1.34c-.17.28-.51.38-1,.29s-.91-.16-1.36-.25l-.54-.1-.2.67a30.5,30.5,0,0,0-1.64,8.42h.54l.07.05a5.6,5.6,0,0,0,1.82.64c1.13.26,2.3.54,2.69,1.76Zm-9.85-.92c3,0,6.08.12,9.09.35-.41-.65-1.23-.84-2.17-1.06a6.63,6.63,0,0,1-1.92-.67h-.88v-.24a29.43,29.43,0,0,1,1.67-8.8l.32-1.11,1,.19,1.35.25c.26,0,.44,0,.49-.05a.62.62,0,0,0,0-.16.57.57,0,0,1,0-.18,1.17,1.17,0,0,1,.69-.72.92.92,0,0,1-.14-.28.93.93,0,0,1,.1-.8,1.44,1.44,0,0,1,.32-.33,1.8,1.8,0,0,0,.2-.19c.07-.09.08-.22,0-.24s-.08,0-.12,0c-.41,0-.81-.05-1.17-.09l-.31,0,.11-.3a113.7,113.7,0,0,1,5.27-11.79c.84-1.7,1.71-3.47,2.51-5.2.71-1.53,1.42-3.17,2.23-5.17l.17-.41.48.66c.19.25.38.51.58.76,1.75,2.23,3.75,4.31,5.68,6.33,1.07,1.12,2.18,2.28,3.23,3.44a45.15,45.15,0,0,1,5.08,7.68l.94,1.62-.22.12-.64.37a2.06,2.06,0,0,1,.39,1.1,1.58,1.58,0,0,0,.37,1,1.38,1.38,0,0,0,.64.2,1.91,1.91,0,0,1,.76.23c.44-.11.87-.22,1.29-.35l.21-.06.09.2a26.38,26.38,0,0,0,4.19,6.53l.77.87a17.25,17.25,0,0,1,2.46,3.17l.16.29-.32.07-.26.06-.17.05a7.23,7.23,0,0,0,.9,1.75.9.9,0,0,0,.37.36.88.88,0,0,0,.53-.07,26.55,26.55,0,0,0,9.8-5.81,10.21,10.21,0,0,0-5,1l-.81.29a14.89,14.89,0,0,1-1.38.9l-.2.11-.13-.19a31.81,31.81,0,0,1-3.54-7.56c-.51-1.4-1-2.84-1.66-4.21l-.1-.2.2-.12c.63-.35,1.2-.71,1.74-1.07a1.62,1.62,0,0,1-.42-1,1.53,1.53,0,0,1,.4-1.15,2.18,2.18,0,0,1-.39-.83c-.21.14-.44.29-.68.42l-.28.15-.08-.31c-.35-1.37-.69-2.74-1-4.11a119,119,0,0,0-4.7-15.86c-1.05-2.63-2.27-5.13-3.32-7.24l-.12-.24.24-.1a35.84,35.84,0,0,0,5.11-2.58,137.76,137.76,0,0,1-9.73-22.26l-.15-.42c-2-5.59-3.72-11.36-5.29-16.45l-4.23-13.7-.25,0,.08-.27a24.74,24.74,0,0,1,.93-2.58l.18-.35.19-.34h0c.5-.79,1.05-1.15,1.7-1.09a1.46,1.46,0,0,1,.45.1,7.5,7.5,0,0,0,2.91.33l.32,0c1.43-.22,2.13-1,2.07-2.21a12.19,12.19,0,0,1,0-1.45v-.07l.09-.11a.5.5,0,0,0,0-.29l-.16,0,.12-.3.09-.36-.05,0,.05-.38c0-.12,0-.24.05-.35l0-.18.18,0a5.07,5.07,0,0,0,2.87-1.21.12.12,0,0,0,0-.07,6,6,0,0,1-2.15-4.58l0-.06v-.11a11.93,11.93,0,0,0-.6-5.36,6.72,6.72,0,0,0-1-1.52l-.28-.34.43-.06c.63-.1,1-1,1.16-1.39A4.21,4.21,0,0,0,157.18,4a2.2,2.2,0,0,0-2-1.35l.14,1.7L154.88,4a27.21,27.21,0,0,0-2.24-1.73A8.45,8.45,0,0,0,148.3.5c-.39,0-.62.06-.75.21a.33.33,0,0,0-.06.24.56.56,0,0,0,.2.35l1.27.92-1.49-.48-.28-.08-.88-.25.57-.15a2.8,2.8,0,0,0-1.19-.21,19.63,19.63,0,0,0-2.88.18,2,2,0,0,0-1,.32,1,1,0,0,0-.31.5l0,.1-.09,0a9,9,0,0,0-1.17.68,3.91,3.91,0,0,0,1,.3l.21,0,0,.45-.25.08a7.46,7.46,0,0,0-3.69,1.15c-.17.11-.67.47-.74.88L139,5.31l-.73.62c-2,1.69-3,3.41-3,5.11a7.69,7.69,0,0,0,.8,2.8,16,16,0,0,0,2.29,4c.49.56,1.05,1.08,1.59,1.59a12.93,12.93,0,0,1,2.3,2.54l0,.08v.09a3.38,3.38,0,0,1-1,1.58c-.15.17-.29.33-.39.47-.81,1.13-1.59,2.31-2.34,3.46-.55.84-1.1,1.68-1.67,2.51l-.08.07-.17.11a2.62,2.62,0,0,0-.74,1.36c-3,9.44-4.32,19.37-5.64,29l-3.86,28c.91.18,1.83.35,2.75.5l.24,0,0,.25c-1.4,9.43-2.52,19.12-3.33,28.78l0,.25-.41,0-.19,0c-.27,0-.56,0-.57.16a.59.59,0,0,0,.1.29.77.77,0,0,1,.08.73.81.81,0,0,1-.31.28l-.09.06c-.21.17-.18.56-.12.87l.62.89,1,.21.76.17.2,0v.21a25.66,25.66,0,0,0,0,4c0,.4.07.8.11,1.21a16.31,16.31,0,0,1,.07,4.19l-.23.94-.27-.11c-.67-.27-.78-.23-.94.09a3.83,3.83,0,0,0-.06,2.19ZM147.83,31.16l.35,1.1,4,12.88c1.51,4.91,3.22,10.46,5.09,15.87l.76-1.38.35-.63c1.46-2.66,2.65-5.6,1.49-9.14a28,28,0,0,0-2.51-5.1c-1.81-3.15-3.69-6.4-2.91-10.3h-.06a.65.65,0,0,1-.37-.34.43.43,0,0,1,0-.37s0,0,0-.05c-.3-.81-1.23-1.36-2.13-1.9a9.05,9.05,0,0,1-1.21-.79,12.75,12.75,0,0,1-2-2.07A21.11,21.11,0,0,0,147.83,31.16ZM154.6,34h.05v0Zm-5.52-5.84a10.86,10.86,0,0,0,.9,1.1,15.29,15.29,0,0,0,3.14,2.4,4,4,0,0,1,1.32,1.14,14.13,14.13,0,0,0-1-4.92,8.31,8.31,0,0,1-2.92-.38.92.92,0,0,0-.32-.07C149.81,27.38,149.44,27.62,149.08,28.15Z"></path><path d="M162.93,121.59h0l-.1,0Z"></path><polygon class="cls-1" points="162.87 121.86 162.85 121.79 162.84 121.82 162.76 121.79 162.83 121.69 162.83 121.69 162.75 121.77 162.83 121.69 162.76 121.37 162.88 121.34 163 121.37 163 121.35 163.1 121.42 163.44 121.75 162.87 121.86"></polygon><path d="M201.93,62.32s0,0,0,0l.08-.1,0,0a.91.91,0,0,0-.11.16,3,3,0,0,0-.24.47c-.13.32-.24.65-.34,1-.2.66-.38,1.34-.57,2l.23.06c.17-.67.31-1.35.48-2,.08-.34.18-.67.29-1a4,4,0,0,1,.21-.47l0-.06A0,0,0,0,1,201.93,62.32Z"></path><path d="M203.09,70.51v.17a0,0,0,0,0,0,0s0,0,0,0a1.76,1.76,0,0,0,.82-.08c-.2,0-.4-.08-.6-.14l-.05-.3-.21.13v.18Z"></path><path d="M201.54,64a3.39,3.39,0,0,0-.27,1.29c0,.83,1.36,2.41,1.43,2.56s0,.57,0,.82c.07.59.38,1.31.38,1.84,0,.09.24-.06.24-.06s.09-1.23.17-1.79a2.52,2.52,0,0,0,0-1,4,4,0,0,0-.23-.57,7.92,7.92,0,0,1-.29-1,8.27,8.27,0,0,0-.58-1.6,1.86,1.86,0,0,0-.43-.63Z"></path><path d="M203.9,70.63a2.86,2.86,0,0,1-.77.06,0,0,0,0,0,0,0,2.9,2.9,0,0,0,.78-.06s0-.06,0-.05Z"></path><path d="M203.71,70.67a0,0,0,0,1,0,0v-.1h0a1.27,1.27,0,0,0-.28-.06,1.21,1.21,0,0,1,0,.19Z"></path><path d="M199.89,70a.41.41,0,0,0-.19.2.71.71,0,0,0,0,.14,1.16,1.16,0,0,1-.07.31c-.06-.19-.11-.38-.16-.57a0,0,0,0,1,0,0s0,0,0,0l.32-.23Z"></path><path d="M202.88,64.73a13.81,13.81,0,0,1-.25,2.48,2.61,2.61,0,0,1-.27.83,3.1,3.1,0,0,1-.45.51,22.89,22.89,0,0,1-2.19,1.54l-.17-.16c.62-.43.76-1.12,1.15-1.52a9.82,9.82,0,0,0,.79-.62c.11-.18-.54-1.82,0-3.09l.45-1.05.93.59Z"></path><path d="M199.44,70c.05.2.1.41.16.61,0,0,0,0,.05,0v0s-.05,0-.05,0v0h.05c-.06-.2-.11-.4-.16-.6a0,0,0,1,0-.05,0Z"></path><path d="M199.57,70.45l.07,0a.05.05,0,0,0,0,0,0,0,0,0,0,0,0,1,1,0,0,0,0-.17.4.4,0,0,0-.15,0Z"></path><path d="M202.22,61.81a.29.29,0,0,0,0-.33c-.07-.09-.16-.17-.23-.26a.58.58,0,0,1-.08-.46.89.89,0,0,1,.08-.17.38.38,0,0,1,.09-.15.28.28,0,0,1,.11-.08,1,1,0,0,1,.83-.08.49.49,0,0,1,.18.11.42.42,0,0,1,.06.25,2.54,2.54,0,0,1-.06.67.55.55,0,0,1-.18.37,1.17,1.17,0,0,1-.26.1,1,1,0,0,0-.37.17"></path><path d="M203.34,61.21a.14.14,0,0,1-.05-.15,1.7,1.7,0,0,0,0-.39.6.6,0,0,0-.09-.22l-.08-.08a.38.38,0,0,0-.15,0,.59.59,0,0,0-.45.07"></path><path d="M202.83,64.28a3.78,3.78,0,0,0,.88.54s0,0,0,0a.06.06,0,0,1,0,.06l-.06.2a4.34,4.34,0,0,0-.62-.16.61.61,0,0,1-.39-.15Z"></path><path d="M202.81,62.48a1.33,1.33,0,0,0-.23-.38l-.05-.05a.15.15,0,0,0-.13,0,.29.29,0,0,0-.1.09.58.58,0,0,0-.05.48.29.29,0,0,0,.11.16.17.17,0,0,0,.1,0,.28.28,0,0,0,.18,0,.16.16,0,0,0,.12-.12Z"></path><path d="M202.87,61.76a.37.37,0,0,0-.05.11h0l0,.05-.07.15,0,0v0l0,0h0l-.07.12-.15.18-.11.12-.07,0-.25-.15-.25-.15.17-.15.06,0,.08-.09a.6.6,0,0,0,.08-.08,1.17,1.17,0,0,0,.2-.31.28.28,0,0,0,0-.12v0c0-.09.05-.12.1-.11s.19.15.27.25l0,0h0l.05.08Z"></path><path d="M202.78,62.39a.16.16,0,0,1-.1.18.25.25,0,0,1-.22,0,.83.83,0,0,1-.17-.15l-.17-.18a.26.26,0,0,0-.19-.12l-.12,0a1,1,0,0,0-.31.86c0,.17.09.32.12.49s0,.08,0,.12a0,0,0,0,1,0,0,2.53,2.53,0,0,0,.12.36l0,.06v.07a2.71,2.71,0,0,0,.41.09,2,2,0,0,0,.55,0c.09,0,.22-1,.22-1a1.56,1.56,0,0,0,.1-.22A6,6,0,0,0,202.78,62.39Z"></path><path d="M202.24,67.11c.41,0,.8-.21,1.21-.28l.19,0c0-.25-.14-.5-.19-.75s-.2-1.06-.25-1.24,0-.29-.08-.43l-.22-1.54-1.26.59c-.17.55-.28,1.08-.46,1.63a16,16,0,0,0-.57,1.78A8.93,8.93,0,0,0,202.24,67.11Z"></path><path d="M200.66,65.71a11,11,0,0,0,1.51.34,2.42,2.42,0,0,1-.06.46,1.43,1.43,0,0,1-.08.22.77.77,0,0,1-.76.4.89.89,0,0,1-.69-.54,1,1,0,0,1,.07-.88"></path><path d="M201.83,63.24l-.63,1.2s0,.26,0,.31c0,.22.09.44.13.66,0,0,0,.06,0,.08l0,0-.16.08-.27-.91a1,1,0,0,1-.07-.35,1.23,1.23,0,0,1,.13-.49c.11-.25.29-.75.29-.75Z"></path><path d="M201.88,62.14c-.1,0-.29.12-.38.25a1.62,1.62,0,0,0-.2.42l-.17.44v0s0,0,0,0a6.21,6.21,0,0,0,.61.2h0s0,0,0,0C201.93,63.14,202.12,62.23,201.88,62.14Z"></path><path d="M202.45,61.62a.84.84,0,0,0,.61.35.09.09,0,0,0,.09,0,.09.09,0,0,0,0-.08l.06-.16v0s0,0,0,0a2.07,2.07,0,0,0-.49-.12"></path><path d="M203.65,64.8c.13,0,.23-.12.36-.15s.05.06.09.08l.15.07a.09.09,0,0,1-.08,0,.18.18,0,0,1-.1,0l0,0h0l-.14.08a.29.29,0,0,1-.22,0s0,0,0,0"></path><path d="M203.7,65.23l.61-.28a1.28,1.28,0,0,1-.15-.25s0,0,0,0a0,0,0,0,0,0,0c-.18.07-.36.16-.53.24l0,0a.12.12,0,0,0,0,.08l.13.19"></path><path d="M203.19,60.66a.79.79,0,0,1,.1.37.25.25,0,0,0,0,.12.28.28,0,0,0,.07.09l.11.1s0,.06,0,.06l-.09,0a.16.16,0,0,0-.09,0,.22.22,0,0,0,0,.09.43.43,0,0,1-.06.22s0,0,0,0h0a.44.44,0,0,1-.22-.1"></path><path d="M202.89,61.16l0,0,0-.05a.35.35,0,0,1,.14-.06,1,1,0,0,0,0,.17.41.41,0,0,1-.22,0"></path><path d="M203.06,61s0,.1,0,.13a0,0,0,0,0,0,0,.2.2,0,0,0,0-.11h-.06Z"></path><path d="M203.12,61.17a.53.53,0,0,1-.22,0s0,0,0,0a.46.46,0,0,0,.23,0s0,0,0,0Z"></path><path d="M202.91,61.17a.38.38,0,0,1,.21-.14s0,0,0,0a.37.37,0,0,0-.23.14s0,0,0,0Z"></path><path d="M203.12,61a.44.44,0,0,0,0-.1s0,0,0,0,0,.07,0,.1,0,0,0,0Z"></path><path d="M203.11,61a.35.35,0,0,0-.21.12,0,0,0,1,0,0,0s.12-.11.19-.1,0,0,0,0Z"></path><g class="cls-5"><path d="M203,61.36a.09.09,0,0,0,0-.1s-.05,0-.08,0h0l0,0s-.05,0-.05.07v0s.05.08.08.08A.13.13,0,0,0,203,61.36Z"></path></g><path d="M202.26,61.75c0-.09-.12-.13-.21-.15a.79.79,0,0,1-.26-.08.39.39,0,0,1-.11-.17.6.6,0,0,1,.09-.52c.06-.09.15-.17.14-.27s.08-.12.12-.18a.41.41,0,0,1,.31-.16.88.88,0,0,1,.36.06,1.86,1.86,0,0,1-.07.34,10.32,10.32,0,0,1-.37,1.11"></path><path d="M202.45,61.19a1.8,1.8,0,0,1,.06-.22.13.13,0,0,0-.17,0,.22.22,0,0,0-.1.17c0,.09,0,.21.12.23h.08S202.45,61.22,202.45,61.19Z"></path><path d="M203.26,61.33s-.06,0-.06,0,0,0,0,0l0,.05s0,0,0,0l0,0s0,0,.05,0,0,0,0,0Z"></path><path d="M203.1,61.59a.13.13,0,0,0,.14.09c.11,0,0-.09,0-.09Z"></path><path d="M203.1,61.58l.15,0,0,0v0h-.19Z"></path><path d="M203.28,61.58a.34.34,0,0,1-.2,0h0a.26.26,0,0,0,.21,0s0,0,0,0Z"></path><path d="M203,61.6a.13.13,0,0,0,.06-.07s0,0,0,0,0,0-.05.06a0,0,0,1,0,0,0Z"></path><path d="M203.83,65.23a.2.2,0,0,1-.13-.09.34.34,0,0,1,0-.14,0,0,0,0,1,0,0h0l.1,0a.66.66,0,0,1,.24,0,.25.25,0,0,1,.21.1s0,0,0,0,0,0,0,0a.76.76,0,0,1-.26.18l-.09,0a.14.14,0,0,1-.12-.06"></path><path d="M202,62.08a.76.76,0,0,1,.13.23.84.84,0,0,1,.07.26,2.29,2.29,0,0,1,0,.52c0,.35,0,.7,0,1,0,.7-.13,1.39-.19,2.08l-.24,0c.09-.69.2-1.38.28-2.06,0-.35.08-.69.09-1a4.41,4.41,0,0,0,0-.52,2.21,2.21,0,0,0-.05-.25.68.68,0,0,0-.12-.22Z"></path><path d="M201.14,65.54a1.66,1.66,0,0,1-.25.56,1.4,1.4,0,0,0-.09.17s.08,0,.11-.06L201,66l-.09.28a.15.15,0,0,0,0,.13s0,0,0,0l.13-.26,0,.33a0,0,0,0,0,0,0h0a.08.08,0,0,0,0,0c0-.12.07-.25.1-.37v.35h.05a.07.07,0,0,0,0,0c0-.23.07-.47.09-.7"></path><path d="M201.33,65.47a.46.46,0,0,1,.13.27,1.23,1.23,0,0,1,0,.27.42.42,0,0,0,0,.27s-.09,0-.1-.06a.68.68,0,0,1,0-.14.28.28,0,0,0-.07-.17s0,0,0,0l0-.1,0-.2a.34.34,0,0,1,0-.14"></path><path d="M202.46,60.25A.92.92,0,0,1,203,60a.25.25,0,0,1,.17,0s0,0,0,0l0,0-.09,0a.42.42,0,0,1,.33.08.41.41,0,0,1,.18.28.22.22,0,0,1-.14,0,.44.44,0,0,1,.19.19.1.1,0,0,1,0,.09.14.14,0,0,1-.11,0,.54.54,0,0,1-.24-.09.22.22,0,0,1,.05.11s0,.09-.07.09a.1.1,0,0,1-.07,0l-.13-.12s0,.11,0,.16-.09,0-.13,0a.24.24,0,0,1-.09-.13.57.57,0,0,1,0,.18s0,.07-.05.06a.05.05,0,0,1,0,0,.57.57,0,0,1-.12-.18.34.34,0,0,1,0,.1.09.09,0,0,1-.08.06.11.11,0,0,1-.09-.06.62.62,0,0,1,0-.56"></path><path d="M202.53,60.85l-.08.26a.29.29,0,0,0,0,.16,0,0,0,0,0,0,0l0,0a.93.93,0,0,0,.21-.6"></path><path d="M201.94,60.55s.05,0,.07,0a1,1,0,0,0,.12-.57.48.48,0,0,0-.23-.4.08.08,0,0,0-.09,0c-.06,0,0,.11,0,.17a1.24,1.24,0,0,1,.1.31.64.64,0,0,0-.62-.39,0,0,0,0,0,0,.07c.07.1.21.15.27.26a1.28,1.28,0,0,0-.84-.08l-.1,0a.08.08,0,0,0,0,.1s0,0,.09.05l.33.07a.69.69,0,0,0-.32,0,.29.29,0,0,0-.22.21.05.05,0,0,0,0,0l.05,0a1.26,1.26,0,0,0,.28,0,.43.43,0,0,0-.34.47.08.08,0,0,0,0,0,.09.09,0,0,0,.07,0l.32-.18a.71.71,0,0,0-.21.41.17.17,0,0,0,0,.12s.08,0,.11,0l0-.05.21-.33a.86.86,0,0,0-.15.49c0,.06,0,.13.08.14a.11.11,0,0,0,.09-.06.92.92,0,0,0,.16-.27,1,1,0,0,0-.05.3.18.18,0,0,0,0,.1.08.08,0,0,0,.09,0l0,0a.9.9,0,0,0,.06-.22.33.33,0,0,0,0,.24s.07,0,.1,0,0,0,0,0a.22.22,0,0,0,0-.16.26.26,0,0,0,.23.28h0s0,0,0-.07a.66.66,0,0,1-.12-.33.53.53,0,0,1,.21-.28"></path><path d="M202.69,62.13l0,0h0a1.07,1.07,0,0,1-.49-.14l-.1-.07a.6.6,0,0,0,.08-.08A1.22,1.22,0,0,0,202.69,62.13Z"></path><path d="M202.8,61.91c0,.05-.05.1-.07.16a.46.46,0,0,1-.16-.15.46.46,0,0,1,0-.38.25.25,0,0,0,.05.16A.63.63,0,0,0,202.8,61.91Z"></path></g></g></svg>