<?xml version="1.0"?>
<svg width="192" height="12" viewBox="0 0 192 12" fill="none" xmlns="http://www.w3.org/2000/svg"> <path d="M0 1.37596H5.20729L6.39346 2.56213V4.88702L5.91899 5.37335L6.76117 6.22739V8.39808L5.48011 9.67915H0V1.37596ZM4.37697 4.85144L4.80399 4.42441V3.14335L4.38883 2.72819H1.57761V4.85144H4.37697ZM4.66165 8.32691L5.1717 7.81686V6.65441L4.66165 6.14436H1.57761V8.32691H4.66165Z" fill="white"></path> <path d="M8.00572 1.37596H9.61891V9.67915H8.00572V1.37596Z" fill="white"></path> <path d="M11.2246 1.37596H12.8378V4.85144H14.0951L16.0998 1.37596H17.9146L15.4829 5.51569L18.1162 9.67915H16.2658L14.0833 6.22739H12.8378V9.67915H11.2246V1.37596Z" fill="white"></path> <path d="M18.4153 8.31505V2.74005L19.7794 1.37596H24.0496L25.4137 2.74005V8.31505L24.0496 9.67915H19.7794L18.4153 8.31505ZM23.1956 8.30319L23.8005 7.69824V3.35686L23.1956 2.75191H20.6334L20.0285 3.35686V7.69824L20.6334 8.30319H23.1956Z" fill="white"></path> <path d="M26.8394 1.37596H28.4526V8.31505H32.6042V9.67915H26.8394V1.37596Z" fill="white"></path> <path d="M35.8133 1.37596H37.2842L40.3208 9.67915H38.6839L38.0078 7.84058H35.0898L34.4137 9.67915H32.7767L35.8133 1.37596ZM37.6519 6.51207L36.5488 3.35686H36.525L35.4575 6.51207H37.6519Z" fill="white"></path> <path d="M41.1569 1.37596H46.3641L47.5503 2.56213V4.88702L47.0758 5.37335L47.918 6.22739V8.39808L46.637 9.67915H41.1569V1.37596ZM45.5338 4.85144L45.9608 4.42441V3.14335L45.5457 2.72819H42.7345V4.85144H45.5338ZM45.8185 8.32691L46.3286 7.81686V6.65441L45.8185 6.14436H42.7345V8.32691H45.8185Z" fill="white"></path> <path d="M48.9253 8.39808V7.21191H50.5148V7.91175L50.9062 8.30319H53.3616L53.7649 7.89989V6.52394L53.3735 6.1325H50.2301L48.9491 4.85144V2.65702L50.2301 1.37596H53.9784L55.2595 2.65702V3.85505H53.67V3.14335L53.2786 2.75191H50.93L50.5385 3.14335V4.36511L50.93 4.75654H54.0733L55.3544 6.03761V8.37436L54.0496 9.67915H50.2064L48.9253 8.39808Z" fill="white"></path> <path d="M56.9907 9.67915H56.7298L56.2197 9.1691V8.40995L56.7298 7.89989H57.6194L58.1176 8.42181V9.67915L57.4415 11.2686H56.5163L56.9907 9.67915Z" fill="white"></path> <path d="M62.5983 1.37596H68.6003V2.74005H64.2115V4.83957H68.2563V6.17995H64.2115V8.31505H68.6003V9.67915H62.5983V1.37596Z" fill="white"></path> <path d="M69.7917 1.37596H71.4049V8.31505H75.5565V9.67915H69.7917V1.37596Z" fill="white"></path> <path d="M79.6726 1.37596H85.6747V2.74005H81.2858V4.83957H85.3307V6.17995H81.2858V8.31505H85.6747V9.67915H79.6726V1.37596Z" fill="white"></path> <path d="M86.6882 8.39808V7.21191H88.2776V7.91175L88.6691 8.30319H91.1245L91.5277 7.89989V6.52394L91.1363 6.1325H87.993L86.7119 4.85144V2.65702L87.993 1.37596H91.7413L93.0223 2.65702V3.85505H91.4329V3.14335L91.0414 2.75191H88.6928L88.3014 3.14335V4.36511L88.6928 4.75654H91.8362L93.1172 6.03761V8.37436L91.8124 9.67915H87.9692L86.6882 8.39808Z" fill="white"></path> <path d="M96.0035 2.74005H93.5244V1.37596H100.096V2.74005H97.6167V9.67915H96.0035V2.74005Z" fill="white"></path> <path d="M101.045 8.25574V1.37596H102.658V7.69824L103.263 8.30319H105.588L106.193 7.69824V1.37596H107.806V8.25574L106.382 9.67915H102.468L101.045 8.25574Z" fill="white"></path> <path d="M109.35 1.37596H114.664L116.087 2.79936V8.25574L114.664 9.67915H109.35V1.37596ZM113.869 8.30319L114.474 7.69824V3.35686L113.869 2.75191H110.963V8.30319H113.869Z" fill="white"></path> <path d="M117.576 1.37596H119.189V9.67915H117.576V1.37596Z" fill="white"></path> <path d="M120.676 8.31505V2.74005L122.04 1.37596H126.31L127.675 2.74005V8.31505L126.31 9.67915H122.04L120.676 8.31505ZM125.456 8.30319L126.061 7.69824V3.35686L125.456 2.75191H122.894L122.289 3.35686V7.69824L122.894 8.30319H125.456Z" fill="white"></path> <path d="M132.332 9.54867V1.5183L133.85 0H135.511V1.35223H134.61L133.898 2.06394V9.00303L134.61 9.71473H135.511V11.067H133.85L132.332 9.54867Z" fill="#EB5482"></path> <path d="M139.095 11.067V9.71473H139.996L140.708 9.00303V2.06394L139.996 1.35223H139.095V0H140.755L142.274 1.5183V9.54867L140.755 11.067H139.095Z" fill="#EB5482"></path> <path d="M147.043 1.37596H152.357L153.781 2.79936V8.25574L152.357 9.67915H147.043V1.37596ZM151.563 8.30319L152.168 7.69824V3.35686L151.563 2.75191H148.657V8.30319H151.563Z" fill="white"></path> <path d="M155.21 1.37596H161.212V2.74005H156.823V4.83957H160.868V6.17995H156.823V8.31505H161.212V9.67915H155.21V1.37596Z" fill="white"></path> <path d="M165.635 1.37596H170.842L172.029 2.56213V4.88702L171.554 5.37335L172.396 6.22739V8.39808L171.115 9.67915H165.635V1.37596ZM170.012 4.85144L170.439 4.42441V3.14335L170.024 2.72819H167.213V4.85144H170.012ZM170.297 8.32691L170.807 7.81686V6.65441L170.297 6.14436H167.213V8.32691H170.297Z" fill="white"></path> <path d="M173.641 1.37596H175.254V9.67915H173.641V1.37596Z" fill="white"></path> <path d="M176.86 1.37596H178.473V4.85144H179.73L181.735 1.37596H183.55L181.118 5.51569L183.751 9.67915H181.901L179.718 6.22739H178.473V9.67915H176.86V1.37596Z" fill="white"></path> <path d="M184.05 8.31505V2.74005L185.415 1.37596H189.685L191.049 2.74005V8.31505L189.685 9.67915H185.415L184.05 8.31505ZM188.831 8.30319L189.436 7.69824V3.35686L188.831 2.75191H186.269L185.664 3.35686V7.69824L186.269 8.30319H188.831Z" fill="white"></path> </svg> 