<?xml version="1.0"?>
<svg xmlns="http://www.w3.org/2000/svg" viewBox="0 0 951.51 318.93" width="951.51" height="318.93"><defs><style>.cls-1{fill:#6071d9;}</style></defs><g id="Layer_2" data-name="Layer 2"><g id="Layer_1-2" data-name="Layer 1"><circle class="cls-1" cx="125.64" cy="263.03" r="13.94"></circle><circle class="cls-1" cx="148.95" cy="232.2" r="13.94"></circle><circle class="cls-1" cx="81.43" cy="231.95" r="13.94"></circle><g id="b0qyQJ.tif"><path d="M214.3,245.25c-1.23,4.37-3.28,8.23-7.65,10.1A25.94,25.94,0,0,1,200,256.9c-1.16.16-1.83.34-2.27,1.55a64.84,64.84,0,0,1-23.2,30.93,3,3,0,0,0-1.31,2.8c.07,4.25-.17,8.51.07,12.75.41,6.88-2,11.77-8.84,14H140.19c-.94-.41-1.92-.76-2.83-1.24a10.62,10.62,0,0,1-5.93-9.41c-.1-1.93,0-3.88,0-6H92.79c.76,7.4-.34,14-8.71,16.61H59.8a2.67,2.67,0,0,0-.5-.35C53.52,316.56,51,313.1,51,307c0-4.46-.14-8.93.05-13.39a5.48,5.48,0,0,0-2.5-5.18,64.39,64.39,0,0,1-24.22-37.26c-.26-1.06-.49-2.12-.6-2.59-3.7.17-7.11.81-10.4.4A15,15,0,0,1,2.06,226.6a12.05,12.05,0,0,1,11-6.45c4.36,0,8,1.72,10.19,5.82.14-.59.28-1.11.38-1.64a64.85,64.85,0,0,1,24.77-40.64,101.62,101.62,0,0,1,12.46-7.61,4.1,4.1,0,0,1,5.94,1.55c1.15,2.19.28,4.49-2.27,5.9-.85.47-1.74.88-2.61,1.32C39.52,196.2,26.84,222.77,32,247.3a57,57,0,0,0,24.26,36.48,6.29,6.29,0,0,1,3.15,5.88c-.16,5.85-.07,11.72,0,17.58,0,2.43.86,3.3,3.25,3.31q9.31,0,18.63,0c2.37,0,3.2-.91,3.22-3.36s0-4.88,0-7.32a5.91,5.91,0,0,1,6.13-6.05q21.46-.06,42.92,0c3.67,0,6.1,2.51,6.19,6.21.05,2.37,0,4.75,0,7.12,0,2.55.84,3.39,3.38,3.4q9.1,0,18.21,0c2.68,0,3.51-.83,3.52-3.49,0-5.72.13-11.44,0-17.16a6.55,6.55,0,0,1,3.27-6.24,55.68,55.68,0,0,0,15.64-15.81A59.92,59.92,0,0,0,191,252.39c1-3.22,2.19-3.94,5.54-3.83,1.32.05,2.65.07,4,0a5.47,5.47,0,0,0,5.42-5.31q.13-7.22,0-14.44a5.41,5.41,0,0,0-5.37-5.33c-1.67-.05-3.35,0-5,0a4,4,0,0,1-4.08-2.67c-.4-1-.67-2-1-3a57.27,57.27,0,0,0-26.33-32.07,59.37,59.37,0,0,0-24-7.44c-3-.32-4.46-2.2-4.13-4.72s2.37-3.85,5.27-3.47c3.58.47,7.14,1,10.79,1.55.16-.45.32-.89.47-1.35,3.54-11,11.94-17.52,23.47-18.13,4.88-.25,6.32,1.1,6.33,6,0,9.7,0,19.4.06,29.09a5.37,5.37,0,0,0,1.3,3.26A65.92,65.92,0,0,1,197.54,213a2.76,2.76,0,0,0,2.91,2.2,18.1,18.1,0,0,1,6.22,1.49c4.36,1.91,6.42,5.76,7.63,10.14Zm-40.48-84.19c-6.06.3-12.91,6.68-13.47,12.52a1.73,1.73,0,0,0,.76,1.38c2.09,1.11,4.28,2,6.35,3.15s4,2.42,6.36,3.82ZM16.09,229.73c-1.75-1.21-3.46-1.77-5.38-.46a5.92,5.92,0,0,0-2.3,5.9c.69,3,2.8,4.7,5.68,5.51a8.28,8.28,0,0,0,8-1.86,1.57,1.57,0,0,0,.46-1.08c0-3,0-6,0-8.87C20.31,231.21,18.64,231.5,16.09,229.73Z"></path><path d="M132.83,163a22.16,22.16,0,1,1-22.11-22.09A22.31,22.31,0,0,1,132.83,163Zm-35.93,0a13.77,13.77,0,1,0,13.75-13.67A13.85,13.85,0,0,0,96.9,162.94Z"></path><path d="M79,243.29c-1.85-2.8-3.49-5.37-5.21-7.89-1-1.51-2.65-2.42-4.32-1.75a5.83,5.83,0,0,0-3.07,3c-.38,1.07.19,2.74.84,3.85,1.82,3.13,3.85,6.13,5.88,9.13a2.09,2.09,0,0,1,0,2.76q-3.22,4.75-6.26,9.64a3.94,3.94,0,0,0,.4,5.18,3.74,3.74,0,0,0,4.74.93A6.71,6.71,0,0,0,74.2,266c1.59-2.28,3.06-4.64,4.77-7.25,1.76,2.68,3.35,5.18,5,7.63s4.28,2.91,6.27,1.26c1.77-1.46,2-3.69.57-6-1.93-3.06-3.89-6.11-5.93-9.09a2.19,2.19,0,0,1,0-2.94C87,246.45,89,243.29,91,240.1c1-1.59,1.3-3.5-.09-4.84a5.74,5.74,0,0,0-4-1.58c-1.14.09-2.41,1.3-3.19,2.34C82.09,238.27,80.66,240.73,79,243.29Z"></path><path d="M110.66,202.13h22.16a14.71,14.71,0,0,0,1.88,0,4.15,4.15,0,0,0-.09-8.28,15.46,15.46,0,0,0-1.67,0H88.42a13,13,0,0,0-1.88.07,4.14,4.14,0,0,0,.08,8.25,14.76,14.76,0,0,0,1.88,0Z"></path><path d="M106.62,117.78c0,3.2-.07,6.4,0,9.6a3.24,3.24,0,0,0,2.93,3.32,6.9,6.9,0,0,0,4.1-1.22,4.11,4.11,0,0,0,1.11-3c.1-5.78.12-11.56,0-17.34,0-2.82-1.79-4.56-4.18-4.54s-4,1.78-4.13,4.59,0,5.71,0,8.57Z"></path><path d="M130.27,134.14c.1,3.82,3.51,5.73,6.23,4.14a7.16,7.16,0,0,0,1.47-1.16c3.32-3.29,6.65-6.57,9.92-9.91,2.11-2.14,2.25-4.73.44-6.47s-4.22-1.52-6.32.54c-3.38,3.32-6.76,6.66-10,10.08A13.22,13.22,0,0,0,130.27,134.14Z"></path><path d="M87.15,139.38c1.18-.95,2.59-1.67,3.36-2.82,1.09-1.61.56-3.4-.74-4.78-1.86-2-3.82-3.86-5.75-5.79-1.67-1.67-3.31-3.39-5-5-1.93-1.79-4.35-1.82-6-.19a4.13,4.13,0,0,0,.1,6q5.3,5.51,10.81,10.79A15.63,15.63,0,0,0,87.15,139.38Z"></path><path d="M78.64,179.06a4.28,4.28,0,0,0,4.17-4.32,4.19,4.19,0,0,0-8.37.27A4.16,4.16,0,0,0,78.64,179.06Z"></path><path d="M162.78,211.76a4.15,4.15,0,0,0,4.05,4.19,4.27,4.27,0,0,0,4.23-4.08,4.35,4.35,0,0,0-4.11-4.22A4.22,4.22,0,0,0,162.78,211.76Z"></path></g><circle class="cls-1" cx="110.52" cy="162.65" r="24.96"></circle><circle class="cls-1" cx="459.51" cy="256.05" r="13.94"></circle><circle class="cls-1" cx="403.63" cy="211.43" r="13.94"></circle><g id="b0qyQJ.tif-2" data-name="b0qyQJ.tif"><path d="M558.09,227.83c-1.53,5.4-4.05,10.17-9.46,12.48a31.85,31.85,0,0,1-8.19,1.92c-1.44.2-2.28.42-2.82,1.92a80.19,80.19,0,0,1-28.68,38.25,3.69,3.69,0,0,0-1.62,3.46c.08,5.25-.22,10.52.09,15.76.5,8.5-2.52,14.55-10.93,17.31h-30c-1.16-.5-2.37-.94-3.49-1.53a13.16,13.16,0,0,1-7.34-11.64c-.12-2.39,0-4.8,0-7.37H407.85c.94,9.15-.42,17.3-10.77,20.54h-30a2.81,2.81,0,0,0-.61-.43c-7.15-2.5-10.23-6.78-10.25-14.32,0-5.52-.18-11.05.06-16.56a6.76,6.76,0,0,0-3.09-6.41c-15.49-11.73-25.37-27.2-30-46.06-.32-1.31-.61-2.62-.74-3.21-4.57.21-8.79,1-12.85.5a18.49,18.49,0,0,1-14-27.67c3-5.13,7.57-8,13.6-8,5.39,0,9.84,2.11,12.59,7.19.17-.73.35-1.38.48-2,3.87-20.61,14-37.47,30.63-50.25,4.74-3.65,10.15-6.46,15.39-9.41,3-1.67,6-.68,7.35,1.92s.35,5.55-2.8,7.29c-1.06.59-2.16,1.09-3.23,1.63-27.68,14-43.37,46.9-36.95,77.22,4,19,14,34.1,30,45.1,2.68,1.84,4,3.94,3.88,7.28-.18,7.24-.07,14.49,0,21.73,0,3,1.06,4.09,4,4.1q11.52,0,23,0c2.92,0,3.95-1.13,4-4.15s0-6,0-9.06a7.32,7.32,0,0,1,7.59-7.48q26.52-.06,53.05,0c4.55,0,7.55,3.1,7.66,7.68.07,2.94,0,5.87,0,8.8,0,3.16,1,4.2,4.18,4.21q11.26,0,22.52,0c3.32,0,4.34-1,4.35-4.3,0-7.07.16-14.15-.06-21.22a8.11,8.11,0,0,1,4.05-7.72,68.7,68.7,0,0,0,19.33-19.55,73.5,73.5,0,0,0,8.92-19.13c1.23-4,2.7-4.86,6.85-4.72,1.64,0,3.28.08,4.91,0a6.75,6.75,0,0,0,6.7-6.57q.18-8.91,0-17.85a6.68,6.68,0,0,0-6.64-6.58c-2.07-.07-4.14,0-6.21,0a4.94,4.94,0,0,1-5-3.3c-.5-1.19-.82-2.45-1.24-3.67A70.83,70.83,0,0,0,496,154.33a73.5,73.5,0,0,0-29.64-9.2c-3.7-.39-5.51-2.72-5.11-5.84s2.94-4.75,6.52-4.28c4.42.58,8.82,1.26,13.34,1.92.19-.56.4-1.11.58-1.67,4.38-13.65,14.77-21.67,29-22.42,6-.31,7.82,1.36,7.82,7.37,0,12,0,24,.08,36a6.62,6.62,0,0,0,1.61,4A81.63,81.63,0,0,1,537.37,188c.67,1.88,1.47,2.6,3.6,2.71a22.44,22.44,0,0,1,7.68,1.84c5.4,2.37,7.94,7.12,9.44,12.55ZM508,123.74c-7.48.36-15.95,8.25-16.65,15.47a2.17,2.17,0,0,0,.95,1.71c2.57,1.37,5.28,2.5,7.85,3.89s5,3,7.85,4.73Zm-195,84.9c-2.17-1.5-4.29-2.19-6.66-.57a7.31,7.31,0,0,0-2.84,7.29c.85,3.76,3.46,5.82,7,6.81a10.23,10.23,0,0,0,9.86-2.29,2,2,0,0,0,.56-1.34c.05-3.68,0-7.36,0-11C318.23,210.46,316.17,210.83,313,208.64Z"></path><path d="M457.36,126.11A27.4,27.4,0,1,1,430,98.79,27.6,27.6,0,0,1,457.36,126.11Zm-44.43,0a17,17,0,1,0,17-16.9A17.12,17.12,0,0,0,412.93,126.06Z"></path><path d="M390.79,225.41c-2.29-3.47-4.32-6.65-6.45-9.76-1.27-1.87-3.27-3-5.33-2.16a7.22,7.22,0,0,0-3.8,3.67c-.47,1.32.23,3.39,1,4.76,2.25,3.87,4.77,7.58,7.28,11.29a2.61,2.61,0,0,1,0,3.42q-4,5.87-7.74,11.91a4.88,4.88,0,0,0,.5,6.4,4.61,4.61,0,0,0,5.86,1.15,8.16,8.16,0,0,0,2.7-2.66c2-2.82,3.79-5.73,5.9-9,2.17,3.31,4.15,6.41,6.21,9.43s5.3,3.6,7.76,1.57c2.2-1.81,2.52-4.57.71-7.45-2.38-3.79-4.81-7.55-7.34-11.24a2.73,2.73,0,0,1,0-3.64c2.64-3.82,5.15-7.74,7.62-11.68,1.23-2,1.61-4.33-.1-6a7.15,7.15,0,0,0-4.91-1.94c-1.4.11-3,1.6-3.94,2.89C394.62,219.2,392.85,222.25,390.79,225.41Z"></path><path d="M429.94,174.52h27.4a19.87,19.87,0,0,0,2.32,0,5.13,5.13,0,0,0-.1-10.25,20.37,20.37,0,0,0-2.07,0H402.44a16.26,16.26,0,0,0-2.32.08,5.12,5.12,0,0,0,.1,10.2,18.09,18.09,0,0,0,2.33.06Z"></path><path d="M425,70.22c0,4-.09,7.92,0,11.87a4,4,0,0,0,3.61,4.1,8.53,8.53,0,0,0,5.08-1.5c.9-.62,1.35-2.41,1.37-3.69q.19-10.73,0-21.44c-.05-3.49-2.21-5.64-5.16-5.62s-5,2.21-5.1,5.69,0,7.06,0,10.59Z"></path><path d="M454.2,90.45c.11,4.72,4.33,7.08,7.69,5.12a9.38,9.38,0,0,0,1.82-1.44c4.11-4.06,8.22-8.13,12.27-12.25,2.61-2.65,2.78-5.85.54-8s-5.22-1.88-7.81.67c-4.19,4.11-8.37,8.23-12.42,12.46A15.28,15.28,0,0,0,454.2,90.45Z"></path><path d="M400.87,96.93c1.46-1.18,3.2-2.07,4.16-3.49,1.35-2,.69-4.2-.91-5.91-2.31-2.45-4.73-4.78-7.11-7.16-2.08-2.07-4.1-4.2-6.25-6.19-2.39-2.21-5.38-2.24-7.42-.22a5.12,5.12,0,0,0,.12,7.42q6.56,6.8,13.37,13.33C397.76,95.61,399.17,96,400.87,96.93Z"></path><path d="M390.35,146a5.3,5.3,0,0,0,5.16-5.35,5.18,5.18,0,0,0-10.35.34A5.14,5.14,0,0,0,390.35,146Z"></path><path d="M494.39,186.42a5.13,5.13,0,0,0,5,5.18,5.27,5.27,0,0,0,5.22-5,5.38,5.38,0,0,0-5.08-5.22A5.21,5.21,0,0,0,494.39,186.42Z"></path></g><circle class="cls-1" cx="430.09" cy="125.87" r="28.43"></circle><circle class="cls-1" cx="467.5" cy="209.62" r="13.94"></circle><circle class="cls-1" cx="500.55" cy="245.25" r="13.94"></circle><circle class="cls-1" cx="427.17" cy="238.38" r="13.94"></circle><circle class="cls-1" cx="358.13" cy="198.36" r="13.94"></circle><circle class="cls-1" cx="877.57" cy="205.28" r="13.94"></circle><circle class="cls-1" cx="866.29" cy="169.68" r="13.94"></circle><circle class="cls-1" cx="833.64" cy="236.59" r="13.94"></circle><circle class="cls-1" cx="840.13" cy="206.44" r="13.94"></circle><circle class="cls-1" cx="786.6" cy="200.07" r="14"></circle><circle class="cls-1" cx="785.19" cy="273.46" r="14"></circle><circle class="cls-1" cx="756.51" cy="228.5" r="13.94"></circle><circle class="cls-1" cx="722.35" cy="158.82" r="13.94"></circle><circle class="cls-1" cx="746.8" cy="217.6" r="13.94"></circle><circle class="cls-1" cx="748.21" cy="188.6" r="13.94"></circle><circle class="cls-1" cx="786.34" cy="226.72" r="14"></circle><circle class="cls-1" cx="828.75" cy="174.72" r="14"></circle><circle class="cls-1" cx="827.56" cy="222.99" r="13.94"></circle><g id="b0qyQJ.tif-3" data-name="b0qyQJ.tif"><path d="M951.51,209.29c-1.83,6.49-4.88,12.23-11.38,15a38.69,38.69,0,0,1-9.87,2.31c-1.72.24-2.73.5-3.39,2.31a96.47,96.47,0,0,1-34.51,46,4.43,4.43,0,0,0-2,4.17c.1,6.32-.26,12.66.1,19,.6,10.24-3,17.51-13.15,20.84H841.22c-1.4-.61-2.85-1.13-4.2-1.85a15.79,15.79,0,0,1-8.83-14c-.15-2.88,0-5.77,0-8.87H770.69c1.13,11-.51,20.81-13,24.72H721.59a4,4,0,0,0-.74-.52c-8.61-3-12.32-8.16-12.34-17.23,0-6.64-.21-13.3.08-19.93.15-3.47-.93-5.59-3.73-7.71-18.64-14.13-30.53-32.74-36-55.45-.39-1.57-.73-3.15-.9-3.86-5.5.26-10.58,1.21-15.46.6a22.25,22.25,0,0,1-16.8-33.3c3.61-6.17,9.1-9.67,16.37-9.59,6.48.06,11.84,2.54,15.15,8.65.21-.88.43-1.65.57-2.44,4.67-24.81,16.9-45.1,36.87-60.48,5.7-4.39,12.22-7.78,18.53-11.32,3.6-2,7.2-.82,8.85,2.3s.41,6.68-3.38,8.78c-1.27.7-2.59,1.31-3.89,2-33.31,16.89-52.19,56.43-44.47,92.93,4.84,22.91,16.81,41,36.1,54.28,3.22,2.22,4.78,4.75,4.67,8.76-.22,8.71-.09,17.44,0,26.16,0,3.62,1.28,4.91,4.84,4.93q13.86.06,27.73,0c3.51,0,4.75-1.35,4.79-5s-.06-7.27,0-10.9c.15-5.29,3.8-9,9.13-9q31.92-.09,63.86,0c5.46,0,9.08,3.73,9.21,9.25.08,3.52,0,7.06,0,10.59,0,3.8,1.25,5.05,5,5.06q13.54,0,27.1,0c4,0,5.22-1.23,5.24-5.19,0-8.51.19-17-.07-25.53-.13-4.24,1.39-7,4.86-9.3A82.53,82.53,0,0,0,906,242.92a88.52,88.52,0,0,0,10.74-23c1.48-4.78,3.25-5.85,8.24-5.69,2,.07,4,.1,5.92,0a8.13,8.13,0,0,0,8-7.9q.21-10.74,0-21.49a8,8,0,0,0-8-7.93c-2.49-.08-5,0-7.47,0a6,6,0,0,1-6.07-4c-.59-1.43-1-2.94-1.49-4.41a85.19,85.19,0,0,0-39.18-47.73c-11-6.4-23-9.75-35.67-11.08-4.46-.47-6.64-3.27-6.15-7s3.54-5.72,7.85-5.16c5.32.69,10.61,1.52,16,2.31.24-.67.49-1.34.7-2,5.28-16.42,17.78-26.08,34.93-27,7.25-.38,9.41,1.64,9.41,8.87,0,14.43-.06,28.86.09,43.29a8,8,0,0,0,2,4.85,98.22,98.22,0,0,1,20.62,33.4c.81,2.26,1.77,3.12,4.33,3.26a27.13,27.13,0,0,1,9.25,2.22c6.5,2.85,9.56,8.57,11.36,15.09ZM891.26,84c-9,.44-19.2,9.93-20,18.62a2.63,2.63,0,0,0,1.14,2.07c3.1,1.65,6.36,3,9.45,4.68s6,3.6,9.45,5.68ZM656.55,186.19c-2.61-1.81-5.16-2.64-8-.69a8.82,8.82,0,0,0-3.42,8.78c1,4.52,4.18,7,8.45,8.2a12.32,12.32,0,0,0,11.87-2.77,2.3,2.3,0,0,0,.68-1.61c.06-4.43,0-8.86,0-13.19C662.83,188.38,660.34,188.82,656.55,186.19Z"></path><path d="M830.28,86.86A33,33,0,1,1,797.37,54,33.22,33.22,0,0,1,830.28,86.86Zm-53.48-.07a20.49,20.49,0,1,0,20.46-20.33A20.61,20.61,0,0,0,776.8,86.79Z"></path><path d="M750.15,206.37c-2.75-4.18-5.2-8-7.75-11.75-1.54-2.25-3.94-3.6-6.43-2.6a8.68,8.68,0,0,0-4.57,4.43c-.56,1.58.28,4.07,1.25,5.73,2.7,4.65,5.73,9.12,8.76,13.57a3.14,3.14,0,0,1,0,4.12c-3.21,4.71-6.29,9.5-9.31,14.34-1.65,2.63-1.62,5.31.59,7.7a5.56,5.56,0,0,0,7,1.39,10,10,0,0,0,3.26-3.2c2.36-3.39,4.56-6.9,7.1-10.79,2.62,4,5,7.71,7.48,11.36s6.37,4.32,9.34,1.88c2.64-2.17,3-5.5.85-9C764.92,229,762,224.5,759,220.05c-1.09-1.59-1.18-2.73,0-4.37,3.18-4.61,6.2-9.32,9.16-14.06,1.49-2.37,1.94-5.22-.12-7.21a8.6,8.6,0,0,0-5.9-2.34c-1.69.14-3.58,1.93-4.74,3.48C754.77,198.9,752.63,202.56,750.15,206.37Z"></path><path d="M797.28,145.12h33a23.69,23.69,0,0,0,2.8-.07,6.14,6.14,0,0,0,5.73-6.23c0-3.26-2.34-5.7-5.86-6.1a20.54,20.54,0,0,0-2.48-.06H764.18a20.06,20.06,0,0,0-2.8.1,6.16,6.16,0,0,0,.13,12.28,21.62,21.62,0,0,0,2.79.08Z"></path><path d="M791.27,19.59c0,4.76-.11,9.53,0,14.29a4.81,4.81,0,0,0,4.35,4.93A10.17,10.17,0,0,0,801.78,37c1.08-.74,1.62-2.9,1.65-4.44q.23-12.9,0-25.8C803.4,2.56,800.8,0,797.25,0s-6,2.66-6.14,6.84,0,8.5,0,12.75Z"></path><path d="M826.47,43.93c.14,5.69,5.22,8.53,9.26,6.17a11.13,11.13,0,0,0,2.19-1.73c4.94-4.89,9.89-9.78,14.77-14.74,3.14-3.2,3.34-7,.64-9.63s-6.27-2.26-9.4.8c-5,4.94-10.06,9.9-14.94,15A19.27,19.27,0,0,0,826.47,43.93Z"></path><path d="M762.29,51.74c1.76-1.42,3.85-2.5,5-4.21,1.61-2.39.83-5.05-1.11-7.1-2.77-3-5.69-5.76-8.55-8.62-2.5-2.49-4.93-5-7.52-7.45-2.88-2.66-6.48-2.69-8.93-.27a6.16,6.16,0,0,0,.14,8.93q7.89,8.17,16.09,16C758.55,50.15,760.24,50.64,762.29,51.74Z"></path><path d="M749.63,110.79a6.4,6.4,0,0,0,6.21-6.44,6.23,6.23,0,0,0-12.46.41A6.2,6.2,0,0,0,749.63,110.79Z"></path><path d="M874.84,159.44a6.18,6.18,0,0,0,6,6.24,6.36,6.36,0,0,0,6.29-6.07,6.49,6.49,0,0,0-6.12-6.28A6.27,6.27,0,0,0,874.84,159.44Z"></path></g><circle class="cls-1" cx="797.33" cy="86.64" r="33.59"></circle><circle class="cls-1" cx="704.03" cy="196.58" r="13.94"></circle><circle class="cls-1" cx="853.19" cy="268.17" r="13.94"></circle></g></g></svg>