<?xml version="1.0"?>
<svg width="72" height="86" viewBox="0 0 72 86" fill="none" xmlns="http://www.w3.org/2000/svg"> <mask id="path-1-outside-1_1767_1973" maskUnits="userSpaceOnUse" x="0" y="0" width="72" height="86" fill="black"> <rect fill="white" width="72" height="86"></rect> <path fill-rule="evenodd" clip-rule="evenodd" d="M22.1472 49.7059L18.1835 43.6497C15.477 39.5145 9.71216 38.0058 5.30255 40.2728L6.33002 39.7446C5.23569 40.3072 4.71094 41.7097 5.16151 42.8755L10.6481 57.0708C11.5179 59.3211 13.7394 62.5038 15.5801 64.1026C15.5801 64.1026 26.6177 73.2384 26.6177 76.6637V81H44.5001L48.9707 72.0588L53.4413 81H57.9119V76.6637C57.9119 73.2384 64.6573 62.4501 64.6573 62.4501C65.899 60.353 66.9339 56.6587 66.9339 54.2059V36.1681C66.853 32.1745 63.4584 28.9379 59.2696 28.9379C57.1741 28.9379 55.4768 30.5562 55.4768 32.5541V33.9988C55.4768 30.0052 52.0821 26.7687 47.8934 26.7687C45.7979 26.7687 44.1006 28.3869 44.1006 30.3848V31.8296C44.1006 27.836 40.7059 24.5994 36.5172 24.5994C34.4217 24.5994 32.7243 26.2177 32.7243 28.2156V29.6603C32.7243 29.0185 32.6557 28.5083 32.5232 28.104L31.3663 9.47602C31.2099 6.95705 29.0868 5 26.6177 5C24.1315 5 22.1472 7.00117 22.1472 9.46973V27.3529V49.7059ZM53.5227 45.2353L57.9933 45.2353V63.1176H53.5227V45.2353V45.2353ZM44.5815 45.2353L49.0521 45.2353V63.1176H44.5815V45.2353V45.2353ZM35.6403 45.2353L40.1109 45.2353V63.1176H35.6403V45.2353V45.2353Z"></path> </mask> <path fill-rule="evenodd" clip-rule="evenodd" d="M22.1472 49.7059L18.1835 43.6497C15.477 39.5145 9.71216 38.0058 5.30255 40.2728L6.33002 39.7446C5.23569 40.3072 4.71094 41.7097 5.16151 42.8755L10.6481 57.0708C11.5179 59.3211 13.7394 62.5038 15.5801 64.1026C15.5801 64.1026 26.6177 73.2384 26.6177 76.6637V81H44.5001L48.9707 72.0588L53.4413 81H57.9119V76.6637C57.9119 73.2384 64.6573 62.4501 64.6573 62.4501C65.899 60.353 66.9339 56.6587 66.9339 54.2059V36.1681C66.853 32.1745 63.4584 28.9379 59.2696 28.9379C57.1741 28.9379 55.4768 30.5562 55.4768 32.5541V33.9988C55.4768 30.0052 52.0821 26.7687 47.8934 26.7687C45.7979 26.7687 44.1006 28.3869 44.1006 30.3848V31.8296C44.1006 27.836 40.7059 24.5994 36.5172 24.5994C34.4217 24.5994 32.7243 26.2177 32.7243 28.2156V29.6603C32.7243 29.0185 32.6557 28.5083 32.5232 28.104L31.3663 9.47602C31.2099 6.95705 29.0868 5 26.6177 5C24.1315 5 22.1472 7.00117 22.1472 9.46973V27.3529V49.7059ZM53.5227 45.2353L57.9933 45.2353V63.1176H53.5227V45.2353V45.2353ZM44.5815 45.2353L49.0521 45.2353V63.1176H44.5815V45.2353V45.2353ZM35.6403 45.2353L40.1109 45.2353V63.1176H35.6403V45.2353V45.2353Z" fill="white"></path> <path d="M22.1472 49.7059L18.4065 52.1541L26.6177 64.7002V49.7059H22.1472ZM18.1835 43.6497L21.9241 41.2015L21.9241 41.2015L18.1835 43.6497ZM5.16151 42.8755L0.991563 44.4872L0.991563 44.4872L5.16151 42.8755ZM10.6481 57.0708L14.8181 55.4591L14.8181 55.4591L10.6481 57.0708ZM15.5801 64.1026L12.6486 67.4778L12.6887 67.5127L12.7296 67.5465L15.5801 64.1026ZM26.6177 81H22.1472V85.4706H26.6177V81ZM44.5001 81V85.4706H47.2631L48.4987 82.9993L44.5001 81ZM48.9707 72.0588L52.9693 70.0595L48.9707 62.0623L44.9721 70.0595L48.9707 72.0588ZM53.4413 81L49.4427 82.9993L50.6783 85.4706H53.4413V81ZM57.9119 81V85.4706H62.3825V81H57.9119ZM64.6573 62.4501L68.4479 64.8202L68.4766 64.7743L68.5041 64.7278L64.6573 62.4501ZM66.9339 36.1681H71.4045V36.1228L71.4036 36.0775L66.9339 36.1681ZM32.5232 28.104L28.0612 28.3811L28.0967 28.9525L28.275 29.4965L32.5232 28.104ZM31.3663 9.47602L26.9043 9.75313L31.3663 9.47602ZM22.1472 9.46973H17.6766H22.1472ZM57.9933 45.2353H62.4639V40.7647L57.9933 40.7647L57.9933 45.2353ZM57.9933 63.1176V67.5882H62.4639V63.1176H57.9933ZM53.5227 63.1176H49.0521V67.5882H53.5227V63.1176ZM49.0521 45.2353H53.5227V40.7647L49.0521 40.7647L49.0521 45.2353ZM49.0521 63.1176V67.5882H53.5227V63.1176H49.0521ZM44.5815 63.1176H40.1109V67.5882H44.5815V63.1176ZM40.1109 45.2353H44.5815V40.7647L40.1109 40.7647L40.1109 45.2353ZM40.1109 63.1176V67.5882H44.5815V63.1176H40.1109ZM35.6403 63.1176H31.1697V67.5882H35.6403V63.1176ZM25.8878 47.2577L21.9241 41.2015L14.4428 46.0979L18.4065 52.1541L25.8878 47.2577ZM21.9241 41.2015C17.9561 35.1386 9.68929 32.9908 3.25852 36.2968L7.34657 44.2487C9.73503 43.0208 12.998 43.8904 14.4428 46.0979L21.9241 41.2015ZM7.34657 44.2487L8.37404 43.7205L4.286 35.7686L3.25852 36.2968L7.34657 44.2487ZM4.28599 35.7686C1.11535 37.3986 -0.265412 41.2351 0.991563 44.4872L9.33147 41.2637C9.53522 41.7909 9.4908 42.2829 9.35443 42.648C9.21847 43.0121 8.91836 43.4407 8.37405 43.7205L4.28599 35.7686ZM0.991563 44.4872L6.47819 58.6825L14.8181 55.4591L9.33147 41.2637L0.991563 44.4872ZM6.47819 58.6825C7.60796 61.6055 10.2515 65.3958 12.6486 67.4778L18.5117 60.7273C17.2273 59.6118 15.4279 57.0368 14.8181 55.4591L6.47819 58.6825ZM15.5801 64.1026C12.7296 67.5465 12.7293 67.5463 12.7291 67.5461C12.7291 67.5461 12.7289 67.5459 12.7289 67.5459C12.7288 67.5458 12.7289 67.5459 12.7291 67.5461C12.7296 67.5465 12.7308 67.5475 12.7326 67.549C12.7362 67.552 12.7424 67.5571 12.7511 67.5644C12.7685 67.5788 12.7959 67.6017 12.8326 67.6325C12.9061 67.694 13.0167 67.7872 13.1593 67.9084C13.4447 68.1509 13.8566 68.5046 14.3525 68.9407C15.3489 69.8169 16.6633 71.0074 17.9652 72.287C19.2869 73.5861 20.5025 74.8862 21.3566 75.9907C21.7858 76.5458 22.0465 76.9531 22.1812 77.2108C22.3624 77.5577 22.1472 77.3077 22.1472 76.6637H31.0883C31.0883 75.1633 30.5282 73.8785 30.1058 73.0702C29.6368 72.1727 29.0352 71.3043 28.4297 70.5212C27.2142 68.9494 25.6704 67.3233 24.2327 65.9103C22.7752 64.4778 21.3302 63.1702 20.2571 62.2265C19.7182 61.7526 19.2678 61.3658 18.9495 61.0953C18.7903 60.96 18.6638 60.8535 18.5756 60.7796C18.5315 60.7426 18.4969 60.7137 18.4725 60.6934C18.4603 60.6833 18.4507 60.6753 18.4437 60.6695C18.4402 60.6666 18.4374 60.6642 18.4352 60.6624C18.4341 60.6615 18.4332 60.6607 18.4324 60.6601C18.4321 60.6598 18.4316 60.6594 18.4314 60.6593C18.431 60.659 18.4307 60.6587 15.5801 64.1026ZM22.1472 76.6637V81H31.0883V76.6637H22.1472ZM26.6177 85.4706H44.5001V76.5294H26.6177V85.4706ZM48.4987 82.9993L52.9693 74.0581L44.9721 70.0595L40.5015 79.0007L48.4987 82.9993ZM44.9721 74.0581L49.4427 82.9993L57.4399 79.0007L52.9693 70.0595L44.9721 74.0581ZM53.4413 85.4706H57.9119V76.5294H53.4413V85.4706ZM62.3825 81V76.6637H53.4413V81H62.3825ZM62.3825 76.6637C62.3825 76.8237 62.4313 76.2786 63.0824 74.7413C63.6366 73.4328 64.406 71.9019 65.2189 70.3954C66.0243 68.9029 66.8349 67.503 67.4472 66.4719C67.7524 65.9581 68.0058 65.5398 68.1816 65.2523C68.2695 65.1086 68.3378 64.9978 68.3833 64.9242C68.406 64.8875 68.4231 64.8601 68.434 64.8425C68.4394 64.8338 68.4433 64.8275 68.4457 64.8237C68.4469 64.8218 68.4476 64.8206 68.448 64.82C68.4482 64.8197 68.4483 64.8196 68.4483 64.8196C68.4482 64.8196 68.4482 64.8198 68.4482 64.8198C68.448 64.8199 68.4479 64.8202 64.6573 62.4501C60.8666 60.08 60.8665 60.0803 60.8662 60.0806C60.8661 60.0808 60.8659 60.0812 60.8657 60.0815C60.8652 60.0822 60.8647 60.0831 60.8641 60.0841C60.8628 60.0861 60.8612 60.0888 60.8591 60.0921C60.8549 60.0988 60.8492 60.108 60.8419 60.1197C60.8273 60.1432 60.8064 60.1768 60.7797 60.2199C60.7264 60.3061 60.6498 60.4304 60.5532 60.5884C60.3601 60.9042 60.0866 61.3556 59.7594 61.9066C59.1069 63.0054 58.2312 64.5167 57.3502 66.1495C56.4768 67.7681 55.5598 69.5766 54.8493 71.2542C54.2356 72.7031 53.4413 74.791 53.4413 76.6637H62.3825ZM68.5041 64.7278C69.3883 63.2345 70.0888 61.3881 70.5692 59.6564C71.0488 57.9273 71.4045 55.9685 71.4045 54.2059H62.4633C62.4633 54.8961 62.3016 56.0109 61.9533 57.2664C61.6058 58.5193 61.1679 59.5686 60.8105 60.1723L68.5041 64.7278ZM71.4045 54.2059V36.1681H62.4633V54.2059H71.4045ZM71.4036 36.0775C71.2705 29.5069 65.7458 24.4674 59.2696 24.4674V33.4085C61.171 33.4085 62.4356 34.842 62.4642 36.2586L71.4036 36.0775ZM59.2696 24.4674C54.9085 24.4674 51.0062 27.8886 51.0062 32.5541H59.9474C59.9474 32.8594 59.8101 33.1011 59.6723 33.2325C59.5383 33.3602 59.386 33.4085 59.2696 33.4085V24.4674ZM51.0062 32.5541V33.9988H59.9474V32.5541H51.0062ZM59.9474 33.9988C59.9474 27.3376 54.3478 22.2981 47.8934 22.2981V31.2393C49.8165 31.2393 51.0062 32.6728 51.0062 33.9988H59.9474ZM47.8934 22.2981C43.5323 22.2981 39.63 25.7193 39.63 30.3848H48.5712C48.5712 30.6902 48.4339 30.9318 48.2961 31.0632C48.1621 31.191 48.0098 31.2393 47.8934 31.2393V22.2981ZM39.63 30.3848V31.8296H48.5712V30.3848H39.63ZM48.5712 31.8296C48.5712 25.1683 42.9716 20.1288 36.5172 20.1288V29.07C38.4402 29.07 39.63 30.5036 39.63 31.8296H48.5712ZM36.5172 20.1288C32.156 20.1288 28.2537 23.5501 28.2537 28.2156H37.1949C37.1949 28.5209 37.0576 28.7626 36.9199 28.894C36.7859 29.0217 36.6336 29.07 36.5172 29.07V20.1288ZM28.2537 28.2156V29.6603H37.1949V28.2156H28.2537ZM37.1949 29.6603C37.1949 28.7335 37.1002 27.7145 36.7714 26.7114L28.275 29.4965C28.2399 29.3894 28.2363 29.3395 28.2405 29.3717C28.2447 29.4038 28.2537 29.4948 28.2537 29.6603H37.1949ZM36.9852 27.8268L35.8283 9.1989L26.9043 9.75313L28.0612 28.3811L36.9852 27.8268ZM35.8283 9.1989C35.5245 4.30722 31.4323 0.529412 26.6177 0.529412V9.47059C26.6571 9.47059 26.7282 9.48606 26.8039 9.55702C26.8758 9.62428 26.9006 9.69303 26.9043 9.75313L35.8283 9.1989ZM26.6177 0.529412C21.6521 0.529412 17.6766 4.54255 17.6766 9.46973L26.6177 9.46973V9.47059V0.529412ZM17.6766 9.46973V27.3529H26.6177V9.46973H17.6766ZM17.6766 27.3529V49.7059H26.6177V27.3529H17.6766ZM53.5227 49.7059L57.9933 49.7059L57.9933 40.7647L53.5227 40.7647L53.5227 49.7059ZM53.5227 45.2353V63.1176H62.4639V45.2353H53.5227ZM57.9933 58.6471H53.5227V67.5882H57.9933V58.6471ZM57.9933 63.1176V45.2353H49.0521V63.1176H57.9933ZM44.5815 49.7059L49.0521 49.7059L49.0521 40.7647L44.5815 40.7647L44.5815 49.7059ZM44.5815 45.2353V63.1176H53.5227V45.2353H44.5815ZM49.0521 58.6471H44.5815V67.5882H49.0521V58.6471ZM49.0521 63.1176V45.2353H40.1109V63.1176H49.0521ZM35.6403 49.7059L40.1109 49.7059L40.1109 40.7647L35.6403 40.7647L35.6403 49.7059ZM35.6403 45.2353V63.1176H44.5815V45.2353H35.6403ZM40.1109 58.6471H35.6403V67.5882H40.1109V58.6471ZM40.1109 63.1176V45.2353H31.1697V63.1176H40.1109Z" fill="black" fill-opacity="0.8" mask="url(#path-1-outside-1_1767_1973)"></path> </svg> 