<?xml version="1.0"?>
<svg width="109" height="77" viewBox="0 0 109 77" fill="none" xmlns="http://www.w3.org/2000/svg"> <path d="M50.8472 47.6236L50.8485 47.621C53.1536 42.943 54.3 37.6322 54.3 31.7C54.3 25.7685 53.1539 20.4904 50.8479 15.8778C48.5461 11.207 45.3904 7.53731 41.3782 4.88453C37.3582 2.15978 32.7935 0.799988 27.7 0.799988C22.671 0.799988 18.1076 2.16085 14.0234 4.88341C10.0105 7.53626 6.85421 11.2063 4.5521 15.8777C2.24608 20.4903 1.09998 25.7685 1.09998 31.7C1.09998 37.6322 2.24635 42.943 4.55146 47.621L4.55276 47.6236C6.8556 52.2293 10.0123 55.8651 14.0243 58.5171L14.0275 58.5192C18.1115 61.1738 22.6734 62.5 27.7 62.5C32.7918 62.5 37.3555 61.1745 41.3757 58.5171C45.3876 55.8651 48.5443 52.2293 50.8472 47.6236ZM32.4636 18.37L32.4636 18.37L32.4719 18.3773C33.9294 19.6447 35.0872 21.4017 35.9313 23.6741C36.7727 25.9394 37.2 28.6113 37.2 31.7C37.2 34.7886 36.7727 37.4606 35.9313 39.7259C35.0873 41.998 33.9296 43.7549 32.4723 45.0223C31.0964 46.2103 29.5126 46.8 27.7 46.8C25.8176 46.8 24.1653 46.208 22.7233 45.0185C21.2693 43.7525 20.1138 41.9988 19.2709 39.7319C18.4942 37.4639 18.1 34.7897 18.1 31.7C18.1 28.6103 18.4942 25.936 19.2709 23.6681C20.1147 21.3986 21.2719 19.6436 22.7281 18.3773C24.172 17.1217 25.8227 16.5 27.7 16.5C29.5055 16.5 31.0864 17.118 32.4636 18.37ZM77.5173 29.482L79.2499 19H102.526H103.026V18.5V3.89998V3.39998H102.526H67.2258H66.8127L66.7347 3.80564L58.4347 47.0056L58.3205 47.6H58.9258H72.8258H73.1111L73.2562 47.3544C74.0739 45.9705 75.2031 44.9027 76.6532 44.1453C78.1822 43.3815 79.8043 43 81.5258 43C83.3193 43 84.8644 43.3837 86.1777 44.1341L86.1856 44.1387L86.1938 44.1429C87.5011 44.8277 88.5313 45.8543 89.2868 47.2394C90.0422 48.6243 90.4258 50.207 90.4258 52C90.4258 53.9262 90.0091 55.5685 89.1953 56.9456C88.3761 58.3319 87.2433 59.4359 85.7871 60.2605C84.3394 61.0141 82.6241 61.4 80.6258 61.4C78.0482 61.4 75.4949 60.7569 72.9609 59.4587C70.4907 58.0924 68.3087 56.237 66.4151 53.8863L66.0466 53.4289L65.6539 53.8657L56.7539 63.7657L56.5069 64.0404L56.697 64.3572C58.9493 68.1111 62.1893 71.0401 66.399 73.1456C70.6097 75.3184 75.3221 76.4 80.5258 76.4C85.8574 76.4 90.5709 75.3538 94.6523 73.2457C98.729 71.2068 101.932 68.313 104.248 64.5674C106.638 60.878 107.826 56.5826 107.826 51.7C107.826 47.156 106.808 43.1013 104.759 39.5501C102.713 36.0035 99.879 33.2384 96.2658 31.2614C92.6489 29.2823 88.4976 28.3 83.8258 28.3C81.8683 28.3 80.2453 28.5013 78.9762 28.9228C78.4239 29.0857 77.9332 29.2701 77.5173 29.482Z" stroke="#13134F"></path> </svg> 