<?xml version="1.0"?>
<svg width="173" height="63" viewBox="0 0 173 63" fill="none" xmlns="http://www.w3.org/2000/svg"> <path d="M50.8472 47.6237L50.8485 47.6211C53.1536 42.943 54.3 37.6323 54.3 31.7C54.3 25.7686 53.1539 20.4905 50.8479 15.8779C48.5461 11.2071 45.3904 7.53737 41.3782 4.88459C37.3582 2.15984 32.7935 0.800049 27.7 0.800049C22.671 0.800049 18.1076 2.16092 14.0234 4.88348C10.0105 7.53632 6.85421 11.2063 4.5521 15.8778C2.24608 20.4904 1.09998 25.7686 1.09998 31.7C1.09998 37.6323 2.24635 42.943 4.55146 47.6211L4.55276 47.6237C6.8556 52.2293 10.0123 55.8652 14.0243 58.5172L14.0275 58.5193C18.1115 61.1739 22.6734 62.5 27.7 62.5C32.7918 62.5 37.3555 61.1746 41.3757 58.5172C45.3876 55.8652 48.5443 52.2293 50.8472 47.6237ZM32.4636 18.37L32.4636 18.3701L32.4719 18.3773C33.9294 19.6447 35.0872 21.4018 35.9313 23.6741C36.7727 25.9394 37.2 28.6114 37.2 31.7C37.2 34.7887 36.7727 37.4607 35.9313 39.726C35.0873 41.9981 33.9296 43.755 32.4723 45.0224C31.0964 46.2103 29.5126 46.8 27.7 46.8C25.8176 46.8 24.1653 46.2081 22.7233 45.0186C21.2693 43.7526 20.1138 41.9989 19.2709 39.7319C18.4942 37.464 18.1 34.7897 18.1 31.7C18.1 28.6104 18.4942 25.9361 19.2709 23.6682C20.1147 21.3987 21.2719 19.6436 22.7281 18.3773C24.172 17.1217 25.8227 16.5 27.7 16.5C29.5055 16.5 31.0864 17.118 32.4636 18.37ZM104.326 46.6V46.1H103.826H91.6258V3.90005V3.40005H91.1258H74.8258H74.5167L74.3785 3.67644C74.0986 4.23625 73.345 5.04438 72.0134 6.10961L72.0133 6.10949L72.0037 6.11759C70.7596 7.16522 69.2806 8.21769 67.5637 9.27422L67.5637 9.27415L67.5562 9.27891C65.9121 10.3312 64.2707 11.2175 62.6322 11.939C60.9977 12.592 59.6676 12.9 58.6258 12.9H58.1258V13.4V28.2V28.7H58.6258C60.0083 28.7 61.5163 28.4928 63.147 28.0851L63.1564 28.0828L63.1658 28.08C64.791 27.606 66.3817 26.9969 67.9378 26.2529C69.5531 25.5123 71.0053 24.7359 72.2928 23.9228C73.0888 23.42 73.7689 22.9095 74.3258 22.3895V46.1H60.6258H60.1258V46.6V61V61.5H60.6258H103.826H104.326V61V46.6ZM107.084 61V61.5H107.584H120.684H121.184V61V44.7001V44.2001H120.684H107.584H107.084V44.7001V61ZM172.009 46.6V46.1H171.509H159.309V3.90005V3.40005H158.809H142.509H142.2L142.062 3.67644C141.782 4.23625 141.029 5.04438 139.697 6.10961L139.697 6.10949L139.687 6.11759C138.443 7.16522 136.964 8.21769 135.247 9.27415L135.24 9.27891C133.596 10.3312 131.954 11.2175 130.316 11.9389C128.681 12.592 127.351 12.9 126.309 12.9H125.809V13.4V28.2V28.7H126.309C127.692 28.7 129.2 28.4928 130.831 28.0851L130.84 28.0828L130.849 28.08C132.475 27.606 134.065 26.9969 135.621 26.2529C137.237 25.5124 138.689 24.7359 139.976 23.9228C140.772 23.42 141.452 22.9095 142.009 22.3895V46.1H128.309H127.809V46.6V61V61.5H128.309H171.509H172.009V61V46.6Z" stroke="#13134F"></path> </svg> 