<?xml version="1.0"?>
<svg width="105" height="63" viewBox="0 0 105 63" fill="none" xmlns="http://www.w3.org/2000/svg"> <path fill-rule="evenodd" clip-rule="evenodd" d="M51.0355 47.842L51.0329 47.8472C48.6939 52.5252 45.4805 56.2303 41.3899 58.9342C37.2829 61.649 32.6221 63 27.4385 63C22.3187 63 17.6615 61.6476 13.4935 58.9384L13.4871 58.9342C9.39652 56.2303 6.18309 52.5252 3.84407 47.8472L3.84147 47.842C1.49792 43.0859 0.338501 37.6978 0.338501 31.7C0.338501 25.7038 1.49734 20.3475 3.84265 15.6556C6.1804 10.9123 9.39333 7.17197 13.4864 4.46618C17.6545 1.68816 22.3143 0.299988 27.4385 0.299988C32.6254 0.299988 37.2879 1.68613 41.3945 4.46874C45.4858 7.17438 48.6975 10.9139 51.0345 15.6559C53.3797 20.3477 54.5385 25.7039 54.5385 31.7C54.5385 37.6978 53.3791 43.0859 51.0355 47.842ZM40.8385 5.29998C36.9052 2.63332 32.4385 1.29999 27.4385 1.29999C22.5052 1.29999 18.0385 2.63332 14.0385 5.29998C10.1052 7.89999 7.00517 11.5 4.7385 16.1C2.47183 20.6333 1.3385 25.8333 1.3385 31.7C1.3385 37.5667 2.47183 42.8 4.7385 47.4C7.00517 51.9333 10.1052 55.5 14.0385 58.1C18.0385 60.7 22.5052 62 27.4385 62C32.4385 62 36.9052 60.7 40.8385 58.1C44.7718 55.5 47.8718 51.9333 50.1385 47.4C52.4052 42.8 53.5385 37.5667 53.5385 31.7C53.5385 25.8333 52.4052 20.6333 50.1385 16.1C47.8718 11.5 44.7718 7.89999 40.8385 5.29998ZM31.874 18.7473L31.8658 18.7399C30.5781 17.5693 29.1162 17 27.4385 17C25.6839 17 24.1492 17.5767 22.7947 18.7546C21.4155 19.9539 20.3013 21.6308 19.4803 23.8363C18.727 26.0389 18.3385 28.6541 18.3385 31.7C18.3385 34.7459 18.727 37.3612 19.4804 39.5638C20.2994 41.7641 21.4104 43.4383 22.785 44.637C24.1357 45.7493 25.6738 46.3 27.4385 46.3C29.1312 46.3 30.5994 45.7534 31.8849 44.6432C33.2653 43.4419 34.3802 41.7618 35.2011 39.5518C36.0172 37.3545 36.4385 34.7439 36.4385 31.7C36.4385 28.656 36.0172 26.0454 35.2011 23.8482C34.3797 21.6368 33.264 19.956 31.8823 18.7546L31.874 18.7473ZM32.5385 45.4C31.0718 46.6667 29.3718 47.3 27.4385 47.3C25.4385 47.3 23.6718 46.6667 22.1385 45.4C20.6052 44.0667 19.4052 42.2333 18.5385 39.9C17.7385 37.5667 17.3385 34.8333 17.3385 31.7C17.3385 28.5667 17.7385 25.8333 18.5385 23.5C19.4052 21.1666 20.6052 19.3333 22.1385 18C23.6718 16.6666 25.4385 16 27.4385 16C29.3718 16 31.0718 16.6666 32.5385 18C34.0718 19.3333 35.2718 21.1666 36.1385 23.5C37.0052 25.8333 37.4385 28.5667 37.4385 31.7C37.4385 34.8333 37.0052 37.5667 36.1385 39.9C35.2718 42.2333 34.0718 44.0667 32.5385 45.4ZM104.564 45.6V62H59.3643V45.6H73.5643V23.4659C73.1773 23.7644 72.7545 24.0574 72.2983 24.3455C70.9902 25.1717 69.5192 25.9578 67.8885 26.7056C66.3096 27.4602 64.6948 28.0786 63.0443 28.56L63.0257 28.5654L63.0068 28.5701C61.3454 28.9855 59.796 29.2 58.3643 29.2H57.3643V12.4H58.3643C59.3149 12.4 60.5751 12.1172 62.1771 11.4778C63.7875 10.7682 65.4036 9.89557 67.0252 8.85771L67.0327 8.85295L67.0402 8.84833C68.7406 7.80194 70.1987 6.76366 71.4202 5.73507L71.4298 5.72697L71.4396 5.71912C72.7693 4.65531 73.4434 3.90572 73.6699 3.45277L73.9463 2.89998H91.8643V45.6H104.564ZM62.5643 12.4C60.8976 13.0667 59.4976 13.4 58.3643 13.4V28.2C58.6897 28.2 59.023 28.1881 59.3643 28.1642C60.4214 28.0905 61.5548 27.9024 62.7643 27.6C64.3643 27.1333 65.931 26.5333 67.4643 25.8C69.0643 25.0667 70.4976 24.3 71.7643 23.5C72.4668 23.0563 73.0668 22.6126 73.5643 22.1689C73.9637 21.8126 74.2971 21.4563 74.5643 21.1V46.6H60.3643V61H103.564V46.6H90.8643V3.89998H74.5643C74.2309 4.56665 73.3976 5.43331 72.0643 6.49998C70.7976 7.56665 69.2976 8.63332 67.5643 9.69998C65.8976 10.7666 64.2309 11.6666 62.5643 12.4Z" fill="#13134F"></path> </svg> 