<?xml version="1.0"?>
<svg width="109" height="77" viewBox="0 0 109 77" fill="none" xmlns="http://www.w3.org/2000/svg"> <path d="M50.8472 47.6236L50.8485 47.621C53.1536 42.943 54.3 37.6322 54.3 31.7C54.3 25.7685 53.1539 20.4904 50.8479 15.8778C48.5461 11.207 45.3904 7.53731 41.3782 4.88453C37.3582 2.15978 32.7935 0.799988 27.7 0.799988C22.671 0.799988 18.1076 2.16085 14.0234 4.88341C10.0105 7.53626 6.85421 11.2063 4.5521 15.8777C2.24608 20.4903 1.09998 25.7685 1.09998 31.7C1.09998 37.6322 2.24635 42.943 4.55146 47.621L4.55276 47.6236C6.8556 52.2293 10.0123 55.8651 14.0243 58.5171L14.0275 58.5192C18.1115 61.1738 22.6734 62.5 27.7 62.5C32.7918 62.5 37.3555 61.1745 41.3757 58.5171C45.3876 55.8651 48.5443 52.2293 50.8472 47.6236ZM32.4636 18.37L32.4636 18.37L32.4719 18.3773C33.9294 19.6447 35.0872 21.4017 35.9313 23.6741C36.7727 25.9394 37.2 28.6113 37.2 31.7C37.2 34.7886 36.7727 37.4606 35.9313 39.7259C35.0873 41.998 33.9296 43.7549 32.4723 45.0223C31.0964 46.2103 29.5126 46.8 27.7 46.8C25.8176 46.8 24.1653 46.208 22.7233 45.0185C21.2693 43.7525 20.1138 41.9988 19.2709 39.7319C18.4942 37.4639 18.1 34.7897 18.1 31.7C18.1 28.6103 18.4942 25.936 19.2709 23.6681C20.1147 21.3986 21.2719 19.6436 22.7281 18.3773C24.172 17.1217 25.8227 16.5 27.7 16.5C29.5055 16.5 31.0864 17.118 32.4636 18.37ZM101.34 40.2113C99.7292 38.8615 97.9036 37.8849 95.8686 37.2803C97.6535 36.7116 99.2773 35.849 100.736 34.6917L100.737 34.6918L100.745 34.6852C102.734 33.0384 104.28 31.0462 105.378 28.7129L105.38 28.7079C106.477 26.3084 107.026 23.7707 107.026 21.1C107.026 17.4037 105.997 14.1957 103.926 11.5009C101.93 8.74899 99.0833 6.6319 95.4157 5.13748C91.8095 3.64085 87.609 2.89998 82.8258 2.89998C79.2544 2.89998 75.8143 3.30433 72.5068 4.11434C69.2022 4.92364 66.226 6.07218 63.5821 7.56335C61.0002 8.99049 58.9432 10.6997 57.4274 12.6978L57.1817 13.0217L57.4487 13.3283L67.5487 24.9283L67.9931 25.4387L68.3504 24.864C69.8445 22.4605 71.6853 20.6571 73.8697 19.4365C76.0597 18.2126 78.4421 17.6 81.0258 17.6C82.7104 17.6 84.1036 17.8595 85.2227 18.3569L85.2376 18.3635L85.2529 18.3692C86.4331 18.8039 87.3089 19.4761 87.9097 20.3773L87.9159 20.3866L87.9226 20.3957C88.5821 21.2951 88.9258 22.4196 88.9258 23.8C88.9258 26.0935 87.9463 27.983 85.9297 29.497C83.9095 30.9473 81.1255 31.7 77.5258 31.7H74.2258H73.7258V32.2V43.7V44.2H74.2258H77.2258C81.9942 44.2 85.3673 44.9657 87.4398 46.4102L87.4456 46.4141C89.5599 47.8444 90.6258 49.9472 90.6258 52.8C90.6258 55.4756 89.7423 57.4103 88.0303 58.6965C86.2877 59.9389 83.5802 60.6 79.8258 60.6C76.7447 60.6 74.0811 60.1083 71.8227 59.1404C69.548 58.1655 67.5345 56.8016 65.7793 55.0464L65.3728 54.6399L65.0266 55.0989L56.4266 66.4989L56.1677 66.842L56.4682 67.1495C59.387 70.1361 62.8491 72.3759 66.8488 73.8676C70.9149 75.426 75.5097 76.2 80.6258 76.2C86.2079 76.2 91.0751 75.3595 95.2154 73.6626C99.3543 71.9663 102.569 69.5462 104.832 66.3914C107.099 63.2317 108.226 59.5274 108.226 55.3C108.226 52.1047 107.614 49.2306 106.379 46.6884C105.214 44.0885 103.534 41.927 101.34 40.2113Z" stroke="#13134F"></path> </svg> 