<?xml version="1.0"?>
<svg xmlns="http://www.w3.org/2000/svg" viewBox="0 0 420.37 158.63" width="420.37" height="158.63"><defs><style>.cls-1{fill:#fff;}</style></defs><g id="Capa_2" data-name="Capa 2"><g id="Capa_1-2" data-name="Capa 1"><rect class="cls-1" x="253.81" y="39.66" width="7.93" height="31.73"></rect><rect class="cls-1" x="237.94" y="31.73" width="15.86" height="7.93"></rect><rect class="cls-1" x="237.94" y="71.38" width="15.86" height="7.93"></rect><polygon class="cls-1" points="198.29 71.38 174.49 71.38 174.49 55.52 198.29 55.52 198.29 47.59 174.49 47.59 174.49 39.66 198.29 39.66 198.29 31.73 166.56 31.73 166.56 79.31 198.29 79.31 198.29 71.38"></polygon><rect class="cls-1" x="230.01" y="39.66" width="7.93" height="31.73"></rect><polygon class="cls-1" points="341.05 71.38 317.26 71.38 317.26 55.52 341.05 55.52 341.05 47.59 317.26 47.59 317.26 39.66 341.05 39.66 341.05 31.73 309.33 31.73 309.33 79.31 341.05 79.31 341.05 71.38"></polygon><rect class="cls-1" x="277.6" y="71.38" width="15.86" height="7.93"></rect><polygon class="cls-1" points="356.92 63.45 372.78 63.45 372.78 55.52 356.92 55.52 356.92 39.66 372.78 39.66 372.78 31.73 348.98 31.73 348.98 79.31 356.92 79.31 356.92 63.45"></polygon><rect class="cls-1" x="269.67" y="31.73" width="7.93" height="39.66"></rect><rect class="cls-1" x="293.46" y="31.73" width="7.93" height="39.66"></rect><polygon class="cls-1" points="150.7 79.31 158.63 79.31 158.63 31.73 150.7 31.73 150.7 39.66 142.77 39.66 142.77 47.59 150.7 47.59 150.7 79.31"></polygon><rect class="cls-1" x="63.45" y="39.66" width="7.93" height="7.93"></rect><rect class="cls-1" x="372.78" y="63.45" width="7.93" height="15.86"></rect><rect class="cls-1" x="47.59" y="71.38" width="15.86" height="7.93"></rect><polygon class="cls-1" points="71.38 55.52 55.52 55.52 55.52 63.45 63.45 63.45 63.45 71.38 71.38 71.38 71.38 55.52"></polygon><rect class="cls-1" x="47.59" y="31.73" width="15.86" height="7.93"></rect><rect class="cls-1" x="39.66" y="39.66" width="7.93" height="31.73"></rect><rect class="cls-1" x="134.83" y="47.59" width="7.93" height="7.93"></rect><polygon class="cls-1" points="126.9 47.59 134.84 47.59 134.84 39.66 126.9 39.66 126.9 31.73 118.97 31.73 118.97 79.31 126.9 79.31 126.9 47.59"></polygon><polygon class="cls-1" points="87.25 63.45 103.11 63.45 103.11 79.31 111.04 79.31 111.04 39.66 103.11 39.66 103.11 55.52 87.25 55.52 87.25 39.66 79.31 39.66 79.31 79.31 87.25 79.31 87.25 63.45"></polygon><rect class="cls-1" x="87.25" y="31.73" width="15.86" height="7.93"></rect><rect class="cls-1" x="7.93" y="15.86" width="7.93" height="7.93"></rect><rect class="cls-1" y="23.79" width="7.93" height="63.45"></rect><rect class="cls-1" x="15.86" y="7.93" width="7.93" height="7.93"></rect><rect class="cls-1" x="7.93" y="87.25" width="7.93" height="7.93"></rect><rect class="cls-1" x="412.44" y="23.79" width="7.93" height="63.45"></rect><rect class="cls-1" x="15.86" y="95.18" width="7.93" height="7.93"></rect><rect class="cls-1" x="118.97" y="111.04" width="7.93" height="7.93"></rect><rect class="cls-1" x="404.5" y="87.25" width="7.93" height="7.93"></rect><rect class="cls-1" x="396.57" y="95.18" width="7.93" height="7.93"></rect><rect class="cls-1" x="396.57" y="7.93" width="7.93" height="7.93"></rect><rect class="cls-1" x="404.5" y="15.86" width="7.93" height="7.93"></rect><polygon class="cls-1" points="87.25 103.11 23.79 103.11 23.79 111.04 79.31 111.04 79.31 158.63 87.25 158.63 87.25 150.7 95.18 150.7 95.18 142.77 87.25 142.77 87.25 103.11"></polygon><rect class="cls-1" x="95.18" y="134.83" width="7.93" height="7.93"></rect><rect class="cls-1" x="103.11" y="126.9" width="7.93" height="7.93"></rect><rect class="cls-1" x="372.78" y="39.66" width="7.93" height="15.86"></rect><rect class="cls-1" x="111.04" y="118.97" width="7.93" height="7.93"></rect><rect class="cls-1" x="126.9" y="103.11" width="269.67" height="7.93"></rect><rect class="cls-1" x="23.79" width="372.78" height="7.93"></rect></g></g></svg>