<?xml version="1.0"?>
<svg width="101" height="32" viewBox="0 0 101 32" fill="none" xmlns="http://www.w3.org/2000/svg"> <path d="M-0.000244141 27.6099V4.39014L4.3899 0H9.19161V3.90997H6.58496L4.52709 5.96785V26.0322L6.58496 28.09H9.19161V32H4.3899L-0.000244141 27.6099Z" fill="#EB5482"></path> <path d="M13.6386 32V28.09H16.2452L18.3031 26.0322V5.96785L16.2452 3.90997H13.6386V0H18.4403L22.8304 4.39014V27.6099L18.4403 32H13.6386Z" fill="#EB5482"></path> <path d="M34.7904 20.12C34.3024 20.12 33.8504 19.996 33.4344 19.748C33.0184 19.492 32.6944 19.172 32.4624 18.788V20H31.7304V11.24H32.5464V15.056C32.8264 14.632 33.1624 14.292 33.5544 14.036C33.9464 13.772 34.4024 13.64 34.9224 13.64C35.3624 13.64 35.7544 13.732 36.0984 13.916C36.4504 14.1 36.7504 14.348 36.9984 14.66C37.2464 14.964 37.4344 15.312 37.5624 15.704C37.6904 16.088 37.7544 16.484 37.7544 16.892C37.7544 17.332 37.6784 17.744 37.5264 18.128C37.3824 18.512 37.1744 18.856 36.9024 19.16C36.6304 19.456 36.3144 19.692 35.9544 19.868C35.6024 20.036 35.2144 20.12 34.7904 20.12ZM34.5984 19.4C34.9344 19.4 35.2464 19.332 35.5344 19.196C35.8224 19.06 36.0704 18.872 36.2784 18.632C36.4864 18.392 36.6464 18.124 36.7584 17.828C36.8704 17.524 36.9264 17.212 36.9264 16.892C36.9264 16.452 36.8304 16.04 36.6384 15.656C36.4544 15.264 36.1944 14.952 35.8584 14.72C35.5304 14.48 35.1424 14.36 34.6944 14.36C34.3744 14.36 34.0744 14.432 33.7944 14.576C33.5224 14.72 33.2784 14.912 33.0624 15.152C32.8544 15.384 32.6824 15.64 32.5464 15.92V17.864C32.5784 18.08 32.6624 18.284 32.7984 18.476C32.9344 18.66 33.1024 18.82 33.3024 18.956C33.5104 19.092 33.7264 19.2 33.9504 19.28C34.1744 19.36 34.3904 19.4 34.5984 19.4Z" fill="#ACACB6"></path> <path d="M39.2857 21.92C39.3977 21.928 39.5057 21.932 39.6097 21.932C39.7137 21.94 39.7897 21.936 39.8377 21.92C39.9337 21.904 40.0257 21.848 40.1137 21.752C40.2017 21.656 40.3057 21.472 40.4257 21.2C40.5457 20.928 40.7137 20.528 40.9297 20L38.2057 13.748H39.0697L41.3617 19.16L43.4737 13.748H44.2897L41.0497 21.812C40.9937 21.964 40.9097 22.104 40.7977 22.232C40.6857 22.368 40.5457 22.472 40.3777 22.544C40.2177 22.624 40.0177 22.668 39.7777 22.676C39.7057 22.684 39.6297 22.684 39.5497 22.676C39.4777 22.676 39.3897 22.668 39.2857 22.652V21.92Z" fill="#ACACB6"></path> <path fill-rule="evenodd" clip-rule="evenodd" d="M72.5958 14.6319C72.25 13.9023 71.9182 13.2021 71.4108 12.5458C71.4141 12.4896 71.5184 12.3905 71.6711 12.2455C72.1074 11.8311 72.9386 11.0416 72.9386 9.80435C72.9386 8.83529 72.3275 7.86622 71.3981 7.52195C68.2151 6.37437 66.267 11.0029 69.0808 12.4055L69.1445 12.584C68.8847 12.9335 68.4474 13.8248 68.1001 14.5325C67.8519 15.0385 67.6496 15.4508 67.5912 15.504C67.5275 15.453 67.4639 15.402 67.4129 15.351C65.745 13.5276 64.0007 12.074 61.3652 12.074C60.805 12.074 59.7228 12.2653 59.1753 12.431C58.9598 12.3473 58.805 11.8163 58.6129 11.1569C58.2489 9.90759 57.7507 8.19774 56.4506 8.19774C54.8719 8.19774 54.0443 12.2908 53.8278 13.5403C53.7382 14.0666 53.6447 14.5941 53.551 15.1225C53.3519 16.2458 53.152 17.3731 52.9875 18.5004C52.7711 20.0178 52.6947 21.3566 53.3185 22.7465C53.5477 23.2565 54.7827 24.1236 55.3429 24.1363C58.9461 25.0544 63.6188 24.4551 66.7381 22.4787C66.7772 22.4954 66.9114 22.6711 67.0713 22.8804C67.2766 23.1491 67.5244 23.4733 67.6676 23.588C69.1445 24.7611 71.7164 24.3913 73.1933 23.4478C74.492 24.2383 76.5036 24.7993 77.7896 23.6263C77.8439 23.5791 77.9116 23.4958 77.9875 23.4025C78.1782 23.168 78.4204 22.8702 78.6299 22.925L81.4182 24.0088C82.8238 24.378 83.656 24.2983 84.9337 24.1758C85.0679 24.163 85.2071 24.1496 85.3524 24.1363C85.3755 24.1325 85.6519 24.1786 86.0489 24.245C86.9661 24.3983 88.527 24.6591 89.0956 24.6591C91.8712 24.6591 95.9073 23.8558 96.964 20.8976C97.7152 18.832 97.2187 16.473 95.9709 14.6624C97.8425 15.045 99.9433 13.5403 100.631 11.7425C101.191 10.2761 100.529 9.00105 99.1794 8.42726C97.2823 7.62396 94.2776 8.61852 93.4754 10.6969C93.2463 11.2834 93.2463 11.8445 93.3991 12.3673C92.6224 11.9592 91.7439 11.717 90.8272 11.6915C87.8351 11.6022 84.6394 14.5987 83.3407 17.0851C83.1118 17.512 82.9808 17.934 82.8475 18.3632C82.7658 18.6263 82.6832 18.8921 82.5768 19.1635C82.5598 19.223 82.5202 19.2825 82.4806 19.342C82.4608 19.3717 82.441 19.4015 82.424 19.4312C82.1057 19.3675 79.8776 18.1052 79.8776 17.9394C79.8776 17.8207 80.3801 17.2865 80.9908 16.6372C81.7582 15.8213 82.6963 14.8239 83.0224 14.2416C83.7736 12.9156 82.2967 12.431 81.5964 12.8136C81.5874 12.8166 81.4623 12.8841 81.2622 12.9923C80.6183 13.3402 79.1977 14.1076 78.3625 14.4967C78.2672 14.1529 78.1504 13.4374 78.0603 12.8855C78.0301 12.7004 78.0029 12.5336 77.9805 12.4055C77.815 11.462 77.5986 10.5822 77.2421 9.68959C76.9874 9.0393 76.4654 8.2615 75.6888 8.2615C74.2246 8.2615 73.5371 11.2452 73.3461 12.3545C73.3327 12.4298 73.3102 12.5888 73.2812 12.7941C73.1726 13.5634 72.9721 14.9826 72.8113 15.0832C72.738 14.932 72.6669 14.782 72.5963 14.6331L72.5958 14.6319ZM97.465 11.0737C97.4283 11.1022 97.3919 11.1305 97.3559 11.1588C97.3111 11.1962 97.2652 11.233 97.2193 11.2697C97.0553 11.401 96.8924 11.5314 96.7854 11.6859C97.1391 11.6463 97.4929 11.6068 97.8466 11.5541C98.109 11.5146 98.3828 11.6068 98.36 11.8835C98.3372 12.147 98.0748 12.3052 97.8237 12.3579C97.3331 12.4369 96.8539 12.4764 96.3861 12.4633C96.135 12.4501 95.9525 12.292 95.9068 12.068C95.8726 11.9099 95.8954 11.7386 95.9525 11.5673C95.9981 11.4223 96.078 11.2774 96.1693 11.1456C96.3746 10.8689 96.6371 10.6449 96.9109 10.4209C96.9669 10.384 97.0172 10.3406 97.0699 10.2953C97.0923 10.2759 97.1152 10.2562 97.1391 10.2365C97.2304 10.1574 97.3217 10.052 97.3217 9.94659C97.3217 9.81483 97.2076 9.7753 97.0821 9.80165C96.9109 9.83654 96.8019 9.95354 96.6924 10.0711C96.6779 10.0867 96.6632 10.1025 96.6485 10.1179C96.5458 10.2101 96.4317 10.3024 96.2948 10.3419C96.1122 10.3946 95.9981 10.2892 96.0438 10.1311C96.0894 10.0125 96.1807 9.89389 96.2834 9.80165C96.523 9.56448 96.8425 9.40636 97.1619 9.32731C97.6754 9.20872 98.2459 9.32731 98.3258 9.82801C98.36 10.0652 98.2459 10.3155 98.0862 10.5132C97.9102 10.7276 97.684 10.9035 97.465 11.0737ZM90.8971 16.3521C90.0622 16.3521 85.9386 20.2399 90.2014 20.2399C93.6926 20.2399 91.6687 16.3521 90.8971 16.3521ZM62.7955 16.1771C61.8557 16.1771 56.8735 20.0649 61.9845 20.0649C66.0398 20.0649 63.7353 16.1771 62.7955 16.1771Z" fill="white"></path> </svg> 