<?xml version="1.0"?>
<svg width="110" height="75" viewBox="0 0 110 75" fill="none" xmlns="http://www.w3.org/2000/svg"> <path d="M50.8472 47.6236L50.8485 47.621C53.1536 42.943 54.3 37.6322 54.3 31.7C54.3 25.7685 53.1539 20.4904 50.8479 15.8778C48.5461 11.207 45.3904 7.53731 41.3782 4.88453C37.3582 2.15978 32.7935 0.799988 27.7 0.799988C22.671 0.799988 18.1076 2.16085 14.0234 4.88341C10.0105 7.53626 6.85421 11.2063 4.5521 15.8777C2.24608 20.4903 1.09998 25.7685 1.09998 31.7C1.09998 37.6322 2.24635 42.943 4.55146 47.621L4.55276 47.6236C6.8556 52.2293 10.0123 55.8651 14.0243 58.5171L14.0275 58.5192C18.1115 61.1738 22.6734 62.5 27.7 62.5C32.7918 62.5 37.3555 61.1745 41.3757 58.5171C45.3876 55.8651 48.5443 52.2293 50.8472 47.6236ZM32.4636 18.37L32.4636 18.37L32.4719 18.3773C33.9294 19.6447 35.0872 21.4017 35.9313 23.6741C36.7727 25.9394 37.2 28.6113 37.2 31.7C37.2 34.7886 36.7727 37.4606 35.9313 39.7259C35.0873 41.998 33.9296 43.7549 32.4723 45.0223C31.0964 46.2103 29.5126 46.8 27.7 46.8C25.8176 46.8 24.1653 46.208 22.7233 45.0185C21.2693 43.7525 20.1138 41.9988 19.2709 39.7319C18.4942 37.4639 18.1 34.7897 18.1 31.7C18.1 28.6103 18.4942 25.936 19.2709 23.6681C20.1147 21.3986 21.2719 19.6436 22.7281 18.3773C24.172 17.1217 25.8227 16.5 27.7 16.5C29.5055 16.5 31.0864 17.118 32.4636 18.37ZM83.2258 73.7V74.2H83.7258H99.7258H100.226V73.7V60.5H108.526H109.026V60V45.6V45.1H108.526H100.226V3.89998V3.39998H99.7258H88.8258H88.5816L88.4315 3.59249L55.8315 45.3925L55.7258 45.5281V45.7V60V60.5H56.2258H83.2258V73.7ZM85.1258 29.3714V45.1H73.0405L85.1258 29.3714Z" stroke="#13134F"></path> </svg> 