<?xml version="1.0"?>
<svg width="110" height="63" viewBox="0 0 110 63" fill="none" xmlns="http://www.w3.org/2000/svg"> <path d="M50.8472 47.6236L50.8485 47.621C53.1536 42.943 54.3 37.6322 54.3 31.7C54.3 25.7685 53.1539 20.4904 50.8479 15.8778C48.5461 11.207 45.3904 7.53731 41.3782 4.88453C37.3582 2.15978 32.7935 0.799988 27.7 0.799988C22.671 0.799988 18.1076 2.16085 14.0234 4.88341C10.0105 7.53626 6.85421 11.2063 4.5521 15.8777C2.24608 20.4903 1.09998 25.7685 1.09998 31.7C1.09998 37.6322 2.24635 42.943 4.55146 47.621L4.55276 47.6236C6.8556 52.2293 10.0123 55.8651 14.0243 58.5171L14.0275 58.5192C18.1115 61.1738 22.6734 62.5 27.7 62.5C32.7918 62.5 37.3555 61.1745 41.3757 58.5171C45.3876 55.8651 48.5443 52.2293 50.8472 47.6236ZM32.4636 18.37L32.4636 18.37L32.4719 18.3773C33.9294 19.6447 35.0872 21.4017 35.9313 23.6741C36.7727 25.9394 37.2 28.6113 37.2 31.7C37.2 34.7886 36.7727 37.4606 35.9313 39.7259C35.0873 41.998 33.9296 43.7549 32.4723 45.0223C31.0964 46.2103 29.5126 46.8 27.7 46.8C25.8176 46.8 24.1653 46.208 22.7233 45.0185C21.2693 43.7525 20.1138 41.9988 19.2709 39.7319C18.4942 37.4639 18.1 34.7897 18.1 31.7C18.1 28.6103 18.4942 25.936 19.2709 23.6681C20.1147 21.3986 21.2719 19.6436 22.7281 18.3773C24.172 17.1217 25.8227 16.5 27.7 16.5C29.5055 16.5 31.0864 17.118 32.4636 18.37ZM57.4258 61V61.5H57.9258H108.126H108.626V61V46.6V46.1H108.126H81.6735C82.3086 45.5219 82.958 44.9898 83.6215 44.5032L83.6258 44.5C84.6737 43.714 85.7879 42.993 86.9686 42.3371L86.9776 42.332L86.9865 42.3266C88.176 41.5997 89.4663 40.8717 90.8578 40.1429L90.8659 40.1387L90.8738 40.1341C92.265 39.3392 93.7568 38.5435 95.3494 37.7472L95.3697 37.7371L95.3889 37.7251C96.8021 36.8503 98.2139 35.8755 99.6245 34.801C101.12 33.7127 102.448 32.487 103.607 31.1238C104.775 29.7494 105.702 28.2041 106.388 26.4903C107.151 24.6852 107.526 22.6183 107.526 20.3C107.526 16.6813 106.637 13.5152 104.842 10.8226C103.047 8.13014 100.432 6.07315 97.025 4.64134C93.677 3.13938 89.5709 2.39999 84.7258 2.39999C81.7598 2.39999 78.8919 2.70318 76.1232 3.3106C73.4323 3.84905 70.9378 4.59007 68.6412 5.53525C66.3505 6.41151 64.2891 7.42482 62.4594 8.57687L62.4593 8.5768L62.4521 8.5815C60.6979 9.72852 59.2357 10.8829 58.0722 12.0464L57.745 12.3736L58.0459 12.7251L68.1459 24.5251L68.52 24.9622L68.9007 24.5308C69.888 23.4119 70.8722 22.428 71.8532 21.5778L71.8602 21.5718L71.8669 21.5655C72.8437 20.6539 73.8499 19.8751 74.8851 19.2275C75.9811 18.5834 77.1058 18.1022 78.2596 17.7817C79.413 17.4613 80.6345 17.3 81.9258 17.3C83.542 17.3 84.8643 17.559 85.9129 18.0524L85.924 18.0576L85.9354 18.0623C86.9845 18.4943 87.7662 19.132 88.3052 19.9704C88.8463 20.8121 89.1258 21.8153 89.1258 23C89.1258 23.8315 88.8901 24.6021 88.4097 25.3226L88.4096 25.3226L88.4039 25.3315C87.9958 25.973 87.2019 26.6921 85.9588 27.4772C84.7028 28.2705 83.0118 29.2654 80.883 30.4629C78.8192 31.5946 76.222 32.9931 73.091 34.6586L73.0905 34.6588C70.0636 36.2731 67.5281 37.9952 65.4913 39.8283C63.5226 41.5935 61.9217 43.5334 60.6933 45.6489L60.6907 45.6535C59.5302 47.7015 58.68 49.9831 58.137 52.4943L58.1369 52.4943L58.1345 52.507C57.6608 55.0108 57.4258 57.8428 57.4258 61Z" stroke="#13134F"></path> </svg> 