<?xml version="1.0"?>
<svg xmlns="http://www.w3.org/2000/svg" viewBox="0 0 617 617" width="617" height="617"><defs><style>.cls-1{fill:#6071d9;}</style></defs><g id="Layer_2" data-name="Layer 2"><g id="Layer_8" data-name="Layer 8"><path class="cls-1" d="M278.32,164.24a144,144,0,0,1-9.44-35,50.12,50.12,0,0,1-.76-8.1c0-.21,0-.42,0-.64.08-.95-.15.48.08-.44,0-.19.4-1.11.19-.67.29-.61-.32.15.18-.27-.34.29,0-.07.06,0s-.61.08-.07.09a3.46,3.46,0,0,1,.69.08c2.74.54,5.48.63,7.43-1.74a10.76,10.76,0,0,0,1.55-2.69c.17-.39.33-.79.52-1.18l.33-.61c.32-.63-.07,0,.25-.35s.07,0-.05,0a10.13,10.13,0,0,0,2.16.16,10.89,10.89,0,0,0,3.51-.21,14.88,14.88,0,0,0,5.35-2.56c1.63-1.17,3.14-2.47,4.7-3.73l.37-.29.37-.28c.36-.27.74-.53,1.12-.78s.6-.38.91-.55.46-.23.69-.34c-.47.22,0,0,.21-.07a7.48,7.48,0,0,1,1.06-.27c.41-.08-.67-.08,0,0a2.57,2.57,0,0,0,.48,0c.74-.06-.36-.09.07,0,.21,0,.42.09.63.16a9.62,9.62,0,0,1,1.33.65,9.44,9.44,0,0,0,4.45,1.41,9.8,9.8,0,0,0,4.42-1.25,15.19,15.19,0,0,1,3-1.42,10,10,0,0,1,3.93-.11c3,.44,5.86,1.33,8.81,1.85a90.81,90.81,0,0,0,41.32-2.22l-2.92-5c-3.5,2.92-7.13,6.24-9,10.46a14.09,14.09,0,0,0-1.42,7,18.49,18.49,0,0,0,2.25,7.07,53.67,53.67,0,0,1,2.8,5.41,10.56,10.56,0,0,1,.6,2.48c0,.35,0,.69,0,1,0,.17,0,.34,0,.51.07-.71,0,0-.05.19-.1.37-.18.72-.3,1.08-.05.16-.11.31-.17.47-.15.42.22-.44,0,0a17.1,17.1,0,0,1-1.21,2.08c-.1.16-.66.89-.3.44-.23.28-.45.56-.69.82-.57.66-1.17,1.28-1.79,1.89-4.67,4.62-11,8.93-12.43,15.79-.53,2.64-.13,5.16,0,7.81a7.71,7.71,0,0,1-.19,3c.11-.3-.43.75-.39.7-.12.16-.66.64-.68.66s-.61.34-.32.21-.51.13-.48.13.55-.08,0-.05c.12,0,.35,0,.42.12-.18-.28-.16,0-.37-.44a8.38,8.38,0,0,1-.52-1.51c-.72-2.45-1.32-4.94-2-7.41-1.28-4.74-2.85-9.65-5.84-13.62a20.53,20.53,0,0,0-11.1-7.68,14,14,0,0,0-12.65,2.79c-2.81,2.31-4.71,5.51-7.45,7.88-.15.13-.29.26-.44.37.38-.29,0,0-.08,0-.35.22-.7.43-1.07.62s.41-.13,0,0l-.65.2a5.12,5.12,0,0,1-.54.1c.55-.07-.18,0-.34,0a5.36,5.36,0,0,1-1.81-.48,24.66,24.66,0,0,1-2.78-1.71,17,17,0,0,0-6.12-3,11.18,11.18,0,0,0-6.39.62c-4.09,1.7-6.92,5.34-8.56,9.35-1.81,4.4-1.59,9-.48,13.58,1.22,5,3.44,9.65,4.75,14.6,1.39,5.23,1.08,10.73,3.68,15.62a36.65,36.65,0,0,0,4.58,6.29c1.84,2.16,3.7,4.3,5.55,6.46L302.68,223l5.67,6.59a3,3,0,0,0,4.24,0l16.47-21c4.92-6.27,10.81-12.5,13.4-20.2a15.68,15.68,0,0,0-.76-12.55,3,3,0,0,0-5.18,0,11.87,11.87,0,0,1-10,5.54,10.33,10.33,0,0,1-5.53-1.33c-2.35-1.34-4.19-3.43-6.67-4.56-4.68-2.13-9.42-.63-13.69,1.72-1.88,1-3.68,2.2-5.55,3.23a12.47,12.47,0,0,1-5.06,1.92c.63-.09,0,0-.12,0H289c-.81,0,.37.1-.11,0-.31-.07-.61-.14-.92-.24-.52-.15-.19,0-.06,0a2.86,2.86,0,0,1-.54-.3c.24.19.24.17,0-.05.32.53.15.08.06,0,.14.37.15.4,0,.08a3,3,0,0,1-.12-.43,7,7,0,0,0-1.41-3.15A4.55,4.55,0,0,0,282,177a3.1,3.1,0,0,0-3,3c0,1.47,1.38,3.2,3,3l.31,0c.39,0,.37,0-.06-.08-.36-.29-.65-.37-.93-.79.13.21.05.36-.08-.23,0,.2.11.39.16.58a8.68,8.68,0,0,0,1.1,2.82c1.5,2.26,4.41,3.16,7,3.16,4.64,0,8.71-2.79,12.56-5,1-.56,1.92-1.11,2.92-1.61l.67-.32c.11-.05.69-.29.21-.1.53-.21,1.07-.4,1.61-.56.27-.07.53-.14.81-.19.09,0,1-.14.27-.07a10.15,10.15,0,0,1,1.35,0s.86.09.41,0,.44.1.42.1a5.94,5.94,0,0,1,1.58.66c2.39,1.37,4.25,3.46,6.78,4.61a17.21,17.21,0,0,0,7.74,1.56,17.94,17.94,0,0,0,14.85-8.5h-5.18c1.76,3.33.76,7.1-.9,10.41-2,4.07-4.93,7.59-7.73,11.15l-19.54,24.89h4.24c-7.53-8.75-15.08-17.47-22.58-26.25a28.92,28.92,0,0,1-4-5.61,21,21,0,0,1-1.68-6.9,49.85,49.85,0,0,0-1.49-8c-.69-2.36-1.55-4.66-2.38-7a60.52,60.52,0,0,1-2.23-7.2,22.15,22.15,0,0,1-.51-3.23,13.38,13.38,0,0,1-.05-1.42q0-.33,0-.66s.09-.94,0-.54a13.47,13.47,0,0,1,1.72-5,12,12,0,0,1,1.36-2A11,11,0,0,1,282.6,150a5,5,0,0,1,4-1.07c-.45-.06.57.16.75.21a5.57,5.57,0,0,1,.95.4,26.2,26.2,0,0,1,2.8,1.75,15.63,15.63,0,0,0,6.17,2.86,10,10,0,0,0,6.16-1c3.31-1.69,5.45-5,7.89-7.63a24.49,24.49,0,0,1,1.77-1.76l.47-.4c-.33.26.07,0,.12-.08a10.9,10.9,0,0,1,1.36-.82,8.14,8.14,0,0,1,4.34-.56,14.25,14.25,0,0,1,8.93,5.71c2.77,3.95,4,8.65,5.26,13.27,1.13,4.33,2,11.83,7.8,12a7.67,7.67,0,0,0,5.81-2.75,10.16,10.16,0,0,0,2.33-7.21c0-1.3-.22-2.59-.32-3.89a16,16,0,0,1-.06-1.83c0-.31,0-.61.06-.92-.06.68,0-.16,0-.25a11,11,0,0,1,.61-2c-.23.57.15-.29.24-.46q.31-.58.66-1.14c.2-.3.4-.59.61-.88.49-.7-.23.26.1-.14.11-.15.23-.29.34-.43.54-.64,1.1-1.25,1.69-1.85,1.16-1.19,2.4-2.31,3.63-3.43,5.13-4.67,10.35-10,9.06-17.51-.74-4.28-4-7.66-5.11-11.62a7.53,7.53,0,0,1,.32-5.34,17.2,17.2,0,0,1,3.26-4.73,52.39,52.39,0,0,1,4.83-4.47c2.35-2-.18-5.82-2.92-5a84.07,84.07,0,0,1-36.74,2.45c-3.06-.49-6-1.27-9.07-1.88-3.31-.66-6.65-.87-9.81.49-1.08.48-2.1,1.18-3.17,1.62s-1.46.2-2.47-.34a10.46,10.46,0,0,0-7.06-1.45c-4,.71-7.07,3.84-10.09,6.27-.09.07-.59.45-.19.15l-.58.43c-.35.25-.7.49-1.06.72s-.78.48-1.19.7l-.61.29.09,0-.5.17c-.16.06-.33.1-.5.15,0,0-.84.17-.38.09s-.39,0-.39,0h-.54c-1.74-.05-3.34-.45-5,.17-2.39.88-3.43,3-4.39,5.14-.19.42-.42.83-.62,1.25-.05.1-.34.44,0,0-.12.14-.67.48-.16.19s-.19,0-.37,0c-.49,0-1.23-.25-1.83-.34a6.26,6.26,0,0,0-7.13,4c-.92,2.3-.71,4.8-.47,7.21a147.63,147.63,0,0,0,10.19,41.32,3.1,3.1,0,0,0,3.69,2.1c1.42-.39,2.71-2.18,2.1-3.69Z"></path><path class="cls-1" d="M343.08,181a34.84,34.84,0,0,0,.63-13.49,3,3,0,0,0-1.38-1.79,3,3,0,0,0-4.11,1.08,3.53,3.53,0,0,0-.3,2.31c.09.63-.07-.6,0,.21,0,.22.05.45.07.67.05.49.08,1,.1,1.47,0,.94,0,1.89,0,2.83,0,.49-.06,1-.11,1.46a3.83,3.83,0,0,1-.08.68l.05-.35-.06.44c-.15,1-.35,1.93-.59,2.88a3,3,0,0,0,5.78,1.6Z"></path><path class="cls-1" d="M301,167.26a15,15,0,0,0-.67,7.85,10.53,10.53,0,0,0,.37,1.57c.47,1.46,1.49,2,2.77,2.51a10.48,10.48,0,0,0,13.86-7,10.79,10.79,0,0,0-.93-7.82,3,3,0,0,0-4.1-1.08,3.07,3.07,0,0,0-1.08,4.11,2.53,2.53,0,0,0,.26.52s-.26-.7-.14-.31l.12.34a8.45,8.45,0,0,1,.27,1.21l-.11-.8a8.11,8.11,0,0,1,0,2l.1-.79a7.68,7.68,0,0,1-.23,1.14c-.05.19-.11.37-.17.55-.27.73.25-.5,0,0a11.41,11.41,0,0,1-.58,1c-.43.63.37-.41,0,0l-.35.37c-.12.12-.24.24-.37.35-.58.5.46-.3,0,0a9,9,0,0,1-1,.58c-.7.34.53-.18.05,0-.19.06-.37.13-.56.18a7.21,7.21,0,0,1-1.14.24l.8-.11a8.11,8.11,0,0,1-2,0l.79.1a6.85,6.85,0,0,1-1.27-.28,3,3,0,0,0-.55-.19c.14,0,.71.31.25.09l-.32-.17,1.38,1.79a12.68,12.68,0,0,1-.43-1.92l.1.79a12.77,12.77,0,0,1,0-3.21l-.1.79a12.15,12.15,0,0,1,.72-2.77,3,3,0,0,0-4.41-3.39,3.5,3.5,0,0,0-1.38,1.8Z"></path><path class="cls-1" d="M290.81,165.5l9-4.39a3,3,0,0,0,1.08-4.1,3.08,3.08,0,0,0-4.11-1.08l-9,4.39a3,3,0,0,0-1.38,1.79,3,3,0,0,0,4.4,3.39Z"></path><path class="cls-1" d="M320.91,163.65c.15-.13.31-.25.47-.37l-.61.47a12,12,0,0,1,2.57-1.49l-.72.3a12.55,12.55,0,0,1,3-.82l-.8.11a12,12,0,0,1,3.11,0,3,3,0,0,0,2.12-.88,3,3,0,0,0,0-4.24l-.6-.47a3,3,0,0,0-1.52-.41,14.79,14.79,0,0,0-11.27,3.57,3,3,0,0,0-.88,2.12,3.06,3.06,0,0,0,.88,2.12,3,3,0,0,0,2.12.88,3.36,3.36,0,0,0,2.12-.88Z"></path><path class="cls-1" d="M297.86,188a3.31,3.31,0,0,1-1.67,1.43,1.18,1.18,0,0,1-.55-.11,4.61,4.61,0,0,1-.52-.58,3.2,3.2,0,0,0,.17.75,13.42,13.42,0,0,0,.86,3.45,8.2,8.2,0,0,0,5.11,4.21c5,1.41,9.47-2.49,10-7.33l-5.59,1.51,6.35,8.37c1.54,2,4.63,1.91,5.48-.72l4.76-14.65c1.19-3.68-4.6-5.26-5.79-1.6l-4.75,14.66,5.48-.72-6.35-8.37a3,3,0,0,0-5.59,1.52c.06-.52-.35.79-.15.39a1.69,1.69,0,0,1-.54.71,2.56,2.56,0,0,1-.76.48c.19-.11.12-.1-.23,0,.25,0,.19,0-.19,0a2.3,2.3,0,0,1-1.23-.42,2,2,0,0,1-.87-1.57,11.37,11.37,0,0,0-.82-3.37,4.81,4.81,0,0,0-2.73-2.36,4.28,4.28,0,0,0-5.65,2.68,3,3,0,0,0,2.09,3.69,3.06,3.06,0,0,0,3.69-2.09Z"></path><path class="cls-1" d="M325.25,213.2c14.05-2.71,28.43-.62,42.3,2.16,14.38,2.9,28.69,6.57,43.38,7.43,15.69.92,31.32-1.31,46.87-3s31.14-2.79,46.77-3.17q26.4-.65,52.76,1.3l-.79-5.9-16.83,4.48c-2.76.73-3,5.17,0,5.78l11.3,2.34-1.79-4.41a19.94,19.94,0,0,1-4.4,4.58,7,7,0,0,1-2.55,1.26,3,3,0,0,1-1.95-.17A9.7,9.7,0,0,1,538,224a14.64,14.64,0,0,0-3.28-2.42,13.66,13.66,0,0,0-7.36-1.35c-5.27.47-10,2.88-14.82,4.76A117.16,117.16,0,0,1,464,232.76c-10.7-.49-21.42-1.94-32.14-1.2a58.66,58.66,0,0,0-15.58,3c-4.89,1.75-9.23,4.78-14.13,6.45a13,13,0,0,1-6.53.73,35.47,35.47,0,0,1-7.13-2.42c-4.52-1.82-9.05-2.81-13.89-1.8-8.64,1.81-15.17,9.24-19.27,16.63-5.07,9.12-7.25,19.75-8.56,30-2.86,22.41.36,45.1,4.1,67.21q.7,4.14,1.43,8.27a3,3,0,0,0,3.69,2.1,3.07,3.07,0,0,0,2.09-3.69c-3.8-21.8-7.55-43.92-6.06-66.12.68-10.1,2.4-20.92,6.24-30.15a42.36,42.36,0,0,1,6.51-10.9,32,32,0,0,1,4.17-4.1,21.91,21.91,0,0,1,2.52-1.66,14.1,14.1,0,0,1,2.24-1.09c4.06-1.5,7.46-1.11,11.62.46,2.37.89,4.66,2,7.09,2.66a18.7,18.7,0,0,0,8.15.46c5.06-.84,9.47-3.74,14-5.9a45.19,45.19,0,0,1,14.24-3.89c10.52-1.18,21.11.09,31.62.74a132.59,132.59,0,0,0,33.22-1.91,119.92,119.92,0,0,0,16.14-4.29c4.87-1.67,9.52-4.06,14.48-5.47a12.78,12.78,0,0,1,6.05-.57c2.14.48,3.37,2,5.06,3.37a9.45,9.45,0,0,0,7.4,2.29,13.39,13.39,0,0,0,6.6-3.22,29.77,29.77,0,0,0,5-5.56,3,3,0,0,0-1.79-4.41l-11.31-2.33v5.78l16.83-4.47a3,3,0,0,0,2.15-3.29,3,3,0,0,0-2.95-2.6A541.8,541.8,0,0,0,463,213.21c-15.66,1.59-31.31,4.07-47.09,3.77-14.72-.28-29-3.72-43.35-6.71-16.07-3.35-32.53-6-48.87-2.86a3,3,0,0,0-2.09,3.69,3.07,3.07,0,0,0,3.69,2.1Z"></path><path class="cls-1" d="M290,208.52c-32.21,4.18-64.78,4.53-97.2,5.42-16.09.44-32.17,1-48.25,1.29-15.57.3-31.54.33-46.83-3-6.71-1.46-13.19-4-20-5.07a35,35,0,0,0-21.23,3.26c-2.49,1.19-1.54,4.73.71,5.48.5.17,0,0-.11-.07.14.07.28.13.41.21.29.17.57.35.85.53l.33.24c.38.28-.31-.26.07.06s.7.59,1,.9c1.38,1.26,2.68,2.6,4,3.9,2.93,2.84,6.13,5.68,10.07,7,2.06.68,4.24.53,6.37.84a42.12,42.12,0,0,1,7.4,1.83c4.94,1.63,9.63,3.91,14.41,6a74,74,0,0,0,15.23,5,77.79,77.79,0,0,0,16.34,1.28c11-.25,21.91-2.28,32.79-3.91s21.71-2.77,32.6-1.46c11.47,1.38,22.54,5,34,6.63,5.17.73,10.94.39,15.55,3.16a38.27,38.27,0,0,1,10.13,9.57,59.84,59.84,0,0,1,10.74,25c4.23,21.63-2.1,43.53-9,63.89q-1.42,4.2-2.9,8.38c-.68,2,1.08,3.68,2.9,3.79q34.46,2.28,69,2.48,9.87.06,19.74-.05c3.86,0,3.87-6,0-6q-34.55.38-69.06-1.29-9.86-.5-19.7-1.14l2.89,3.8c7.52-21.59,15.43-44.36,13.07-67.59A72.78,72.78,0,0,0,268,261a55.77,55.77,0,0,0-8.58-11.66c-3.59-3.71-7.84-7.28-12.9-8.68a50.31,50.31,0,0,0-8.72-1.23c-2.8-.27-5.58-.69-8.35-1.21-5.82-1.07-11.56-2.5-17.34-3.74a121.47,121.47,0,0,0-17.69-2.68,103.72,103.72,0,0,0-16.72.43c-21.51,2.1-44.13,9.41-65.49,2.61-10.1-3.21-19.28-9.25-29.84-11-1.39-.23-2.79-.41-4.2-.51a8,8,0,0,1-2.58-.37,14.58,14.58,0,0,1-4.11-2.37c-3-2.38-5.47-5.37-8.42-7.82a13.35,13.35,0,0,0-4.3-2.6l.71,5.48a28.08,28.08,0,0,1,16.61-2.66c6,1,11.7,3.08,17.55,4.52,15.06,3.68,30.89,4,46.32,3.85,16.06-.19,32.12-.8,48.17-1.24s31.9-.79,47.84-1.4c18-.7,36.07-1.81,54-4.14a3.1,3.1,0,0,0,3-3c0-1.46-1.38-3.21-3-3Z"></path><path class="cls-1" d="M346.64,359.53a6.58,6.58,0,0,0,4.42,3.48,6.35,6.35,0,0,0,3.15-.15,8.3,8.3,0,0,0,2.91-1.74A3,3,0,0,0,358,359a3.06,3.06,0,0,0-.88-2.12A3,3,0,0,0,355,356a3.31,3.31,0,0,0-2.12.88c-.11.1-.23.19-.35.28l.61-.46a5.46,5.46,0,0,1-1,.58l.72-.3a3.76,3.76,0,0,1-.93.25l.79-.1a3.37,3.37,0,0,1-.84,0l.8.11a3.86,3.86,0,0,1-.74-.2l.72.3a3.78,3.78,0,0,1-.75-.44l.61.47a4.09,4.09,0,0,1-.71-.73l.46.61a5.58,5.58,0,0,1-.46-.73,3,3,0,0,0-5.49.71,3.2,3.2,0,0,0,.31,2.31Z"></path><path class="cls-1" d="M263.87,356.08c-4,14.78-2.06,30.07-.22,45a201.76,201.76,0,0,1,1.87,22.49,211,211,0,0,1-1.41,23.31c-.41,4.05-.85,8.09-1.22,12.13a95.08,95.08,0,0,0-.74,11.17c.09,3.61,1.49,7,5,8.59,3.29,1.47,7.19,1.22,10.71,1.36l11.83.48,5.92.25a10.21,10.21,0,0,0,5.38-.82c3.54-1.93,3.56-6.2,4-9.72.5-3.91,1-7.84,1.37-11.76q2.81-26.76,2.92-53.71l-5.9.8c2.35,16.07,4.67,32.18,5.16,48.43q.19,6.18,0,12.35c-.12,3.42-.93,7.43.83,10.58a6.17,6.17,0,0,0,4.79,3,14.82,14.82,0,0,0,5.31-.85,66.23,66.23,0,0,1,11-2.06,70,70,0,0,1,25.28,2.1,3,3,0,0,0,3.8-2.89c.78-16-4.71-31.21-8.34-46.53-1.79-7.54-3.14-15.24-2.87-23s2.17-15.36,3.47-23c1.51-8.85,2.22-18-.88-26.59a3.07,3.07,0,0,0-3.69-2.09,3,3,0,0,0-2.09,3.69c5.34,14.88-1.56,30.54-2.68,45.56-1.17,15.83,4.18,31.12,7.9,46.28,2.06,8.43,3.6,17,3.18,25.71l3.79-2.89A75.37,75.37,0,0,0,335,470.83a77.14,77.14,0,0,0-11.34,1.25c-1.82.33-3.62.74-5.41,1.21-1.13.3-2.67,1-3.75.76.23.05-.12-.34,0-.05-.34-.94.09.53-.16-.48a7.71,7.71,0,0,1-.1-1.6c0-1.82.19-3.65.25-5.47.14-3.95.14-7.9,0-11.86-.23-7.91-.89-15.81-1.78-23.67-1-9-2.31-17.91-3.61-26.84a3,3,0,0,0-5.89.79q-.11,22.71-2.11,45.35c-.67,7.53-1.38,15.1-2.5,22.57a9.77,9.77,0,0,1-.28,1.43c-.12.4-.08.46-.28.57-.8.45-2.87.07-4,0l-11.34-.47c-3.61-.15-7.26-.14-10.86-.47a6.87,6.87,0,0,1-2.68-.7c-.95-.69-1-1.85-1.06-3a93.1,93.1,0,0,1,.69-10.68c.34-3.73.74-7.44,1.12-11.16.75-7.26,1.45-14.54,1.55-21.85a165.43,165.43,0,0,0-1.41-21.67c-1.84-15.58-4.64-31.72-.44-47.17,1-3.73-4.78-5.32-5.79-1.59Z"></path><path class="cls-1" d="M273.62,474c.34,0,.17,0-.07,0l-.78-.2a8.72,8.72,0,0,0-1.83-.29,3.91,3.91,0,0,0-3.53,2,3.09,3.09,0,0,0,.47,3.63,30.54,30.54,0,0,1,7.72,18c.54,7.88-1.49,15.62-3.07,23.28a107.56,107.56,0,0,0-2.39,25,125.68,125.68,0,0,0,2.94,23.09c1.81,8.24,4.42,16.27,7,24.29a3.05,3.05,0,0,0,3.69,2.09,3,3,0,0,0,2.09-3.69c-2.35-7.23-4.7-14.47-6.47-21.87a120.06,120.06,0,0,1-3.23-22.47,99.71,99.71,0,0,1,2.08-24.67c1.65-8,3.79-16.17,3.37-24.43a37,37,0,0,0-9.52-22.88l.47,3.63-1.65,1c-.28,0-.3,0-.07,0a3,3,0,0,0,.78.19,13.07,13.07,0,0,0,2,.33,3,3,0,0,0,3-3,3.06,3.06,0,0,0-3-3Z"></path><path class="cls-1" d="M295.11,478.8c2.43,6.14,1.11,12.29-.23,18.52a72.1,72.1,0,0,0-1.7,10.74,68.85,68.85,0,0,0,.43,11.21,281.47,281.47,0,0,1,1.15,44.88c-.51,8.38-1.43,16.74-2.65,25.05a3.09,3.09,0,0,0,2.09,3.69c1.42.39,3.45-.48,3.69-2.09a286.23,286.23,0,0,0,3.33-45.95q-.17-11.36-1.32-22.66a114.38,114.38,0,0,1-.81-11.7,52.05,52.05,0,0,1,1.3-10.32c1.61-7.62,3.5-15.42.5-23a3.08,3.08,0,0,0-3.69-2.09,3,3,0,0,0-2.09,3.69Z"></path><path class="cls-1" d="M317,478c.52,7.38,3.16,14.17,4.74,21.32,1.63,7.38,1.34,14.93.4,22.38s-2.57,15-3.57,22.6a76.9,76.9,0,0,0,.11,23c1.38,8.18,4.18,16.54,2.43,24.88a3.06,3.06,0,0,0,2.09,3.69,3,3,0,0,0,3.69-2.09c1.66-7.88.05-15.61-1.53-23.36a64.27,64.27,0,0,1-1.21-22.56c1.58-15.41,6.37-30.54,4.11-46.14-1.16-8.05-4.68-15.59-5.26-23.74a3.07,3.07,0,0,0-3-3,3,3,0,0,0-3,3Z"></path><path class="cls-1" d="M343.11,475.2a122.86,122.86,0,0,0-2,23.52,210.48,210.48,0,0,0,2,23.91c1,8,2.06,16.08,1.32,24.15-.63,7-2.71,13.68-4.72,20.33-2.36,7.81-4.49,15.69-4.78,23.89-.14,3.86,5.86,3.86,6,0,.5-14,7.14-26.81,9.07-40.6,1.13-8.07.57-16.11-.43-24.17s-2.05-15.86-2.38-23.87a117.66,117.66,0,0,1,1.63-25.56,3.07,3.07,0,0,0-2.09-3.69,3,3,0,0,0-3.69,2.09Z"></path><path class="cls-1" d="M293.91,206.88a11.14,11.14,0,0,0-8.53,7.92c-1.42,4.9,1.24,8.84,4.1,12.54l19.61,25.28c1.21,1.57,3.83.89,4.71-.61a98.64,98.64,0,0,1,16-20.45c2.79-2.77,5.73-5.62,7.57-9.14a16.29,16.29,0,0,0,1.05-13.22,3.08,3.08,0,0,0-3.69-2.1,3,3,0,0,0-2.09,3.69,10.82,10.82,0,0,1-1.22,9.93c-1.95,3.06-4.78,5.47-7.31,8A102.24,102.24,0,0,0,308.62,249l4.71-.61-17.15-22.13c-1.27-1.64-2.62-3.24-3.78-5a9.06,9.06,0,0,1-1.2-2.23,3.24,3.24,0,0,1-.21-1.86c0,.44.09-.47.1-.49a8.52,8.52,0,0,0,.24-.82,6.29,6.29,0,0,1,1-1.56,4.65,4.65,0,0,1,3.18-1.66c1.6-.25,2.49-2.26,2.1-3.69a3.09,3.09,0,0,0-3.69-2.1Z"></path><path class="cls-1" d="M278.21,605.25c-.58-2.87,1.35-6.09,3.87-7.87a26.06,26.06,0,0,1,11-3.92c3.53-.54,6,.92,7.59,3.85,1.89,3.39,1.74,7.84,1.67,11.77l3.8-2.89a75.92,75.92,0,0,0-28.9-3.5,3.06,3.06,0,0,0-3,3,3,3,0,0,0,3,3,71.34,71.34,0,0,1,27.3,3.28,3,3,0,0,0,3.8-2.89c.13-7.58-.67-17.13-8.65-20.68-4.11-1.84-8.64-.85-12.8.33-3.87,1.09-7.8,2.8-10.62,5.76a13.86,13.86,0,0,0-3.88,12.36,3,3,0,0,0,5.79-1.6Z"></path><path class="cls-1" d="M318.15,607.13l-1.89-2.19.47,3.64c1.71-3.75,3.44-7.71,6.36-10.69a13.45,13.45,0,0,1,9.9-4.07c7.56.09,13.28,6.75,12.94,14.13a3,3,0,0,0,6,0,19.26,19.26,0,0,0-33.36-14c-3.14,3.35-5.13,7.49-7,11.62a3.15,3.15,0,0,0,.47,3.63l1.89,2.19a3,3,0,0,0,4.24-4.24Z"></path><path class="cls-1" d="M317,612c10.76.08,21.43-1.7,32.14-2.51a3.07,3.07,0,0,0,3-3,3,3,0,0,0-3-3c-10.71.81-21.38,2.59-32.14,2.51-3.86,0-3.87,6,0,6Z"></path><path class="cls-1" d="M350,209.18A138.27,138.27,0,0,1,368.23,194c3.29-2.27,6.68-4.44,10.17-6.4,3.22-1.81,6.62-3.4,10.38-3.31l-2.89-2.2q6.74,18.47,11.76,37.48c1,3.73,6.78,2.15,5.79-1.59q-5-19-11.77-37.48a3.12,3.12,0,0,0-2.89-2.21c-4.51-.1-8.74,1.58-12.64,3.7a120.15,120.15,0,0,0-10.57,6.58,146.85,146.85,0,0,0-19.86,16.36c-2.76,2.71,1.48,7,4.24,4.25Z"></path><path class="cls-1" d="M393.44,189.37c7.73-7.29,18.82-9.1,28.43-12.89a62.49,62.49,0,0,0,14.89-8.36c4.68-3.53,9-7.44,13.57-11.13a62.19,62.19,0,0,1,14.19-9c5.37-2.35,11.13-3.73,16.78-5.22a97.86,97.86,0,0,0,17.27-5.86,77.69,77.69,0,0,0,13.15-8.53c4.6-3.49,9.12-7.16,14.17-10,4.64-2.6,9.37-4.1,14.71-3.62l-2.12-5.12L524.9,122.39c-2.23,2.1.1,5.74,2.92,5l12-3.09-3.39-1.38a2.52,2.52,0,0,1,0,2.15,7.19,7.19,0,0,1-1.65,2.4,11.34,11.34,0,0,1-6.77,3c-3.13.43-6.29.42-9.41.94a18.56,18.56,0,0,0-8.18,3.4c-4.49,3.38-7.23,8.3-10.23,12.94a41.22,41.22,0,0,1-9.62,10.48c-8.18,6-17.57,9.1-27.2,12.08-10.11,3.13-20.43,6-29.83,11-12.69,6.72-23,17-35.16,24.5-3.28,2-.27,7.21,3,5.19,11.15-6.86,20.69-16,31.95-22.71,9.38-5.56,19.76-8.51,30.23-11.73,10.08-3.09,20.5-6.37,29.19-12.52a46,46,0,0,0,11.38-11.41c3-4.35,5.28-9.28,9.36-12.64a15.27,15.27,0,0,1,8-2.93c3.61-.37,7.39-.28,10.88-1.35,6.57-2,12.47-8.77,9.23-15.76a3,3,0,0,0-3.39-1.38l-12,3.08,2.92,5,13.59-12.78c2-1.92.31-4.9-2.13-5.12-10.66-.95-19.82,5.23-27.91,11.38a153,153,0,0,1-12.75,9.18,63,63,0,0,1-16.1,6.53c-5.77,1.62-11.63,2.93-17.28,4.93a60.61,60.61,0,0,0-16,8.51c-9.23,6.84-17.21,15.54-27.8,20.37-11.25,5.14-24.21,6.68-33.56,15.48-2.82,2.66,1.43,6.89,4.24,4.25Z"></path><path class="cls-1" d="M93.64,136.34a56.26,56.26,0,0,1-15.38-12.81l-2.92,5,12.27,2.18A3,3,0,0,0,91.15,129a3,3,0,0,0-1.23-3.75,33,33,0,0,1-16.55-16.46L70,113.19c13.82,2.51,25.09,11.35,36.17,19.54a146.75,146.75,0,0,0,17.91,11.84c7.38,3.94,15.38,6.47,23.29,9.1a113.36,113.36,0,0,1,22.49,9.92c7.07,4.23,13.75,9.08,20.88,13.22,12.36,7.19,26.1,11.44,39.48,16.28,12.4,4.48,25.27,9.61,35.1,18.5q1.86,1.68,3.57,3.53c2.63,2.84,6.87-1.41,4.24-4.24-9.53-10.28-22.41-16.39-35.3-21.34s-26.38-8.77-38.7-15c-7.33-3.7-14.07-8.41-21-12.84a114.77,114.77,0,0,0-22.56-11.52c-7.84-2.88-16-5-23.61-8.41a105.27,105.27,0,0,1-18.75-11.27c-11.5-8.29-22.7-17.79-36.54-21.89a49.5,49.5,0,0,0-5.12-1.22,3.05,3.05,0,0,0-3.39,4.41,38,38,0,0,0,18.7,18.61l2.31-5.48-12.27-2.18a3,3,0,0,0-2.92,5,60.86,60.86,0,0,0,16.6,13.74c3.37,1.9,6.39-3.28,3-5.18Z"></path><path class="cls-1" d="M88.77,140.78c8.66,1.95,16.16,6.83,23.08,12.29,7.44,5.86,14.48,12.31,22.52,17.37,9,5.66,18.87,9.67,28.65,13.71,9.47,3.91,18.83,8,27.6,13.34a148.77,148.77,0,0,1,26.26,20.63c2.77,2.7,7-1.54,4.24-4.24a158.7,158.7,0,0,0-23.92-19.33,173.54,173.54,0,0,0-28.06-14.31c-9.65-4-19.44-7.81-28.52-13-8.24-4.75-15.32-11-22.7-16.92-8.23-6.63-17.06-12.93-27.56-15.29a3.08,3.08,0,0,0-3.69,2.1,3,3,0,0,0,2.1,3.69Z"></path><path class="cls-1" d="M264.88,354.88c-8.09,7.19-13.39,17.23-17.92,26.9-5.21,11.08-9.39,22.25-14.44,33.26a130.4,130.4,0,0,1-7.68,14.68c-.67,1.08-1.36,2.14-2.08,3.18q-.52.77-1.08,1.5c-.08.11-.49.65-.35.48s-.34.43-.45.56c-2.16,2.69-4.68,5.11-6.52,8.05-2,3.22-3.12,7.34-2,11.08,1.21,4.09,4.92,6.29,8.14,8.68l10.4,7.7,5.2,3.86A15,15,0,0,0,241,477.5a6.59,6.59,0,0,0,5.86-1.09c1.56-1.22,2.24-3,2.93-4.8a95.11,95.11,0,0,1,4.15-9.42,70.37,70.37,0,0,1,11.37-16.34q1.83-1.94,3.78-3.73a3,3,0,0,0-4.24-4.24,74.83,74.83,0,0,0-12.83,15.5A85.14,85.14,0,0,0,247.4,462q-1.1,2.37-2.08,4.77c-.59,1.42-1.12,3.18-1.77,4.39,0,0-.51.69-.34.54s-.44.13-.21.1-.49-.12-.19,0c-.25-.07-.5-.13-.73-.22a23.58,23.58,0,0,1-4.76-3.25l-10-7.41-4.8-3.55a17.65,17.65,0,0,1-3.81-3.18c-1.64-2.25-.58-5.38.83-7.64,1.61-2.57,3.87-4.67,5.75-7a69.18,69.18,0,0,0,4.42-6.21A125.13,125.13,0,0,0,237,419.59c5-10.6,9-21.29,13.77-31.83a149.15,149.15,0,0,1,8.5-16.42q1.13-1.83,2.34-3.6c.4-.57.81-1.14,1.22-1.7.17-.24.35-.47.53-.71s.24-.31.07-.08a5.19,5.19,0,0,1,.36-.46,46.1,46.1,0,0,1,5.33-5.67,3,3,0,0,0-4.24-4.24Z"></path><path class="cls-1" d="M213.11,455.2a43.84,43.84,0,0,1-9.37,14.71c-2.45,2.55-5.14,4.84-7.53,7.45a64.27,64.27,0,0,0-6.58,8.72c-3.9,6.12-7.11,12.67-10.56,19-3.67,6.78-7.4,13.53-11.11,20.28-4.22,7.68-8.43,15.36-12.55,23.09a3.06,3.06,0,0,0,1.08,4.1,3,3,0,0,0,4.1-1.08c7.37-13.81,15-27.47,22.5-41.22,3.56-6.56,6.89-13.3,10.78-19.67a60.28,60.28,0,0,1,6-8.36c2.34-2.65,5-5,7.5-7.48a51.36,51.36,0,0,0,11.53-18,3,3,0,0,0-2.09-3.69,3.05,3.05,0,0,0-3.69,2.09Z"></path><path class="cls-1" d="M142.3,559.47c.08-.33.16-.66.26-1,.05-.15.37-.94.16-.49.16-.34.34-.67.53-1,.09-.14.63-.92.33-.54a10.81,10.81,0,0,1,1.36-1.43l.43-.36s-.32.23,0,0a12.24,12.24,0,0,1,4.57-2.05c.33-.08.67-.15,1-.21H151l.44,0a18.27,18.27,0,0,1,2.22,0c.14,0,1.19.15.67.06.34.06.68.12,1,.2s.66.17,1,.28c.15.05,1.09.42.65.22a10.88,10.88,0,0,1,3.54,2.47,15.62,15.62,0,0,1,4.08,8,20.54,20.54,0,0,1-.64,10.52,3,3,0,1,0,5.78,1.59c2.57-8,1.26-17.53-4.51-23.85-5.38-5.88-14.09-7-21.09-3.45a14.34,14.34,0,0,0-7.63,9.47,3.07,3.07,0,0,0,2.09,3.69,3,3,0,0,0,3.69-2.1Z"></path><path class="cls-1" d="M171,577a71.8,71.8,0,0,1,8.13-31.13A83.88,83.88,0,0,1,186,535.46q16.38-22,32.83-43.93c5-6.72,9.9-14.64,17.6-18.57a3,3,0,0,0-3-5.18c-7.29,3.72-12.13,10.53-16.91,16.92l-16.9,22.61-16.9,22.61a131,131,0,0,0-7.61,10.84,68.68,68.68,0,0,0-5,10.47A71.7,71.7,0,0,0,165,577c0,3.86,6,3.87,6,0Z"></path><path class="cls-1" d="M346.88,361.12c8.48,10.61,9.81,25,16.41,36.59,3.6,6.34,8.87,11.15,13.93,16.27a44.31,44.31,0,0,1,6.49,7.91c2,3.26,3.46,6.79,5.45,10a40.88,40.88,0,0,0,17.55,15.67,3.08,3.08,0,0,0,4.1-1.08,3,3,0,0,0-1.07-4.1A35.26,35.26,0,0,1,395,429.92c-2.07-3.15-3.56-6.63-5.42-9.9a46,46,0,0,0-6.67-8.79c-4.67-5-10-9.31-13.62-15.17-3.48-5.67-5.52-12-7.68-18.23-2.59-7.46-5.51-14.73-10.48-20.95-1-1.27-3.19-1.06-4.24,0a3.07,3.07,0,0,0,0,4.24Z"></path><path class="cls-1" d="M348,436l24.62,25.94c1.88,2,3.85,4.81,6.55,5.69s5.36-.79,7.75-2.08a131.82,131.82,0,0,0,12.47-7.34,48.14,48.14,0,0,0,12.21-11.65,3,3,0,0,0-1.08-4.1,3.06,3.06,0,0,0-4.1,1.08c-5.07,7.1-12.89,11.59-20.4,15.68l-2.83,1.53-1.41.76-.7.36c-.42.21-.54,0-.17.09.54.12,0-.1-.12-.19-.39-.4-.8-.79-1.19-1.19l-3.08-3.25L365.23,445.4l-13-13.69c-2.66-2.81-6.9,1.44-4.24,4.24Z"></path><path class="cls-1" d="M383.28,465a14.74,14.74,0,0,0,7.21,7.71c2.95,1.61,6.18,2.71,9,4.62,3,2.05,5,5.29,6.69,8.46,2,3.71,3.56,7.6,5.38,11.37,3.82,7.91,8.22,15.61,14.13,22.17,5,5.53,11.16,9.6,17.09,14a47.78,47.78,0,0,1,7.9,7.14,21.29,21.29,0,0,1,4.46,9.3,3,3,0,0,0,5.78-1.6c-3.05-14.71-17.88-20.59-27.72-29.76-6.22-5.81-10.76-13.09-14.63-20.62-1.94-3.78-3.67-7.65-5.46-11.49a43.43,43.43,0,0,0-6.4-10.49c-2.81-3.21-6.41-5.06-10.2-6.83a34.09,34.09,0,0,1-4.87-2.63A10,10,0,0,1,390,465s-.36-.43-.1-.09c-.12-.16-.23-.33-.34-.5s-.21-.35-.31-.53-.36-.84-.2-.43a3.09,3.09,0,0,0-3.69-2.09,3,3,0,0,0-2.1,3.69Z"></path><path class="cls-1" d="M405.11,447.8c2.17,14.43,14.48,24.79,24,34.79,10.57,11.15,18,24.69,25.77,37.84a219.21,219.21,0,0,0,14.29,21.89,3.11,3.11,0,0,0,4.11,1.07c1.26-.74,2.06-2.81,1.07-4.1C465,527.07,458,513.34,449.86,500.35a148.41,148.41,0,0,0-13.75-18.94c-4.71-5.39-10-10.23-14.74-15.62-5-5.69-9.34-12-10.48-19.59-.24-1.6-2.26-2.49-3.69-2.09a3.08,3.08,0,0,0-2.09,3.69Z"></path><path class="cls-1" d="M460.26,567.66c-1.86-6.24-1.37-13.78,2.66-18.86a16.7,16.7,0,0,1,1.77-1.89,8.21,8.21,0,0,1,1.7-1.29q.44-.27.9-.51c.11-.05,1-.47.62-.3a14.71,14.71,0,0,1,2.26-.68c.34-.08.68-.14,1-.19s0,0-.07,0l.6-.05a16.9,16.9,0,0,1,2.36,0l.78.06c-.35-.05.26,0,.33.06l.58.11a16.83,16.83,0,0,1,2.1.61l.54.2c-.46-.19.12.07.21.11.38.2.76.39,1.13.62s.64.4.94.62c-.39-.28,0,0,.06.05l.53.47c.27.25.53.53.78.8.05,0,.42.5.22.24s.22.32.26.38a10.53,10.53,0,0,1,.58,1c.09.17.17.34.25.51-.21-.46.1.28.13.37a3,3,0,0,0,5.79-1.6C486.66,541,478.63,537.1,471,538A18.29,18.29,0,0,0,460.07,543a22.86,22.86,0,0,0-6.13,11.28,29.76,29.76,0,0,0,.53,15c1.11,3.69,6.9,2.11,5.79-1.6Z"></path><path d="M308.5,617A308.5,308.5,0,0,1,90.36,90.36,308.5,308.5,0,1,1,526.64,526.64,306.48,306.48,0,0,1,308.5,617Zm0-608A299.5,299.5,0,0,0,96.72,520.28,299.5,299.5,0,0,0,520.28,96.72,297.54,297.54,0,0,0,308.5,9Z"></path><path d="M560,616H52V107H560ZM61,607H551V116H61Z"></path><rect x="4.5" y="304" width="608" height="9"></rect><path d="M359.42,121.61c1.79,3.38,4.84,6.45,4.74,10.27-.16,6.51-8.6,9.05-12.41,14.33-4,5.56-2.38,13.59-5.72,19.58-.63,1.13-1.65,2.27-2.94,2.22a3.86,3.86,0,0,1-2.63-1.84c-4.32-5.79-5.78-13.27-9.83-19.24s-13-10-18.36-5.13c-3.4,3.08-4.71,9.13-9.27,9.57-3,.29-5.39-2.14-8-3.57A12.55,12.55,0,0,0,276.52,160c-1.68,1.49-3.81-1.27-4.36-3.44L266.7,134.8c-1.67-6.65-3.18-14.27.74-19.88.87,3.53,6.55,2.18,8.56-.86s3.06-7.23,6.47-8.5,7.4,1.14,10.62-.45c2.65-1.3,4.11-5,7.07-5,2,0,3.54,2,5.48,2.62,2.1.69,4.35-.19,6.46-.83,16.75-5.06,34.94,6,51.25-.76C357.9,106.24,355.86,114.88,359.42,121.61Z"></path><path d="M295.25,183.46c0,2.9,0,6,1.53,8.45s5.22,3.79,7.43,1.91c1.19-1,1.91-2.84,3.47-3a17.62,17.62,0,0,0,5.18,6.1,2.18,2.18,0,0,0,1.82.58c.64-.18,1-.85,1.24-1.47a33.58,33.58,0,0,0,2.52-14.31c2.32,3.05,6.76,3.79,10.46,2.78s6.83-3.41,9.85-5.76c1.39,5.38-.54,11.15-3.61,15.8s-7.2,8.45-10.87,12.64a77.91,77.91,0,0,0-12.85,20.18l-24.59-32c-1.75-2.27-5.16-6.63-2.25-9.13C285.8,185.24,295.22,186.24,295.25,183.46Z"></path><path class="cls-1" d="M201.13,199A27.82,27.82,0,0,1,210,185.2a1.5,1.5,0,1,0-2.12-2.12,30.56,30.56,0,0,0-9.66,15.1,1.51,1.51,0,0,0,2.9.8Z"></path><path class="cls-1" d="M204,198.87c.37-.59.76-1.17,1.16-1.74l.65-.88c.33-.44-.28.34,0,.05l.31-.39a39,39,0,0,1,2.79-3.11,37.2,37.2,0,0,1,3-2.72l.39-.31c.55-.44-.54.39,0,0l.81-.59c.59-.42,1.2-.83,1.81-1.22a3,3,0,1,0-3-5.18,42.41,42.41,0,0,0-13.08,13.08,3,3,0,0,0,1.08,4.1,3.07,3.07,0,0,0,4.1-1.07Z"></path><path class="cls-1" d="M216.27,215.18a44,44,0,0,0,.58,23.4,3,3,0,0,0,5.79-1.6,37.9,37.9,0,0,1-.59-20.21,3,3,0,1,0-5.78-1.59Z"></path><path class="cls-1" d="M403.74,221a21.45,21.45,0,0,1-4.87,19,3,3,0,0,0,4.24,4.24,27.64,27.64,0,0,0,6.42-24.88,3,3,0,1,0-5.79,1.59Z"></path><path class="cls-1" d="M290.12,211.11c-5.29,6.4-.28,15.95,5.86,21.6s14,11,14.89,19.2L332.79,225c3.62-4.44,6.95-11.61,2.23-14.93a238.5,238.5,0,0,1,71.24,11.2,15.82,15.82,0,0,1-1,17.76,17.09,17.09,0,0,1-17.4,5.65c-4.19-1.13-7.88-3.87-12.2-4.39-8.14-1-14.86,6.1-18.76,13.09-17.21,30.85-9.24,68.62-.83,102.73-32,2.63-72.53,7.36-95.53-4.64,4.51-7.56,8.58-15.13,11.21-23.48,3.14-9.93,3.47-20.52,2.54-30.86-1.38-15.42-5.77-31.13-16.05-43s-27.38-19-42.7-14.59l.77-21.27C240.86,214.45,265.2,211.07,290.12,211.11Z"></path><path class="cls-1" d="M203.24,198.15l15.55,14.4-13.93-12.08a3,3,0,0,1-1.09-1.47,2.84,2.84,0,0,1,.39-1.76,53.08,53.08,0,0,1,6.13-10,6.33,6.33,0,0,1,2.24-2,6.52,6.52,0,0,1,3.72-.16,103.45,103.45,0,0,1,57.77,30q-15.56,5.26-31.57,9.06c-2.2.52-4.5,1-6.69.49a14.7,14.7,0,0,1-5.28-3l-11.94-9.15"></path><path class="cls-1" d="M400.24,223.84h-.51c-18.41-.25-34.32-4-51.51-12.3a.81.81,0,0,1-.4.09.68.68,0,0,1-.62-.39.9.9,0,0,1,0-.72l-.58-.86.85.41a106.26,106.26,0,0,1,33.67-28.14,15.23,15.23,0,0,1,6.47-1.68,3.73,3.73,0,0,1,2.2.37,3.79,3.79,0,0,1,1.37,1.79,93.9,93.9,0,0,1,9.06,40.93Zm-51.85-13.33c17,8.19,32.71,12,50.85,12.31a93,93,0,0,0-9-40,3,3,0,0,0-1-1.37,2.83,2.83,0,0,0-1.63-.22,14.08,14.08,0,0,0-6.05,1.56A105.34,105.34,0,0,0,348.39,210.51Z"></path><path d="M283.5,591.5c9-5,14.75-.76,17,1,3.63,2.85,7.78,12.39,8,17,0,.58-3.26-2.16-3.69-1.77a2,2,0,0,1-1.53.33c-4.64-.25-27.55,3.77-28.78-1.56C273,600.07,279.74,593.59,283.5,591.5Z"></path><path d="M319.84,597.81c3-3.3,6.73-6.21,11.08-7.33a13.57,13.57,0,0,1,12.34,3.28c5.24,4.74,2.52,11.44,5.24,14.74C345.6,605,301,618.22,319.84,597.81Z"></path><path d="M464.8,542.59a14.88,14.88,0,0,1,23.71,10.13c-5.73,3.16-23.43,24.2-29,19.78C453.54,567.79,455.5,549.5,464.8,542.59Z"></path><path d="M143.16,556.73l-3.69-.05a19.27,19.27,0,0,1,11.47-8,14.05,14.05,0,0,1,13.12,3.85c4.61,5,4.19,12.72,3.49,19.5-.17,1.6-.56,3.51-2.07,4.06a4.18,4.18,0,0,1-2,0,34.92,34.92,0,0,1-26.89-21.94l-.77,2.52"></path><path d="M268.09,396.28a216.27,216.27,0,0,1-2.51,78.41,105.39,105.39,0,0,0,34.9.79l6.7-68a.54.54,0,0,1,1.07,0L311,478.72c12.08-4.25,25.68-8.42,37.13-1.72a6.39,6.39,0,0,0,6.5.17c2.35-1.41,2.07-3.76,1.73-5.85a255,255,0,0,0-6.73-29.91c-2.14-7.37-4.62-14.72-5.37-22.36-1.83-18.54,6.66-36.89,5.14-55.45a3.67,3.67,0,0,0-.87-2.49,3.94,3.94,0,0,0-2.89-.66c-14.45.36-28.43-4.65-42.7-6.92-9.7-1.55-29.51-3.07-36.56,6C260,367.73,266.69,387.1,268.09,396.28Z"></path><path d="M267.64,430.76a18.31,18.31,0,0,1-.34,6.14c-.8,2.76-2.81,5-4.69,7.16a112,112,0,0,0-18.56,30.25q-12.51-8.43-24.6-17.46c-1.6-1.2-3.27-2.5-4-4.35-1.38-3.43.85-7.15,2.92-10.2A291,291,0,0,0,246.92,389c2.52-6.18,6.66-15.07,10.58-20.53,6.92-9.63,5,6.13,5.7,12Q266.17,405.56,267.64,430.76Z"></path><path d="M347.9,409.09a45.17,45.17,0,0,0-.5,11.6c1.13,8.74,7.15,15.95,12.93,22.62l16,18.51a3.39,3.39,0,0,0,5.24.85A322.72,322.72,0,0,0,409.54,446a3,3,0,0,0,.93-.85c1-1.77-1.93-3-4-3.28-6.83-.94-12.06-6.59-15.55-12.54s-5.94-12.57-10.38-17.85c-3.38-4-7.78-7.08-11.14-11.11-3.53-4.24-5.77-9.37-8-14.43-2.37-5.45-4.34-11.53-7.4-16.59-3.46,3.19-2.89,14.44-3.5,19.13C349.71,395.15,347.9,402.35,347.9,409.09Z"></path><path class="cls-1" d="M385.77,181.05c1.12-.39,2.43-.74,3.44-.12a4.15,4.15,0,0,1,1.44,2.13A187.67,187.67,0,0,1,401,219.31c-.12-.65-25.16-3.44-27.69-3.93-4-.77-24.7-3-26-7-1.26-3.78,13.7-14.07,16.57-16.08A88.91,88.91,0,0,1,385.77,181.05Z"></path></g></g></svg>